<?xml version="1.0" encoding="utf-8" standalone="no"?>
<!DOCTYPE svg PUBLIC "-//W3C//DTD SVG 1.1//EN"
  "http://www.w3.org/Graphics/SVG/1.1/DTD/svg11.dtd">
<svg xmlns:xlink="http://www.w3.org/1999/xlink" width="799.867875pt" height="243.914687pt" viewBox="0 0 799.867875 243.914687" xmlns="http://www.w3.org/2000/svg" version="1.1">
 <metadata>
  <rdf:RDF xmlns:dc="http://purl.org/dc/elements/1.1/" xmlns:cc="http://creativecommons.org/ns#" xmlns:rdf="http://www.w3.org/1999/02/22-rdf-syntax-ns#">
   <cc:Work>
    <dc:type rdf:resource="http://purl.org/dc/dcmitype/StillImage"/>
    <dc:date>2024-10-24T16:12:56.232031</dc:date>
    <dc:format>image/svg+xml</dc:format>
    <dc:creator>
     <cc:Agent>
      <dc:title>Matplotlib v3.9.2, https://matplotlib.org/</dc:title>
     </cc:Agent>
    </dc:creator>
   </cc:Work>
  </rdf:RDF>
 </metadata>
 <defs>
  <style type="text/css">*{stroke-linejoin: round; stroke-linecap: butt}</style>
 </defs>
 <g id="figure_1">
  <g id="patch_1">
   <path d="M 0 243.914687 
L 799.867875 243.914687 
L 799.867875 0 
L 0 0 
z
" style="fill: #ffffff"/>
  </g>
  <g id="axes_1">
   <g id="patch_2">
    <path d="M 10.38125 202.036563 
L 96.227404 202.036563 
L 96.227404 7.996563 
L 10.38125 7.996563 
z
" style="fill: #ffffff"/>
   </g>
   <g id="patch_3">
    <path d="M 10.38125 185.866562 
L 1003.096077 185.866562 
L 1003.096077 24.166562 
L 10.38125 24.166562 
z
" clip-path="url(#p4ff2f2f0fb)" style="fill: #aaaaaa; stroke: #000000; stroke-width: 0.5; stroke-linejoin: miter"/>
   </g>
   <g id="patch_4">
    <path d="M 1003.096077 56.506563 
L 1047.905052 56.506563 
L 1047.905052 24.166563 
L 1003.096077 24.166563 
z
" clip-path="url(#p4ff2f2f0fb)" style="fill: #00549f; stroke: #000000; stroke-width: 0.5; stroke-linejoin: miter"/>
   </g>
   <g id="patch_5">
    <path d="M 1047.905052 56.506563 
L 1159.927491 56.506563 
L 1159.927491 24.166563 
L 1047.905052 24.166563 
z
" clip-path="url(#p4ff2f2f0fb)" style="fill: #407fb7; stroke: #000000; stroke-width: 0.5; stroke-linejoin: miter"/>
   </g>
   <g id="patch_6">
    <path d="M 1159.927491 56.506563 
L 1271.94993 56.506563 
L 1271.94993 24.166563 
L 1159.927491 24.166563 
z
" clip-path="url(#p4ff2f2f0fb)" style="fill: #8ebae5; stroke: #000000; stroke-width: 0.5; stroke-linejoin: miter"/>
   </g>
   <g id="patch_7">
    <path d="M 1271.94993 56.506563 
L 1316.758905 56.506563 
L 1316.758905 24.166563 
L 1271.94993 24.166563 
z
" clip-path="url(#p4ff2f2f0fb)" style="fill: #c7ddf2; stroke: #000000; stroke-width: 0.5; stroke-linejoin: miter"/>
   </g>
   <g id="patch_8">
    <path d="M 1316.758905 56.506563 
L 1364.214335 56.506563 
L 1364.214335 24.166563 
L 1316.758905 24.166563 
z
" clip-path="url(#p4ff2f2f0fb)" style="fill: #57ab27; stroke: #000000; stroke-width: 0.5; stroke-linejoin: miter"/>
   </g>
   <g id="patch_9">
    <path d="M 1364.214335 56.506563 
L 1443.306718 56.506563 
L 1443.306718 24.166563 
L 1364.214335 24.166563 
z
" clip-path="url(#p4ff2f2f0fb)" style="fill: #8dc060; stroke: #000000; stroke-width: 0.5; stroke-linejoin: miter"/>
   </g>
   <g id="patch_10">
    <path d="M 1003.096077 99.62656 
L 1047.905052 99.62656 
L 1047.905052 67.28656 
L 1003.096077 67.28656 
z
" clip-path="url(#p4ff2f2f0fb)" style="fill: #00549f; stroke: #000000; stroke-width: 0.5; stroke-linejoin: miter"/>
   </g>
   <g id="patch_11">
    <path d="M 1047.905052 99.62656 
L 1159.38595 99.62656 
L 1159.38595 67.28656 
L 1047.905052 67.28656 
z
" clip-path="url(#p4ff2f2f0fb)" style="fill: #407fb7; stroke: #000000; stroke-width: 0.5; stroke-linejoin: miter"/>
   </g>
   <g id="patch_12">
    <path d="M 1159.38595 99.62656 
L 1268.614336 99.62656 
L 1268.614336 67.28656 
L 1159.38595 67.28656 
z
" clip-path="url(#p4ff2f2f0fb)" style="fill: #8ebae5; stroke: #000000; stroke-width: 0.5; stroke-linejoin: miter"/>
   </g>
   <g id="patch_13">
    <path d="M 1268.614336 99.62656 
L 1311.390564 99.62656 
L 1311.390564 67.28656 
L 1268.614336 67.28656 
z
" clip-path="url(#p4ff2f2f0fb)" style="fill: #c7ddf2; stroke: #000000; stroke-width: 0.5; stroke-linejoin: miter"/>
   </g>
   <g id="patch_14">
    <path d="M 1311.390564 99.62656 
L 1356.437561 99.62656 
L 1356.437561 67.28656 
L 1311.390564 67.28656 
z
" clip-path="url(#p4ff2f2f0fb)" style="fill: #57ab27; stroke: #000000; stroke-width: 0.5; stroke-linejoin: miter"/>
   </g>
   <g id="patch_15">
    <path d="M 1356.437561 99.62656 
L 1430.842755 99.62656 
L 1430.842755 67.28656 
L 1356.437561 67.28656 
z
" clip-path="url(#p4ff2f2f0fb)" style="fill: #8dc060; stroke: #000000; stroke-width: 0.5; stroke-linejoin: miter"/>
   </g>
   <g id="patch_16">
    <path d="M 1003.096077 142.746565 
L 1047.905052 142.746565 
L 1047.905052 110.406565 
L 1003.096077 110.406565 
z
" clip-path="url(#p4ff2f2f0fb)" style="fill: #00549f; stroke: #000000; stroke-width: 0.5; stroke-linejoin: miter"/>
   </g>
   <g id="patch_17">
    <path d="M 1047.905052 142.746565 
L 1154.192353 142.746565 
L 1154.192353 110.406565 
L 1047.905052 110.406565 
z
" clip-path="url(#p4ff2f2f0fb)" style="fill: #407fb7; stroke: #000000; stroke-width: 0.5; stroke-linejoin: miter"/>
   </g>
   <g id="patch_18">
    <path d="M 1154.192353 142.746565 
L 1255.035639 142.746565 
L 1255.035639 110.406565 
L 1154.192353 110.406565 
z
" clip-path="url(#p4ff2f2f0fb)" style="fill: #8ebae5; stroke: #000000; stroke-width: 0.5; stroke-linejoin: miter"/>
   </g>
   <g id="patch_19">
    <path d="M 1255.035639 142.746565 
L 1292.274854 142.746565 
L 1292.274854 110.406565 
L 1255.035639 110.406565 
z
" clip-path="url(#p4ff2f2f0fb)" style="fill: #c7ddf2; stroke: #000000; stroke-width: 0.5; stroke-linejoin: miter"/>
   </g>
   <g id="patch_20">
    <path d="M 1292.274854 142.746565 
L 1330.408238 142.746565 
L 1330.408238 110.406565 
L 1292.274854 110.406565 
z
" clip-path="url(#p4ff2f2f0fb)" style="fill: #57ab27; stroke: #000000; stroke-width: 0.5; stroke-linejoin: miter"/>
   </g>
   <g id="patch_21">
    <path d="M 1330.408238 142.746565 
L 1390.436114 142.746565 
L 1390.436114 110.406565 
L 1330.408238 110.406565 
z
" clip-path="url(#p4ff2f2f0fb)" style="fill: #8dc060; stroke: #000000; stroke-width: 0.5; stroke-linejoin: miter"/>
   </g>
   <g id="patch_22">
    <path d="M 1003.096077 185.866562 
L 1047.905052 185.866562 
L 1047.905052 153.526562 
L 1003.096077 153.526562 
z
" clip-path="url(#p4ff2f2f0fb)" style="fill: #00549f; stroke: #000000; stroke-width: 0.5; stroke-linejoin: miter"/>
   </g>
   <g id="patch_23">
    <path d="M 1047.905052 185.866562 
L 1148.055843 185.866562 
L 1148.055843 153.526562 
L 1047.905052 153.526562 
z
" clip-path="url(#p4ff2f2f0fb)" style="fill: #407fb7; stroke: #000000; stroke-width: 0.5; stroke-linejoin: miter"/>
   </g>
   <g id="patch_24">
    <path d="M 1148.055843 185.866562 
L 1222.285316 185.866562 
L 1222.285316 153.526562 
L 1148.055843 153.526562 
z
" clip-path="url(#p4ff2f2f0fb)" style="fill: #8ebae5; stroke: #000000; stroke-width: 0.5; stroke-linejoin: miter"/>
   </g>
   <g id="patch_25">
    <path d="M 1222.285316 185.866562 
L 1247.106529 185.866562 
L 1247.106529 153.526562 
L 1222.285316 153.526562 
z
" clip-path="url(#p4ff2f2f0fb)" style="fill: #c7ddf2; stroke: #000000; stroke-width: 0.5; stroke-linejoin: miter"/>
   </g>
   <g id="patch_26">
    <path d="M 1247.106529 185.866562 
L 1273.250044 185.866562 
L 1273.250044 153.526562 
L 1247.106529 153.526562 
z
" clip-path="url(#p4ff2f2f0fb)" style="fill: #57ab27; stroke: #000000; stroke-width: 0.5; stroke-linejoin: miter"/>
   </g>
   <g id="patch_27">
    <path d="M 1273.250044 185.866562 
L 1316.024125 185.866562 
L 1316.024125 153.526562 
L 1273.250044 153.526562 
z
" clip-path="url(#p4ff2f2f0fb)" style="fill: #8dc060; stroke: #000000; stroke-width: 0.5; stroke-linejoin: miter"/>
   </g>
   <g id="matplotlib.axis_1">
    <g id="xtick_1">
     <g id="line2d_1">
      <defs>
       <path id="ma8e99cc12a" d="M 0 0 
L 0 3.5 
" style="stroke: #000000; stroke-width: 0.8"/>
      </defs>
      <g>
       <use xlink:href="#ma8e99cc12a" x="10.38125" y="202.036563" style="stroke: #000000; stroke-width: 0.8"/>
      </g>
     </g>
     <g id="text_1">
      <!-- 0 -->
      <g transform="translate(7.2 216.635) scale(0.1 -0.1)">
       <defs>
        <path id="DejaVuSans-30" d="M 2034 4250 
Q 1547 4250 1301 3770 
Q 1056 3291 1056 2328 
Q 1056 1369 1301 889 
Q 1547 409 2034 409 
Q 2525 409 2770 889 
Q 3016 1369 3016 2328 
Q 3016 3291 2770 3770 
Q 2525 4250 2034 4250 
z
M 2034 4750 
Q 2819 4750 3233 4129 
Q 3647 3509 3647 2328 
Q 3647 1150 3233 529 
Q 2819 -91 2034 -91 
Q 1250 -91 836 529 
Q 422 1150 422 2328 
Q 422 3509 836 4129 
Q 1250 4750 2034 4750 
z
" transform="scale(0.015625)"/>
       </defs>
       <use xlink:href="#DejaVuSans-30"/>
      </g>
     </g>
    </g>
   </g>
   <g id="matplotlib.axis_2"/>
   <g id="line2d_2">
    <path d="M 91.238058 207.025908 
L 101.216749 197.047217 
" style="fill: none; stroke: #000000; stroke-width: 0.8; stroke-linecap: square"/>
   </g>
   <g id="line2d_3">
    <path clip-path="url(#p4ff2f2f0fb)" style="fill: none; stroke-dasharray: 1.85,0.8; stroke-dashoffset: 0; stroke: #000000; stroke-width: 0.5"/>
   </g>
   <g id="line2d_4">
    <path clip-path="url(#p4ff2f2f0fb)" style="fill: none; stroke-dasharray: 1.85,0.8; stroke-dashoffset: 0; stroke: #000000; stroke-width: 0.5"/>
   </g>
   <g id="line2d_5">
    <path clip-path="url(#p4ff2f2f0fb)" style="fill: none; stroke-dasharray: 1.85,0.8; stroke-dashoffset: 0; stroke: #000000; stroke-width: 0.5"/>
   </g>
   <g id="line2d_6">
    <path clip-path="url(#p4ff2f2f0fb)" style="fill: none; stroke-dasharray: 1.85,0.8; stroke-dashoffset: 0; stroke: #000000; stroke-width: 0.5"/>
   </g>
   <g id="line2d_7">
    <path clip-path="url(#p4ff2f2f0fb)" style="fill: none; stroke-dasharray: 1.85,0.8; stroke-dashoffset: 0; stroke: #000000; stroke-width: 0.5"/>
   </g>
   <g id="line2d_8">
    <path clip-path="url(#p4ff2f2f0fb)" style="fill: none; stroke-dasharray: 1.85,0.8; stroke-dashoffset: 0; stroke: #000000; stroke-width: 0.5"/>
   </g>
   <g id="line2d_9">
    <path clip-path="url(#p4ff2f2f0fb)" style="fill: none; stroke-dasharray: 1.85,0.8; stroke-dashoffset: 0; stroke: #000000; stroke-width: 0.5"/>
   </g>
   <g id="line2d_10">
    <path clip-path="url(#p4ff2f2f0fb)" style="fill: none; stroke-dasharray: 1.85,0.8; stroke-dashoffset: 0; stroke: #000000; stroke-width: 0.5"/>
   </g>
   <g id="line2d_11">
    <path clip-path="url(#p4ff2f2f0fb)" style="fill: none; stroke-dasharray: 1.85,0.8; stroke-dashoffset: 0; stroke: #000000; stroke-width: 0.5"/>
   </g>
   <g id="line2d_12">
    <path clip-path="url(#p4ff2f2f0fb)" style="fill: none; stroke-dasharray: 1.85,0.8; stroke-dashoffset: 0; stroke: #000000; stroke-width: 0.5"/>
   </g>
   <g id="line2d_13">
    <path clip-path="url(#p4ff2f2f0fb)" style="fill: none; stroke-dasharray: 1.85,0.8; stroke-dashoffset: 0; stroke: #000000; stroke-width: 0.5"/>
   </g>
   <g id="line2d_14">
    <path clip-path="url(#p4ff2f2f0fb)" style="fill: none; stroke-dasharray: 1.85,0.8; stroke-dashoffset: 0; stroke: #000000; stroke-width: 0.5"/>
   </g>
   <g id="line2d_15">
    <path clip-path="url(#p4ff2f2f0fb)" style="fill: none; stroke-dasharray: 1.85,0.8; stroke-dashoffset: 0; stroke: #000000; stroke-width: 0.5"/>
   </g>
   <g id="line2d_16">
    <path clip-path="url(#p4ff2f2f0fb)" style="fill: none; stroke-dasharray: 1.85,0.8; stroke-dashoffset: 0; stroke: #000000; stroke-width: 0.5"/>
   </g>
   <g id="line2d_17">
    <path clip-path="url(#p4ff2f2f0fb)" style="fill: none; stroke-dasharray: 1.85,0.8; stroke-dashoffset: 0; stroke: #000000; stroke-width: 0.5"/>
   </g>
   <g id="line2d_18">
    <path clip-path="url(#p4ff2f2f0fb)" style="fill: none; stroke-dasharray: 1.85,0.8; stroke-dashoffset: 0; stroke: #000000; stroke-width: 0.5"/>
   </g>
   <g id="line2d_19">
    <path clip-path="url(#p4ff2f2f0fb)" style="fill: none; stroke-dasharray: 1.85,0.8; stroke-dashoffset: 0; stroke: #000000; stroke-width: 0.5"/>
   </g>
   <g id="line2d_20">
    <path clip-path="url(#p4ff2f2f0fb)" style="fill: none; stroke-dasharray: 1.85,0.8; stroke-dashoffset: 0; stroke: #000000; stroke-width: 0.5"/>
   </g>
   <g id="patch_28">
    <path d="M 10.38125 202.036563 
L 10.38125 7.996562 
" style="fill: none; stroke: #000000; stroke-width: 0.8; stroke-linejoin: miter; stroke-linecap: square"/>
   </g>
   <g id="patch_29">
    <path d="M 10.38125 202.036563 
L 96.227404 202.036563 
" style="fill: none; stroke: #000000; stroke-width: 0.8; stroke-linejoin: miter; stroke-linecap: square"/>
   </g>
  </g>
  <g id="axes_2">
   <g id="patch_30">
    <path d="M 133.427404 202.036563 
L 791.58125 202.036563 
L 791.58125 7.996563 
L 133.427404 7.996563 
z
" style="fill: #ffffff"/>
   </g>
   <g id="patch_31">
    <path d="M -710.726442 185.866562 
L 281.988384 185.866562 
L 281.988384 24.166562 
L -710.726442 24.166562 
z
" clip-path="url(#pdeac368868)" style="fill: #aaaaaa; stroke: #000000; stroke-width: 0.5; stroke-linejoin: miter"/>
   </g>
   <g id="patch_32">
    <path d="M 281.988384 56.506563 
L 326.79736 56.506563 
L 326.79736 24.166563 
L 281.988384 24.166563 
z
" clip-path="url(#pdeac368868)" style="fill: #00549f; stroke: #000000; stroke-width: 0.5; stroke-linejoin: miter"/>
   </g>
   <g id="patch_33">
    <path d="M 326.79736 56.506563 
L 438.819798 56.506563 
L 438.819798 24.166563 
L 326.79736 24.166563 
z
" clip-path="url(#pdeac368868)" style="fill: #407fb7; stroke: #000000; stroke-width: 0.5; stroke-linejoin: miter"/>
   </g>
   <g id="patch_34">
    <path d="M 438.819798 56.506563 
L 550.842237 56.506563 
L 550.842237 24.166563 
L 438.819798 24.166563 
z
" clip-path="url(#pdeac368868)" style="fill: #8ebae5; stroke: #000000; stroke-width: 0.5; stroke-linejoin: miter"/>
   </g>
   <g id="patch_35">
    <path d="M 550.842237 56.506563 
L 595.651213 56.506563 
L 595.651213 24.166563 
L 550.842237 24.166563 
z
" clip-path="url(#pdeac368868)" style="fill: #c7ddf2; stroke: #000000; stroke-width: 0.5; stroke-linejoin: miter"/>
   </g>
   <g id="patch_36">
    <path d="M 595.651213 56.506563 
L 643.106643 56.506563 
L 643.106643 24.166563 
L 595.651213 24.166563 
z
" clip-path="url(#pdeac368868)" style="fill: #57ab27; stroke: #000000; stroke-width: 0.5; stroke-linejoin: miter"/>
   </g>
   <g id="patch_37">
    <path d="M 643.106643 56.506563 
L 722.199026 56.506563 
L 722.199026 24.166563 
L 643.106643 24.166563 
z
" clip-path="url(#pdeac368868)" style="fill: #8dc060; stroke: #000000; stroke-width: 0.5; stroke-linejoin: miter"/>
   </g>
   <g id="patch_38">
    <path d="M 281.988384 99.62656 
L 326.79736 99.62656 
L 326.79736 67.28656 
L 281.988384 67.28656 
z
" clip-path="url(#pdeac368868)" style="fill: #00549f; stroke: #000000; stroke-width: 0.5; stroke-linejoin: miter"/>
   </g>
   <g id="patch_39">
    <path d="M 326.79736 99.62656 
L 438.278258 99.62656 
L 438.278258 67.28656 
L 326.79736 67.28656 
z
" clip-path="url(#pdeac368868)" style="fill: #407fb7; stroke: #000000; stroke-width: 0.5; stroke-linejoin: miter"/>
   </g>
   <g id="patch_40">
    <path d="M 438.278258 99.62656 
L 547.506643 99.62656 
L 547.506643 67.28656 
L 438.278258 67.28656 
z
" clip-path="url(#pdeac368868)" style="fill: #8ebae5; stroke: #000000; stroke-width: 0.5; stroke-linejoin: miter"/>
   </g>
   <g id="patch_41">
    <path d="M 547.506643 99.62656 
L 590.282872 99.62656 
L 590.282872 67.28656 
L 547.506643 67.28656 
z
" clip-path="url(#pdeac368868)" style="fill: #c7ddf2; stroke: #000000; stroke-width: 0.5; stroke-linejoin: miter"/>
   </g>
   <g id="patch_42">
    <path d="M 590.282872 99.62656 
L 635.329868 99.62656 
L 635.329868 67.28656 
L 590.282872 67.28656 
z
" clip-path="url(#pdeac368868)" style="fill: #57ab27; stroke: #000000; stroke-width: 0.5; stroke-linejoin: miter"/>
   </g>
   <g id="patch_43">
    <path d="M 635.329868 99.62656 
L 709.735063 99.62656 
L 709.735063 67.28656 
L 635.329868 67.28656 
z
" clip-path="url(#pdeac368868)" style="fill: #8dc060; stroke: #000000; stroke-width: 0.5; stroke-linejoin: miter"/>
   </g>
   <g id="patch_44">
    <path d="M 281.988384 142.746565 
L 326.79736 142.746565 
L 326.79736 110.406565 
L 281.988384 110.406565 
z
" clip-path="url(#pdeac368868)" style="fill: #00549f; stroke: #000000; stroke-width: 0.5; stroke-linejoin: miter"/>
   </g>
   <g id="patch_45">
    <path d="M 326.79736 142.746565 
L 433.08466 142.746565 
L 433.08466 110.406565 
L 326.79736 110.406565 
z
" clip-path="url(#pdeac368868)" style="fill: #407fb7; stroke: #000000; stroke-width: 0.5; stroke-linejoin: miter"/>
   </g>
   <g id="patch_46">
    <path d="M 433.08466 142.746565 
L 533.927947 142.746565 
L 533.927947 110.406565 
L 433.08466 110.406565 
z
" clip-path="url(#pdeac368868)" style="fill: #8ebae5; stroke: #000000; stroke-width: 0.5; stroke-linejoin: miter"/>
   </g>
   <g id="patch_47">
    <path d="M 533.927947 142.746565 
L 571.167162 142.746565 
L 571.167162 110.406565 
L 533.927947 110.406565 
z
" clip-path="url(#pdeac368868)" style="fill: #c7ddf2; stroke: #000000; stroke-width: 0.5; stroke-linejoin: miter"/>
   </g>
   <g id="patch_48">
    <path d="M 571.167162 142.746565 
L 609.300546 142.746565 
L 609.300546 110.406565 
L 571.167162 110.406565 
z
" clip-path="url(#pdeac368868)" style="fill: #57ab27; stroke: #000000; stroke-width: 0.5; stroke-linejoin: miter"/>
   </g>
   <g id="patch_49">
    <path d="M 609.300546 142.746565 
L 669.328422 142.746565 
L 669.328422 110.406565 
L 609.300546 110.406565 
z
" clip-path="url(#pdeac368868)" style="fill: #8dc060; stroke: #000000; stroke-width: 0.5; stroke-linejoin: miter"/>
   </g>
   <g id="patch_50">
    <path d="M 281.988384 185.866562 
L 326.79736 185.866562 
L 326.79736 153.526562 
L 281.988384 153.526562 
z
" clip-path="url(#pdeac368868)" style="fill: #00549f; stroke: #000000; stroke-width: 0.5; stroke-linejoin: miter"/>
   </g>
   <g id="patch_51">
    <path d="M 326.79736 185.866562 
L 426.94815 185.866562 
L 426.94815 153.526562 
L 326.79736 153.526562 
z
" clip-path="url(#pdeac368868)" style="fill: #407fb7; stroke: #000000; stroke-width: 0.5; stroke-linejoin: miter"/>
   </g>
   <g id="patch_52">
    <path d="M 426.94815 185.866562 
L 501.177624 185.866562 
L 501.177624 153.526562 
L 426.94815 153.526562 
z
" clip-path="url(#pdeac368868)" style="fill: #8ebae5; stroke: #000000; stroke-width: 0.5; stroke-linejoin: miter"/>
   </g>
   <g id="patch_53">
    <path d="M 501.177624 185.866562 
L 525.998837 185.866562 
L 525.998837 153.526562 
L 501.177624 153.526562 
z
" clip-path="url(#pdeac368868)" style="fill: #c7ddf2; stroke: #000000; stroke-width: 0.5; stroke-linejoin: miter"/>
   </g>
   <g id="patch_54">
    <path d="M 525.998837 185.866562 
L 552.142352 185.866562 
L 552.142352 153.526562 
L 525.998837 153.526562 
z
" clip-path="url(#pdeac368868)" style="fill: #57ab27; stroke: #000000; stroke-width: 0.5; stroke-linejoin: miter"/>
   </g>
   <g id="patch_55">
    <path d="M 552.142352 185.866562 
L 594.916433 185.866562 
L 594.916433 153.526562 
L 552.142352 153.526562 
z
" clip-path="url(#pdeac368868)" style="fill: #8dc060; stroke: #000000; stroke-width: 0.5; stroke-linejoin: miter"/>
   </g>
   <g id="matplotlib.axis_3">
    <g id="xtick_2">
     <g id="line2d_21">
      <g>
       <use xlink:href="#ma8e99cc12a" x="147.735096" y="202.036563" style="stroke: #000000; stroke-width: 0.8"/>
      </g>
     </g>
     <g id="text_2">
      <!-- 60 -->
      <g transform="translate(141.372596 216.635) scale(0.1 -0.1)">
       <defs>
        <path id="DejaVuSans-36" d="M 2113 2584 
Q 1688 2584 1439 2293 
Q 1191 2003 1191 1497 
Q 1191 994 1439 701 
Q 1688 409 2113 409 
Q 2538 409 2786 701 
Q 3034 994 3034 1497 
Q 3034 2003 2786 2293 
Q 2538 2584 2113 2584 
z
M 3366 4563 
L 3366 3988 
Q 3128 4100 2886 4159 
Q 2644 4219 2406 4219 
Q 1781 4219 1451 3797 
Q 1122 3375 1075 2522 
Q 1259 2794 1537 2939 
Q 1816 3084 2150 3084 
Q 2853 3084 3261 2657 
Q 3669 2231 3669 1497 
Q 3669 778 3244 343 
Q 2819 -91 2113 -91 
Q 1303 -91 875 529 
Q 447 1150 447 2328 
Q 447 3434 972 4092 
Q 1497 4750 2381 4750 
Q 2619 4750 2861 4703 
Q 3103 4656 3366 4563 
z
" transform="scale(0.015625)"/>
       </defs>
       <use xlink:href="#DejaVuSans-36"/>
       <use xlink:href="#DejaVuSans-30" x="63.623047"/>
      </g>
     </g>
    </g>
    <g id="xtick_3">
     <g id="line2d_22">
      <g>
       <use xlink:href="#ma8e99cc12a" x="290.812019" y="202.036563" style="stroke: #000000; stroke-width: 0.8"/>
      </g>
     </g>
     <g id="text_3">
      <!-- 70 -->
      <g transform="translate(284.449519 216.635) scale(0.1 -0.1)">
       <defs>
        <path id="DejaVuSans-37" d="M 525 4666 
L 3525 4666 
L 3525 4397 
L 1831 0 
L 1172 0 
L 2766 4134 
L 525 4134 
L 525 4666 
z
" transform="scale(0.015625)"/>
       </defs>
       <use xlink:href="#DejaVuSans-37"/>
       <use xlink:href="#DejaVuSans-30" x="63.623047"/>
      </g>
     </g>
    </g>
    <g id="xtick_4">
     <g id="line2d_23">
      <g>
       <use xlink:href="#ma8e99cc12a" x="433.888942" y="202.036563" style="stroke: #000000; stroke-width: 0.8"/>
      </g>
     </g>
     <g id="text_4">
      <!-- 80 -->
      <g transform="translate(427.526442 216.635) scale(0.1 -0.1)">
       <defs>
        <path id="DejaVuSans-38" d="M 2034 2216 
Q 1584 2216 1326 1975 
Q 1069 1734 1069 1313 
Q 1069 891 1326 650 
Q 1584 409 2034 409 
Q 2484 409 2743 651 
Q 3003 894 3003 1313 
Q 3003 1734 2745 1975 
Q 2488 2216 2034 2216 
z
M 1403 2484 
Q 997 2584 770 2862 
Q 544 3141 544 3541 
Q 544 4100 942 4425 
Q 1341 4750 2034 4750 
Q 2731 4750 3128 4425 
Q 3525 4100 3525 3541 
Q 3525 3141 3298 2862 
Q 3072 2584 2669 2484 
Q 3125 2378 3379 2068 
Q 3634 1759 3634 1313 
Q 3634 634 3220 271 
Q 2806 -91 2034 -91 
Q 1263 -91 848 271 
Q 434 634 434 1313 
Q 434 1759 690 2068 
Q 947 2378 1403 2484 
z
M 1172 3481 
Q 1172 3119 1398 2916 
Q 1625 2713 2034 2713 
Q 2441 2713 2670 2916 
Q 2900 3119 2900 3481 
Q 2900 3844 2670 4047 
Q 2441 4250 2034 4250 
Q 1625 4250 1398 4047 
Q 1172 3844 1172 3481 
z
" transform="scale(0.015625)"/>
       </defs>
       <use xlink:href="#DejaVuSans-38"/>
       <use xlink:href="#DejaVuSans-30" x="63.623047"/>
      </g>
     </g>
    </g>
    <g id="xtick_5">
     <g id="line2d_24">
      <g>
       <use xlink:href="#ma8e99cc12a" x="576.965865" y="202.036563" style="stroke: #000000; stroke-width: 0.8"/>
      </g>
     </g>
     <g id="text_5">
      <!-- 90 -->
      <g transform="translate(570.603365 216.635) scale(0.1 -0.1)">
       <defs>
        <path id="DejaVuSans-39" d="M 703 97 
L 703 672 
Q 941 559 1184 500 
Q 1428 441 1663 441 
Q 2288 441 2617 861 
Q 2947 1281 2994 2138 
Q 2813 1869 2534 1725 
Q 2256 1581 1919 1581 
Q 1219 1581 811 2004 
Q 403 2428 403 3163 
Q 403 3881 828 4315 
Q 1253 4750 1959 4750 
Q 2769 4750 3195 4129 
Q 3622 3509 3622 2328 
Q 3622 1225 3098 567 
Q 2575 -91 1691 -91 
Q 1453 -91 1209 -44 
Q 966 3 703 97 
z
M 1959 2075 
Q 2384 2075 2632 2365 
Q 2881 2656 2881 3163 
Q 2881 3666 2632 3958 
Q 2384 4250 1959 4250 
Q 1534 4250 1286 3958 
Q 1038 3666 1038 3163 
Q 1038 2656 1286 2365 
Q 1534 2075 1959 2075 
z
" transform="scale(0.015625)"/>
       </defs>
       <use xlink:href="#DejaVuSans-39"/>
       <use xlink:href="#DejaVuSans-30" x="63.623047"/>
      </g>
     </g>
    </g>
    <g id="xtick_6">
     <g id="line2d_25">
      <g>
       <use xlink:href="#ma8e99cc12a" x="720.042788" y="202.036563" style="stroke: #000000; stroke-width: 0.8"/>
      </g>
     </g>
     <g id="text_6">
      <!-- 100 -->
      <g transform="translate(710.499038 216.635) scale(0.1 -0.1)">
       <defs>
        <path id="DejaVuSans-31" d="M 794 531 
L 1825 531 
L 1825 4091 
L 703 3866 
L 703 4441 
L 1819 4666 
L 2450 4666 
L 2450 531 
L 3481 531 
L 3481 0 
L 794 0 
L 794 531 
z
" transform="scale(0.015625)"/>
       </defs>
       <use xlink:href="#DejaVuSans-31"/>
       <use xlink:href="#DejaVuSans-30" x="63.623047"/>
       <use xlink:href="#DejaVuSans-30" x="127.246094"/>
      </g>
     </g>
    </g>
   </g>
   <g id="matplotlib.axis_4">
    <g id="ytick_1"/>
    <g id="ytick_2"/>
    <g id="ytick_3"/>
    <g id="ytick_4"/>
    <g id="ytick_5"/>
   </g>
   <g id="line2d_26">
    <path d="M 128.438058 207.025908 
L 138.416749 197.047217 
" style="fill: none; stroke: #000000; stroke-width: 0.8; stroke-linecap: square"/>
   </g>
   <g id="line2d_27">
    <path d="M 326.79736 56.506562 
L 326.79736 67.28656 
" clip-path="url(#pdeac368868)" style="fill: none; stroke-dasharray: 1.85,0.8; stroke-dashoffset: 0; stroke: #000000; stroke-width: 0.5"/>
   </g>
   <g id="line2d_28">
    <path d="M 326.79736 99.62656 
L 326.79736 110.406565 
" clip-path="url(#pdeac368868)" style="fill: none; stroke-dasharray: 1.85,0.8; stroke-dashoffset: 0; stroke: #000000; stroke-width: 0.5"/>
   </g>
   <g id="line2d_29">
    <path d="M 326.79736 142.746565 
L 326.79736 153.526563 
" clip-path="url(#pdeac368868)" style="fill: none; stroke-dasharray: 1.85,0.8; stroke-dashoffset: 0; stroke: #000000; stroke-width: 0.5"/>
   </g>
   <g id="line2d_30">
    <path d="M 438.819798 56.506562 
L 438.278258 67.28656 
" clip-path="url(#pdeac368868)" style="fill: none; stroke-dasharray: 1.85,0.8; stroke-dashoffset: 0; stroke: #000000; stroke-width: 0.5"/>
   </g>
   <g id="line2d_31">
    <path d="M 438.278258 99.62656 
L 433.08466 110.406565 
" clip-path="url(#pdeac368868)" style="fill: none; stroke-dasharray: 1.85,0.8; stroke-dashoffset: 0; stroke: #000000; stroke-width: 0.5"/>
   </g>
   <g id="line2d_32">
    <path d="M 433.08466 142.746565 
L 426.94815 153.526563 
" clip-path="url(#pdeac368868)" style="fill: none; stroke-dasharray: 1.85,0.8; stroke-dashoffset: 0; stroke: #000000; stroke-width: 0.5"/>
   </g>
   <g id="line2d_33">
    <path d="M 550.842237 56.506562 
L 547.506643 67.28656 
" clip-path="url(#pdeac368868)" style="fill: none; stroke-dasharray: 1.85,0.8; stroke-dashoffset: 0; stroke: #000000; stroke-width: 0.5"/>
   </g>
   <g id="line2d_34">
    <path d="M 547.506643 99.62656 
L 533.927947 110.406565 
" clip-path="url(#pdeac368868)" style="fill: none; stroke-dasharray: 1.85,0.8; stroke-dashoffset: 0; stroke: #000000; stroke-width: 0.5"/>
   </g>
   <g id="line2d_35">
    <path d="M 533.927947 142.746565 
L 501.177624 153.526563 
" clip-path="url(#pdeac368868)" style="fill: none; stroke-dasharray: 1.85,0.8; stroke-dashoffset: 0; stroke: #000000; stroke-width: 0.5"/>
   </g>
   <g id="line2d_36">
    <path d="M 595.651213 56.506562 
L 590.282872 67.28656 
" clip-path="url(#pdeac368868)" style="fill: none; stroke-dasharray: 1.85,0.8; stroke-dashoffset: 0; stroke: #000000; stroke-width: 0.5"/>
   </g>
   <g id="line2d_37">
    <path d="M 590.282872 99.62656 
L 571.167162 110.406565 
" clip-path="url(#pdeac368868)" style="fill: none; stroke-dasharray: 1.85,0.8; stroke-dashoffset: 0; stroke: #000000; stroke-width: 0.5"/>
   </g>
   <g id="line2d_38">
    <path d="M 571.167162 142.746565 
L 525.998837 153.526563 
" clip-path="url(#pdeac368868)" style="fill: none; stroke-dasharray: 1.85,0.8; stroke-dashoffset: 0; stroke: #000000; stroke-width: 0.5"/>
   </g>
   <g id="line2d_39">
    <path d="M 643.106643 56.506562 
L 635.329868 67.28656 
" clip-path="url(#pdeac368868)" style="fill: none; stroke-dasharray: 1.85,0.8; stroke-dashoffset: 0; stroke: #000000; stroke-width: 0.5"/>
   </g>
   <g id="line2d_40">
    <path d="M 635.329868 99.62656 
L 609.300546 110.406565 
" clip-path="url(#pdeac368868)" style="fill: none; stroke-dasharray: 1.85,0.8; stroke-dashoffset: 0; stroke: #000000; stroke-width: 0.5"/>
   </g>
   <g id="line2d_41">
    <path d="M 609.300546 142.746565 
L 552.142352 153.526563 
" clip-path="url(#pdeac368868)" style="fill: none; stroke-dasharray: 1.85,0.8; stroke-dashoffset: 0; stroke: #000000; stroke-width: 0.5"/>
   </g>
   <g id="line2d_42">
    <path d="M 722.199026 56.506562 
L 709.735063 67.28656 
" clip-path="url(#pdeac368868)" style="fill: none; stroke-dasharray: 1.85,0.8; stroke-dashoffset: 0; stroke: #000000; stroke-width: 0.5"/>
   </g>
   <g id="line2d_43">
    <path d="M 709.735063 99.62656 
L 669.328422 110.406565 
" clip-path="url(#pdeac368868)" style="fill: none; stroke-dasharray: 1.85,0.8; stroke-dashoffset: 0; stroke: #000000; stroke-width: 0.5"/>
   </g>
   <g id="line2d_44">
    <path d="M 669.328422 142.746565 
L 594.916433 153.526563 
" clip-path="url(#pdeac368868)" style="fill: none; stroke-dasharray: 1.85,0.8; stroke-dashoffset: 0; stroke: #000000; stroke-width: 0.5"/>
   </g>
   <g id="patch_56">
    <path d="M 133.427404 202.036563 
L 791.58125 202.036563 
" style="fill: none; stroke: #000000; stroke-width: 0.8; stroke-linejoin: miter; stroke-linecap: square"/>
   </g>
   <g id="text_7">
    <!-- 2023 (status quo) -->
    <g transform="translate(167.55018 14.798438) scale(0.1 -0.1)">
     <defs>
      <path id="DejaVuSans-32" d="M 1228 531 
L 3431 531 
L 3431 0 
L 469 0 
L 469 531 
Q 828 903 1448 1529 
Q 2069 2156 2228 2338 
Q 2531 2678 2651 2914 
Q 2772 3150 2772 3378 
Q 2772 3750 2511 3984 
Q 2250 4219 1831 4219 
Q 1534 4219 1204 4116 
Q 875 4013 500 3803 
L 500 4441 
Q 881 4594 1212 4672 
Q 1544 4750 1819 4750 
Q 2544 4750 2975 4387 
Q 3406 4025 3406 3419 
Q 3406 3131 3298 2873 
Q 3191 2616 2906 2266 
Q 2828 2175 2409 1742 
Q 1991 1309 1228 531 
z
" transform="scale(0.015625)"/>
      <path id="DejaVuSans-33" d="M 2597 2516 
Q 3050 2419 3304 2112 
Q 3559 1806 3559 1356 
Q 3559 666 3084 287 
Q 2609 -91 1734 -91 
Q 1441 -91 1130 -33 
Q 819 25 488 141 
L 488 750 
Q 750 597 1062 519 
Q 1375 441 1716 441 
Q 2309 441 2620 675 
Q 2931 909 2931 1356 
Q 2931 1769 2642 2001 
Q 2353 2234 1838 2234 
L 1294 2234 
L 1294 2753 
L 1863 2753 
Q 2328 2753 2575 2939 
Q 2822 3125 2822 3475 
Q 2822 3834 2567 4026 
Q 2313 4219 1838 4219 
Q 1578 4219 1281 4162 
Q 984 4106 628 3988 
L 628 4550 
Q 988 4650 1302 4700 
Q 1616 4750 1894 4750 
Q 2613 4750 3031 4423 
Q 3450 4097 3450 3541 
Q 3450 3153 3228 2886 
Q 3006 2619 2597 2516 
z
" transform="scale(0.015625)"/>
      <path id="DejaVuSans-20" transform="scale(0.015625)"/>
      <path id="DejaVuSans-28" d="M 1984 4856 
Q 1566 4138 1362 3434 
Q 1159 2731 1159 2009 
Q 1159 1288 1364 580 
Q 1569 -128 1984 -844 
L 1484 -844 
Q 1016 -109 783 600 
Q 550 1309 550 2009 
Q 550 2706 781 3412 
Q 1013 4119 1484 4856 
L 1984 4856 
z
" transform="scale(0.015625)"/>
      <path id="DejaVuSans-73" d="M 2834 3397 
L 2834 2853 
Q 2591 2978 2328 3040 
Q 2066 3103 1784 3103 
Q 1356 3103 1142 2972 
Q 928 2841 928 2578 
Q 928 2378 1081 2264 
Q 1234 2150 1697 2047 
L 1894 2003 
Q 2506 1872 2764 1633 
Q 3022 1394 3022 966 
Q 3022 478 2636 193 
Q 2250 -91 1575 -91 
Q 1294 -91 989 -36 
Q 684 19 347 128 
L 347 722 
Q 666 556 975 473 
Q 1284 391 1588 391 
Q 1994 391 2212 530 
Q 2431 669 2431 922 
Q 2431 1156 2273 1281 
Q 2116 1406 1581 1522 
L 1381 1569 
Q 847 1681 609 1914 
Q 372 2147 372 2553 
Q 372 3047 722 3315 
Q 1072 3584 1716 3584 
Q 2034 3584 2315 3537 
Q 2597 3491 2834 3397 
z
" transform="scale(0.015625)"/>
      <path id="DejaVuSans-74" d="M 1172 4494 
L 1172 3500 
L 2356 3500 
L 2356 3053 
L 1172 3053 
L 1172 1153 
Q 1172 725 1289 603 
Q 1406 481 1766 481 
L 2356 481 
L 2356 0 
L 1766 0 
Q 1100 0 847 248 
Q 594 497 594 1153 
L 594 3053 
L 172 3053 
L 172 3500 
L 594 3500 
L 594 4494 
L 1172 4494 
z
" transform="scale(0.015625)"/>
      <path id="DejaVuSans-61" d="M 2194 1759 
Q 1497 1759 1228 1600 
Q 959 1441 959 1056 
Q 959 750 1161 570 
Q 1363 391 1709 391 
Q 2188 391 2477 730 
Q 2766 1069 2766 1631 
L 2766 1759 
L 2194 1759 
z
M 3341 1997 
L 3341 0 
L 2766 0 
L 2766 531 
Q 2569 213 2275 61 
Q 1981 -91 1556 -91 
Q 1019 -91 701 211 
Q 384 513 384 1019 
Q 384 1609 779 1909 
Q 1175 2209 1959 2209 
L 2766 2209 
L 2766 2266 
Q 2766 2663 2505 2880 
Q 2244 3097 1772 3097 
Q 1472 3097 1187 3025 
Q 903 2953 641 2809 
L 641 3341 
Q 956 3463 1253 3523 
Q 1550 3584 1831 3584 
Q 2591 3584 2966 3190 
Q 3341 2797 3341 1997 
z
" transform="scale(0.015625)"/>
      <path id="DejaVuSans-75" d="M 544 1381 
L 544 3500 
L 1119 3500 
L 1119 1403 
Q 1119 906 1312 657 
Q 1506 409 1894 409 
Q 2359 409 2629 706 
Q 2900 1003 2900 1516 
L 2900 3500 
L 3475 3500 
L 3475 0 
L 2900 0 
L 2900 538 
Q 2691 219 2414 64 
Q 2138 -91 1772 -91 
Q 1169 -91 856 284 
Q 544 659 544 1381 
z
M 1991 3584 
L 1991 3584 
z
" transform="scale(0.015625)"/>
      <path id="DejaVuSans-71" d="M 947 1747 
Q 947 1113 1208 752 
Q 1469 391 1925 391 
Q 2381 391 2643 752 
Q 2906 1113 2906 1747 
Q 2906 2381 2643 2742 
Q 2381 3103 1925 3103 
Q 1469 3103 1208 2742 
Q 947 2381 947 1747 
z
M 2906 525 
Q 2725 213 2448 61 
Q 2172 -91 1784 -91 
Q 1150 -91 751 415 
Q 353 922 353 1747 
Q 353 2572 751 3078 
Q 1150 3584 1784 3584 
Q 2172 3584 2448 3432 
Q 2725 3281 2906 2969 
L 2906 3500 
L 3481 3500 
L 3481 -1331 
L 2906 -1331 
L 2906 525 
z
" transform="scale(0.015625)"/>
      <path id="DejaVuSans-6f" d="M 1959 3097 
Q 1497 3097 1228 2736 
Q 959 2375 959 1747 
Q 959 1119 1226 758 
Q 1494 397 1959 397 
Q 2419 397 2687 759 
Q 2956 1122 2956 1747 
Q 2956 2369 2687 2733 
Q 2419 3097 1959 3097 
z
M 1959 3584 
Q 2709 3584 3137 3096 
Q 3566 2609 3566 1747 
Q 3566 888 3137 398 
Q 2709 -91 1959 -91 
Q 1206 -91 779 398 
Q 353 888 353 1747 
Q 353 2609 779 3096 
Q 1206 3584 1959 3584 
z
" transform="scale(0.015625)"/>
      <path id="DejaVuSans-29" d="M 513 4856 
L 1013 4856 
Q 1481 4119 1714 3412 
Q 1947 2706 1947 2009 
Q 1947 1309 1714 600 
Q 1481 -109 1013 -844 
L 513 -844 
Q 928 -128 1133 580 
Q 1338 1288 1338 2009 
Q 1338 2731 1133 3434 
Q 928 4138 513 4856 
z
" transform="scale(0.015625)"/>
     </defs>
     <use xlink:href="#DejaVuSans-32"/>
     <use xlink:href="#DejaVuSans-30" x="63.623047"/>
     <use xlink:href="#DejaVuSans-32" x="127.246094"/>
     <use xlink:href="#DejaVuSans-33" x="190.869141"/>
     <use xlink:href="#DejaVuSans-20" x="254.492188"/>
     <use xlink:href="#DejaVuSans-28" x="286.279297"/>
     <use xlink:href="#DejaVuSans-73" x="325.292969"/>
     <use xlink:href="#DejaVuSans-74" x="377.392578"/>
     <use xlink:href="#DejaVuSans-61" x="416.601562"/>
     <use xlink:href="#DejaVuSans-74" x="477.880859"/>
     <use xlink:href="#DejaVuSans-75" x="517.089844"/>
     <use xlink:href="#DejaVuSans-73" x="580.46875"/>
     <use xlink:href="#DejaVuSans-20" x="632.568359"/>
     <use xlink:href="#DejaVuSans-71" x="664.355469"/>
     <use xlink:href="#DejaVuSans-75" x="727.832031"/>
     <use xlink:href="#DejaVuSans-6f" x="791.210938"/>
     <use xlink:href="#DejaVuSans-29" x="852.392578"/>
    </g>
   </g>
   <g id="text_8">
    <g id="patch_57">
     <path d="M 292.251466 47.175625 
L 316.534278 47.175625 
Q 318.534278 47.175625 318.534278 45.175625 
L 318.534278 35.4975 
Q 318.534278 33.4975 316.534278 33.4975 
L 292.251466 33.4975 
Q 290.251466 33.4975 290.251466 35.4975 
L 290.251466 45.175625 
Q 290.251466 47.175625 292.251466 47.175625 
z
" style="fill: #ffffff; opacity: 0.6"/>
    </g>
    <!-- +3.1 -->
    <g transform="translate(292.251466 43.095937) scale(0.1 -0.1)">
     <defs>
      <path id="DejaVuSans-2b" d="M 2944 4013 
L 2944 2272 
L 4684 2272 
L 4684 1741 
L 2944 1741 
L 2944 0 
L 2419 0 
L 2419 1741 
L 678 1741 
L 678 2272 
L 2419 2272 
L 2419 4013 
L 2944 4013 
z
" transform="scale(0.015625)"/>
      <path id="DejaVuSans-2e" d="M 684 794 
L 1344 794 
L 1344 0 
L 684 0 
L 684 794 
z
" transform="scale(0.015625)"/>
     </defs>
     <use xlink:href="#DejaVuSans-2b"/>
     <use xlink:href="#DejaVuSans-33" x="83.789062"/>
     <use xlink:href="#DejaVuSans-2e" x="147.412109"/>
     <use xlink:href="#DejaVuSans-31" x="179.199219"/>
    </g>
   </g>
   <g id="text_9">
    <g id="patch_58">
     <path d="M 370.667173 47.175625 
L 394.949985 47.175625 
Q 396.949985 47.175625 396.949985 45.175625 
L 396.949985 35.4975 
Q 396.949985 33.4975 394.949985 33.4975 
L 370.667173 33.4975 
Q 368.667173 33.4975 368.667173 35.4975 
L 368.667173 45.175625 
Q 368.667173 47.175625 370.667173 47.175625 
z
" style="fill: #ffffff; opacity: 0.6"/>
    </g>
    <!-- +7.8 -->
    <g transform="translate(370.667173 43.095937) scale(0.1 -0.1)">
     <use xlink:href="#DejaVuSans-2b"/>
     <use xlink:href="#DejaVuSans-37" x="83.789062"/>
     <use xlink:href="#DejaVuSans-2e" x="147.412109"/>
     <use xlink:href="#DejaVuSans-38" x="179.199219"/>
    </g>
   </g>
   <g id="text_10">
    <g id="patch_59">
     <path d="M 482.689612 47.175625 
L 506.972424 47.175625 
Q 508.972424 47.175625 508.972424 45.175625 
L 508.972424 35.4975 
Q 508.972424 33.4975 506.972424 33.4975 
L 482.689612 33.4975 
Q 480.689612 33.4975 480.689612 35.4975 
L 480.689612 45.175625 
Q 480.689612 47.175625 482.689612 47.175625 
z
" style="fill: #ffffff; opacity: 0.6"/>
    </g>
    <!-- +7.8 -->
    <g transform="translate(482.689612 43.095937) scale(0.1 -0.1)">
     <use xlink:href="#DejaVuSans-2b"/>
     <use xlink:href="#DejaVuSans-37" x="83.789062"/>
     <use xlink:href="#DejaVuSans-2e" x="147.412109"/>
     <use xlink:href="#DejaVuSans-38" x="179.199219"/>
    </g>
   </g>
   <g id="text_11">
    <g id="patch_60">
     <path d="M 561.105319 47.175625 
L 585.388131 47.175625 
Q 587.388131 47.175625 587.388131 45.175625 
L 587.388131 35.4975 
Q 587.388131 33.4975 585.388131 33.4975 
L 561.105319 33.4975 
Q 559.105319 33.4975 559.105319 35.4975 
L 559.105319 45.175625 
Q 559.105319 47.175625 561.105319 47.175625 
z
" style="fill: #ffffff; opacity: 0.6"/>
    </g>
    <!-- +3.1 -->
    <g transform="translate(561.105319 43.095937) scale(0.1 -0.1)">
     <use xlink:href="#DejaVuSans-2b"/>
     <use xlink:href="#DejaVuSans-33" x="83.789062"/>
     <use xlink:href="#DejaVuSans-2e" x="147.412109"/>
     <use xlink:href="#DejaVuSans-31" x="179.199219"/>
    </g>
   </g>
   <g id="text_12">
    <g id="patch_61">
     <path d="M 607.237521 47.175625 
L 631.520334 47.175625 
Q 633.520334 47.175625 633.520334 45.175625 
L 633.520334 35.4975 
Q 633.520334 33.4975 631.520334 33.4975 
L 607.237521 33.4975 
Q 605.237521 33.4975 605.237521 35.4975 
L 605.237521 45.175625 
Q 605.237521 47.175625 607.237521 47.175625 
z
" style="fill: #ffffff; opacity: 0.6"/>
    </g>
    <!-- +3.3 -->
    <g transform="translate(607.237521 43.095937) scale(0.1 -0.1)">
     <use xlink:href="#DejaVuSans-2b"/>
     <use xlink:href="#DejaVuSans-33" x="83.789062"/>
     <use xlink:href="#DejaVuSans-2e" x="147.412109"/>
     <use xlink:href="#DejaVuSans-33" x="179.199219"/>
    </g>
   </g>
   <g id="text_13">
    <g id="patch_62">
     <path d="M 670.511428 47.175625 
L 694.79424 47.175625 
Q 696.79424 47.175625 696.79424 45.175625 
L 696.79424 35.4975 
Q 696.79424 33.4975 694.79424 33.4975 
L 670.511428 33.4975 
Q 668.511428 33.4975 668.511428 35.4975 
L 668.511428 45.175625 
Q 668.511428 47.175625 670.511428 47.175625 
z
" style="fill: #ffffff; opacity: 0.6"/>
    </g>
    <!-- +5.5 -->
    <g transform="translate(670.511428 43.095937) scale(0.1 -0.1)">
     <defs>
      <path id="DejaVuSans-35" d="M 691 4666 
L 3169 4666 
L 3169 4134 
L 1269 4134 
L 1269 2991 
Q 1406 3038 1543 3061 
Q 1681 3084 1819 3084 
Q 2600 3084 3056 2656 
Q 3513 2228 3513 1497 
Q 3513 744 3044 326 
Q 2575 -91 1722 -91 
Q 1428 -91 1123 -41 
Q 819 9 494 109 
L 494 744 
Q 775 591 1075 516 
Q 1375 441 1709 441 
Q 2250 441 2565 725 
Q 2881 1009 2881 1497 
Q 2881 1984 2565 2268 
Q 2250 2553 1709 2553 
Q 1456 2553 1204 2497 
Q 953 2441 691 2322 
L 691 4666 
z
" transform="scale(0.015625)"/>
     </defs>
     <use xlink:href="#DejaVuSans-2b"/>
     <use xlink:href="#DejaVuSans-35" x="83.789062"/>
     <use xlink:href="#DejaVuSans-2e" x="147.412109"/>
     <use xlink:href="#DejaVuSans-35" x="179.199219"/>
    </g>
   </g>
   <g id="text_14">
    <!--    static -->
    <g transform="translate(722.199026 43.095937) scale(0.1 -0.1)">
     <defs>
      <path id="DejaVuSans-69" d="M 603 3500 
L 1178 3500 
L 1178 0 
L 603 0 
L 603 3500 
z
M 603 4863 
L 1178 4863 
L 1178 4134 
L 603 4134 
L 603 4863 
z
" transform="scale(0.015625)"/>
      <path id="DejaVuSans-63" d="M 3122 3366 
L 3122 2828 
Q 2878 2963 2633 3030 
Q 2388 3097 2138 3097 
Q 1578 3097 1268 2742 
Q 959 2388 959 1747 
Q 959 1106 1268 751 
Q 1578 397 2138 397 
Q 2388 397 2633 464 
Q 2878 531 3122 666 
L 3122 134 
Q 2881 22 2623 -34 
Q 2366 -91 2075 -91 
Q 1284 -91 818 406 
Q 353 903 353 1747 
Q 353 2603 823 3093 
Q 1294 3584 2113 3584 
Q 2378 3584 2631 3529 
Q 2884 3475 3122 3366 
z
" transform="scale(0.015625)"/>
     </defs>
     <use xlink:href="#DejaVuSans-20"/>
     <use xlink:href="#DejaVuSans-20" x="31.787109"/>
     <use xlink:href="#DejaVuSans-20" x="63.574219"/>
     <use xlink:href="#DejaVuSans-73" x="95.361328"/>
     <use xlink:href="#DejaVuSans-74" x="147.460938"/>
     <use xlink:href="#DejaVuSans-61" x="186.669922"/>
     <use xlink:href="#DejaVuSans-74" x="247.949219"/>
     <use xlink:href="#DejaVuSans-69" x="287.158203"/>
     <use xlink:href="#DejaVuSans-63" x="314.941406"/>
    </g>
   </g>
   <g id="text_15">
    <g id="patch_63">
     <path d="M 292.251466 90.295622 
L 316.534278 90.295622 
Q 318.534278 90.295622 318.534278 88.295622 
L 318.534278 78.617497 
Q 318.534278 76.617497 316.534278 76.617497 
L 292.251466 76.617497 
Q 290.251466 76.617497 290.251466 78.617497 
L 290.251466 88.295622 
Q 290.251466 90.295622 292.251466 90.295622 
z
" style="fill: #ffffff; opacity: 0.6"/>
    </g>
    <!-- +3.1 -->
    <g transform="translate(292.251466 86.215935) scale(0.1 -0.1)">
     <use xlink:href="#DejaVuSans-2b"/>
     <use xlink:href="#DejaVuSans-33" x="83.789062"/>
     <use xlink:href="#DejaVuSans-2e" x="147.412109"/>
     <use xlink:href="#DejaVuSans-31" x="179.199219"/>
    </g>
   </g>
   <g id="text_16">
    <g id="patch_64">
     <path d="M 370.396403 90.295622 
L 394.679215 90.295622 
Q 396.679215 90.295622 396.679215 88.295622 
L 396.679215 78.617497 
Q 396.679215 76.617497 394.679215 76.617497 
L 370.396403 76.617497 
Q 368.396403 76.617497 368.396403 78.617497 
L 368.396403 88.295622 
Q 368.396403 90.295622 370.396403 90.295622 
z
" style="fill: #ffffff; opacity: 0.6"/>
    </g>
    <!-- +7.8 -->
    <g transform="translate(370.396403 86.215935) scale(0.1 -0.1)">
     <use xlink:href="#DejaVuSans-2b"/>
     <use xlink:href="#DejaVuSans-37" x="83.789062"/>
     <use xlink:href="#DejaVuSans-2e" x="147.412109"/>
     <use xlink:href="#DejaVuSans-38" x="179.199219"/>
    </g>
   </g>
   <g id="text_17">
    <g id="patch_65">
     <path d="M 480.751044 90.295622 
L 505.033857 90.295622 
Q 507.033857 90.295622 507.033857 88.295622 
L 507.033857 78.617497 
Q 507.033857 76.617497 505.033857 76.617497 
L 480.751044 76.617497 
Q 478.751044 76.617497 478.751044 78.617497 
L 478.751044 88.295622 
Q 478.751044 90.295622 480.751044 90.295622 
z
" style="fill: #ffffff; opacity: 0.6"/>
    </g>
    <!-- +7.6 -->
    <g transform="translate(480.751044 86.215935) scale(0.1 -0.1)">
     <use xlink:href="#DejaVuSans-2b"/>
     <use xlink:href="#DejaVuSans-37" x="83.789062"/>
     <use xlink:href="#DejaVuSans-2e" x="147.412109"/>
     <use xlink:href="#DejaVuSans-36" x="179.199219"/>
    </g>
   </g>
   <g id="text_18">
    <g id="patch_66">
     <path d="M 556.753351 90.295622 
L 581.036164 90.295622 
Q 583.036164 90.295622 583.036164 88.295622 
L 583.036164 78.617497 
Q 583.036164 76.617497 581.036164 76.617497 
L 556.753351 76.617497 
Q 554.753351 76.617497 554.753351 78.617497 
L 554.753351 88.295622 
Q 554.753351 90.295622 556.753351 90.295622 
z
" style="fill: #ffffff; opacity: 0.6"/>
    </g>
    <!-- +3.0 -->
    <g transform="translate(556.753351 86.215935) scale(0.1 -0.1)">
     <use xlink:href="#DejaVuSans-2b"/>
     <use xlink:href="#DejaVuSans-33" x="83.789062"/>
     <use xlink:href="#DejaVuSans-2e" x="147.412109"/>
     <use xlink:href="#DejaVuSans-30" x="179.199219"/>
    </g>
   </g>
   <g id="text_19">
    <g id="patch_67">
     <path d="M 600.664964 90.295622 
L 624.947776 90.295622 
Q 626.947776 90.295622 626.947776 88.295622 
L 626.947776 78.617497 
Q 626.947776 76.617497 624.947776 76.617497 
L 600.664964 76.617497 
Q 598.664964 76.617497 598.664964 78.617497 
L 598.664964 88.295622 
Q 598.664964 90.295622 600.664964 90.295622 
z
" style="fill: #ffffff; opacity: 0.6"/>
    </g>
    <!-- +3.1 -->
    <g transform="translate(600.664964 86.215935) scale(0.1 -0.1)">
     <use xlink:href="#DejaVuSans-2b"/>
     <use xlink:href="#DejaVuSans-33" x="83.789062"/>
     <use xlink:href="#DejaVuSans-2e" x="147.412109"/>
     <use xlink:href="#DejaVuSans-31" x="179.199219"/>
    </g>
   </g>
   <g id="text_20">
    <g id="patch_68">
     <path d="M 660.391059 90.295622 
L 684.673872 90.295622 
Q 686.673872 90.295622 686.673872 88.295622 
L 686.673872 78.617497 
Q 686.673872 76.617497 684.673872 76.617497 
L 660.391059 76.617497 
Q 658.391059 76.617497 658.391059 78.617497 
L 658.391059 88.295622 
Q 658.391059 90.295622 660.391059 90.295622 
z
" style="fill: #ffffff; opacity: 0.6"/>
    </g>
    <!-- +5.2 -->
    <g transform="translate(660.391059 86.215935) scale(0.1 -0.1)">
     <use xlink:href="#DejaVuSans-2b"/>
     <use xlink:href="#DejaVuSans-35" x="83.789062"/>
     <use xlink:href="#DejaVuSans-2e" x="147.412109"/>
     <use xlink:href="#DejaVuSans-32" x="179.199219"/>
    </g>
   </g>
   <g id="text_21">
    <!--    3.5°C scenario -->
    <g transform="translate(709.735063 86.215935) scale(0.1 -0.1)">
     <defs>
      <path id="DejaVuSans-b0" d="M 1600 4347 
Q 1350 4347 1178 4173 
Q 1006 4000 1006 3750 
Q 1006 3503 1178 3333 
Q 1350 3163 1600 3163 
Q 1850 3163 2022 3333 
Q 2194 3503 2194 3750 
Q 2194 3997 2020 4172 
Q 1847 4347 1600 4347 
z
M 1600 4750 
Q 1800 4750 1984 4673 
Q 2169 4597 2303 4453 
Q 2447 4313 2519 4134 
Q 2591 3956 2591 3750 
Q 2591 3338 2302 3052 
Q 2013 2766 1594 2766 
Q 1172 2766 890 3047 
Q 609 3328 609 3750 
Q 609 4169 896 4459 
Q 1184 4750 1600 4750 
z
" transform="scale(0.015625)"/>
      <path id="DejaVuSans-43" d="M 4122 4306 
L 4122 3641 
Q 3803 3938 3442 4084 
Q 3081 4231 2675 4231 
Q 1875 4231 1450 3742 
Q 1025 3253 1025 2328 
Q 1025 1406 1450 917 
Q 1875 428 2675 428 
Q 3081 428 3442 575 
Q 3803 722 4122 1019 
L 4122 359 
Q 3791 134 3420 21 
Q 3050 -91 2638 -91 
Q 1578 -91 968 557 
Q 359 1206 359 2328 
Q 359 3453 968 4101 
Q 1578 4750 2638 4750 
Q 3056 4750 3426 4639 
Q 3797 4528 4122 4306 
z
" transform="scale(0.015625)"/>
      <path id="DejaVuSans-65" d="M 3597 1894 
L 3597 1613 
L 953 1613 
Q 991 1019 1311 708 
Q 1631 397 2203 397 
Q 2534 397 2845 478 
Q 3156 559 3463 722 
L 3463 178 
Q 3153 47 2828 -22 
Q 2503 -91 2169 -91 
Q 1331 -91 842 396 
Q 353 884 353 1716 
Q 353 2575 817 3079 
Q 1281 3584 2069 3584 
Q 2775 3584 3186 3129 
Q 3597 2675 3597 1894 
z
M 3022 2063 
Q 3016 2534 2758 2815 
Q 2500 3097 2075 3097 
Q 1594 3097 1305 2825 
Q 1016 2553 972 2059 
L 3022 2063 
z
" transform="scale(0.015625)"/>
      <path id="DejaVuSans-6e" d="M 3513 2113 
L 3513 0 
L 2938 0 
L 2938 2094 
Q 2938 2591 2744 2837 
Q 2550 3084 2163 3084 
Q 1697 3084 1428 2787 
Q 1159 2491 1159 1978 
L 1159 0 
L 581 0 
L 581 3500 
L 1159 3500 
L 1159 2956 
Q 1366 3272 1645 3428 
Q 1925 3584 2291 3584 
Q 2894 3584 3203 3211 
Q 3513 2838 3513 2113 
z
" transform="scale(0.015625)"/>
      <path id="DejaVuSans-72" d="M 2631 2963 
Q 2534 3019 2420 3045 
Q 2306 3072 2169 3072 
Q 1681 3072 1420 2755 
Q 1159 2438 1159 1844 
L 1159 0 
L 581 0 
L 581 3500 
L 1159 3500 
L 1159 2956 
Q 1341 3275 1631 3429 
Q 1922 3584 2338 3584 
Q 2397 3584 2469 3576 
Q 2541 3569 2628 3553 
L 2631 2963 
z
" transform="scale(0.015625)"/>
     </defs>
     <use xlink:href="#DejaVuSans-20"/>
     <use xlink:href="#DejaVuSans-20" x="31.787109"/>
     <use xlink:href="#DejaVuSans-20" x="63.574219"/>
     <use xlink:href="#DejaVuSans-33" x="95.361328"/>
     <use xlink:href="#DejaVuSans-2e" x="158.984375"/>
     <use xlink:href="#DejaVuSans-35" x="190.771484"/>
     <use xlink:href="#DejaVuSans-b0" x="254.394531"/>
     <use xlink:href="#DejaVuSans-43" x="304.394531"/>
     <use xlink:href="#DejaVuSans-20" x="374.21875"/>
     <use xlink:href="#DejaVuSans-73" x="406.005859"/>
     <use xlink:href="#DejaVuSans-63" x="458.105469"/>
     <use xlink:href="#DejaVuSans-65" x="513.085938"/>
     <use xlink:href="#DejaVuSans-6e" x="574.609375"/>
     <use xlink:href="#DejaVuSans-61" x="637.988281"/>
     <use xlink:href="#DejaVuSans-72" x="699.267578"/>
     <use xlink:href="#DejaVuSans-69" x="740.380859"/>
     <use xlink:href="#DejaVuSans-6f" x="768.164062"/>
    </g>
   </g>
   <g id="text_22">
    <g id="patch_69">
     <path d="M 292.251466 133.415628 
L 316.534278 133.415628 
Q 318.534278 133.415628 318.534278 131.415628 
L 318.534278 121.737503 
Q 318.534278 119.737503 316.534278 119.737503 
L 292.251466 119.737503 
Q 290.251466 119.737503 290.251466 121.737503 
L 290.251466 131.415628 
Q 290.251466 133.415628 292.251466 133.415628 
z
" style="fill: #ffffff; opacity: 0.6"/>
    </g>
    <!-- +3.1 -->
    <g transform="translate(292.251466 129.33594) scale(0.1 -0.1)">
     <use xlink:href="#DejaVuSans-2b"/>
     <use xlink:href="#DejaVuSans-33" x="83.789062"/>
     <use xlink:href="#DejaVuSans-2e" x="147.412109"/>
     <use xlink:href="#DejaVuSans-31" x="179.199219"/>
    </g>
   </g>
   <g id="text_23">
    <g id="patch_70">
     <path d="M 367.799604 133.415628 
L 392.082416 133.415628 
Q 394.082416 133.415628 394.082416 131.415628 
L 394.082416 121.737503 
Q 394.082416 119.737503 392.082416 119.737503 
L 367.799604 119.737503 
Q 365.799604 119.737503 365.799604 121.737503 
L 365.799604 131.415628 
Q 365.799604 133.415628 367.799604 133.415628 
z
" style="fill: #ffffff; opacity: 0.6"/>
    </g>
    <!-- +7.4 -->
    <g transform="translate(367.799604 129.33594) scale(0.1 -0.1)">
     <defs>
      <path id="DejaVuSans-34" d="M 2419 4116 
L 825 1625 
L 2419 1625 
L 2419 4116 
z
M 2253 4666 
L 3047 4666 
L 3047 1625 
L 3713 1625 
L 3713 1100 
L 3047 1100 
L 3047 0 
L 2419 0 
L 2419 1100 
L 313 1100 
L 313 1709 
L 2253 4666 
z
" transform="scale(0.015625)"/>
     </defs>
     <use xlink:href="#DejaVuSans-2b"/>
     <use xlink:href="#DejaVuSans-37" x="83.789062"/>
     <use xlink:href="#DejaVuSans-2e" x="147.412109"/>
     <use xlink:href="#DejaVuSans-34" x="179.199219"/>
    </g>
   </g>
   <g id="text_24">
    <g id="patch_71">
     <path d="M 471.364897 133.415628 
L 495.64771 133.415628 
Q 497.64771 133.415628 497.64771 131.415628 
L 497.64771 121.737503 
Q 497.64771 119.737503 495.64771 119.737503 
L 471.364897 119.737503 
Q 469.364897 119.737503 469.364897 121.737503 
L 469.364897 131.415628 
Q 469.364897 133.415628 471.364897 133.415628 
z
" style="fill: #ffffff; opacity: 0.6"/>
    </g>
    <!-- +7.0 -->
    <g transform="translate(471.364897 129.33594) scale(0.1 -0.1)">
     <use xlink:href="#DejaVuSans-2b"/>
     <use xlink:href="#DejaVuSans-37" x="83.789062"/>
     <use xlink:href="#DejaVuSans-2e" x="147.412109"/>
     <use xlink:href="#DejaVuSans-30" x="179.199219"/>
    </g>
   </g>
   <g id="text_25">
    <g id="patch_72">
     <path d="M 540.406148 133.415628 
L 564.688961 133.415628 
Q 566.688961 133.415628 566.688961 131.415628 
L 566.688961 121.737503 
Q 566.688961 119.737503 564.688961 119.737503 
L 540.406148 119.737503 
Q 538.406148 119.737503 538.406148 121.737503 
L 538.406148 131.415628 
Q 538.406148 133.415628 540.406148 133.415628 
z
" style="fill: #ffffff; opacity: 0.6"/>
    </g>
    <!-- +2.6 -->
    <g transform="translate(540.406148 129.33594) scale(0.1 -0.1)">
     <use xlink:href="#DejaVuSans-2b"/>
     <use xlink:href="#DejaVuSans-32" x="83.789062"/>
     <use xlink:href="#DejaVuSans-2e" x="147.412109"/>
     <use xlink:href="#DejaVuSans-36" x="179.199219"/>
    </g>
   </g>
   <g id="text_26">
    <g id="patch_73">
     <path d="M 578.092448 133.415628 
L 602.37526 133.415628 
Q 604.37526 133.415628 604.37526 131.415628 
L 604.37526 121.737503 
Q 604.37526 119.737503 602.37526 119.737503 
L 578.092448 119.737503 
Q 576.092448 119.737503 576.092448 121.737503 
L 576.092448 131.415628 
Q 576.092448 133.415628 578.092448 133.415628 
z
" style="fill: #ffffff; opacity: 0.6"/>
    </g>
    <!-- +2.7 -->
    <g transform="translate(578.092448 129.33594) scale(0.1 -0.1)">
     <use xlink:href="#DejaVuSans-2b"/>
     <use xlink:href="#DejaVuSans-32" x="83.789062"/>
     <use xlink:href="#DejaVuSans-2e" x="147.412109"/>
     <use xlink:href="#DejaVuSans-37" x="179.199219"/>
    </g>
   </g>
   <g id="text_27">
    <g id="patch_74">
     <path d="M 627.173078 133.415628 
L 651.45589 133.415628 
Q 653.45589 133.415628 653.45589 131.415628 
L 653.45589 121.737503 
Q 653.45589 119.737503 651.45589 119.737503 
L 627.173078 119.737503 
Q 625.173078 119.737503 625.173078 121.737503 
L 625.173078 131.415628 
Q 625.173078 133.415628 627.173078 133.415628 
z
" style="fill: #ffffff; opacity: 0.6"/>
    </g>
    <!-- +4.2 -->
    <g transform="translate(627.173078 129.33594) scale(0.1 -0.1)">
     <use xlink:href="#DejaVuSans-2b"/>
     <use xlink:href="#DejaVuSans-34" x="83.789062"/>
     <use xlink:href="#DejaVuSans-2e" x="147.412109"/>
     <use xlink:href="#DejaVuSans-32" x="179.199219"/>
    </g>
   </g>
   <g id="text_28">
    <!--    2°C scenario -->
    <g transform="translate(669.328422 129.33594) scale(0.1 -0.1)">
     <use xlink:href="#DejaVuSans-20"/>
     <use xlink:href="#DejaVuSans-20" x="31.787109"/>
     <use xlink:href="#DejaVuSans-20" x="63.574219"/>
     <use xlink:href="#DejaVuSans-32" x="95.361328"/>
     <use xlink:href="#DejaVuSans-b0" x="158.984375"/>
     <use xlink:href="#DejaVuSans-43" x="208.984375"/>
     <use xlink:href="#DejaVuSans-20" x="278.808594"/>
     <use xlink:href="#DejaVuSans-73" x="310.595703"/>
     <use xlink:href="#DejaVuSans-63" x="362.695312"/>
     <use xlink:href="#DejaVuSans-65" x="417.675781"/>
     <use xlink:href="#DejaVuSans-6e" x="479.199219"/>
     <use xlink:href="#DejaVuSans-61" x="542.578125"/>
     <use xlink:href="#DejaVuSans-72" x="603.857422"/>
     <use xlink:href="#DejaVuSans-69" x="644.970703"/>
     <use xlink:href="#DejaVuSans-6f" x="672.753906"/>
    </g>
   </g>
   <g id="text_29">
    <g id="patch_75">
     <path d="M 292.251466 176.535625 
L 316.534278 176.535625 
Q 318.534278 176.535625 318.534278 174.535625 
L 318.534278 164.8575 
Q 318.534278 162.8575 316.534278 162.8575 
L 292.251466 162.8575 
Q 290.251466 162.8575 290.251466 164.8575 
L 290.251466 174.535625 
Q 290.251466 176.535625 292.251466 176.535625 
z
" style="fill: #ffffff; opacity: 0.6"/>
    </g>
    <!-- +3.1 -->
    <g transform="translate(292.251466 172.455938) scale(0.1 -0.1)">
     <use xlink:href="#DejaVuSans-2b"/>
     <use xlink:href="#DejaVuSans-33" x="83.789062"/>
     <use xlink:href="#DejaVuSans-2e" x="147.412109"/>
     <use xlink:href="#DejaVuSans-31" x="179.199219"/>
    </g>
   </g>
   <g id="text_30">
    <g id="patch_76">
     <path d="M 364.731349 176.535625 
L 389.014161 176.535625 
Q 391.014161 176.535625 391.014161 174.535625 
L 391.014161 164.8575 
Q 391.014161 162.8575 389.014161 162.8575 
L 364.731349 162.8575 
Q 362.731349 162.8575 362.731349 164.8575 
L 362.731349 174.535625 
Q 362.731349 176.535625 364.731349 176.535625 
z
" style="fill: #ffffff; opacity: 0.6"/>
    </g>
    <!-- +7.0 -->
    <g transform="translate(364.731349 172.455938) scale(0.1 -0.1)">
     <use xlink:href="#DejaVuSans-2b"/>
     <use xlink:href="#DejaVuSans-37" x="83.789062"/>
     <use xlink:href="#DejaVuSans-2e" x="147.412109"/>
     <use xlink:href="#DejaVuSans-30" x="179.199219"/>
    </g>
   </g>
   <g id="text_31">
    <g id="patch_77">
     <path d="M 451.921481 176.535625 
L 476.204294 176.535625 
Q 478.204294 176.535625 478.204294 174.535625 
L 478.204294 164.8575 
Q 478.204294 162.8575 476.204294 162.8575 
L 451.921481 162.8575 
Q 449.921481 162.8575 449.921481 164.8575 
L 449.921481 174.535625 
Q 449.921481 176.535625 451.921481 176.535625 
z
" style="fill: #ffffff; opacity: 0.6"/>
    </g>
    <!-- +5.2 -->
    <g transform="translate(451.921481 172.455938) scale(0.1 -0.1)">
     <use xlink:href="#DejaVuSans-2b"/>
     <use xlink:href="#DejaVuSans-35" x="83.789062"/>
     <use xlink:href="#DejaVuSans-2e" x="147.412109"/>
     <use xlink:href="#DejaVuSans-32" x="179.199219"/>
    </g>
   </g>
   <g id="text_32">
    <g id="patch_78">
     <path d="M 501.446824 176.535625 
L 525.729637 176.535625 
Q 527.729637 176.535625 527.729637 174.535625 
L 527.729637 164.8575 
Q 527.729637 162.8575 525.729637 162.8575 
L 501.446824 162.8575 
Q 499.446824 162.8575 499.446824 164.8575 
L 499.446824 174.535625 
Q 499.446824 176.535625 501.446824 176.535625 
z
" style="fill: #ffffff; opacity: 0.6"/>
    </g>
    <!-- +1.7 -->
    <g transform="translate(501.446824 172.455938) scale(0.1 -0.1)">
     <use xlink:href="#DejaVuSans-2b"/>
     <use xlink:href="#DejaVuSans-31" x="83.789062"/>
     <use xlink:href="#DejaVuSans-2e" x="147.412109"/>
     <use xlink:href="#DejaVuSans-37" x="179.199219"/>
    </g>
   </g>
   <g id="text_33">
    <g id="patch_79">
     <path d="M 526.929188 176.535625 
L 551.212001 176.535625 
Q 553.212001 176.535625 553.212001 174.535625 
L 553.212001 164.8575 
Q 553.212001 162.8575 551.212001 162.8575 
L 526.929188 162.8575 
Q 524.929188 162.8575 524.929188 164.8575 
L 524.929188 174.535625 
Q 524.929188 176.535625 526.929188 176.535625 
z
" style="fill: #ffffff; opacity: 0.6"/>
    </g>
    <!-- +1.8 -->
    <g transform="translate(526.929188 172.455938) scale(0.1 -0.1)">
     <use xlink:href="#DejaVuSans-2b"/>
     <use xlink:href="#DejaVuSans-31" x="83.789062"/>
     <use xlink:href="#DejaVuSans-2e" x="147.412109"/>
     <use xlink:href="#DejaVuSans-38" x="179.199219"/>
    </g>
   </g>
   <g id="text_34">
    <g id="patch_80">
     <path d="M 561.387986 176.535625 
L 585.670799 176.535625 
Q 587.670799 176.535625 587.670799 174.535625 
L 587.670799 164.8575 
Q 587.670799 162.8575 585.670799 162.8575 
L 561.387986 162.8575 
Q 559.387986 162.8575 559.387986 164.8575 
L 559.387986 174.535625 
Q 559.387986 176.535625 561.387986 176.535625 
z
" style="fill: #ffffff; opacity: 0.6"/>
    </g>
    <!-- +3.0 -->
    <g transform="translate(561.387986 172.455938) scale(0.1 -0.1)">
     <use xlink:href="#DejaVuSans-2b"/>
     <use xlink:href="#DejaVuSans-33" x="83.789062"/>
     <use xlink:href="#DejaVuSans-2e" x="147.412109"/>
     <use xlink:href="#DejaVuSans-30" x="179.199219"/>
    </g>
   </g>
   <g id="text_35">
    <!--    1.5°C scenario -->
    <g transform="translate(594.916433 172.455938) scale(0.1 -0.1)">
     <use xlink:href="#DejaVuSans-20"/>
     <use xlink:href="#DejaVuSans-20" x="31.787109"/>
     <use xlink:href="#DejaVuSans-20" x="63.574219"/>
     <use xlink:href="#DejaVuSans-31" x="95.361328"/>
     <use xlink:href="#DejaVuSans-2e" x="158.984375"/>
     <use xlink:href="#DejaVuSans-35" x="190.771484"/>
     <use xlink:href="#DejaVuSans-b0" x="254.394531"/>
     <use xlink:href="#DejaVuSans-43" x="304.394531"/>
     <use xlink:href="#DejaVuSans-20" x="374.21875"/>
     <use xlink:href="#DejaVuSans-73" x="406.005859"/>
     <use xlink:href="#DejaVuSans-63" x="458.105469"/>
     <use xlink:href="#DejaVuSans-65" x="513.085938"/>
     <use xlink:href="#DejaVuSans-6e" x="574.609375"/>
     <use xlink:href="#DejaVuSans-61" x="637.988281"/>
     <use xlink:href="#DejaVuSans-72" x="699.267578"/>
     <use xlink:href="#DejaVuSans-69" x="740.380859"/>
     <use xlink:href="#DejaVuSans-6f" x="768.164062"/>
    </g>
   </g>
   <g id="text_36">
    <!-- → 2025 -->
    <g transform="translate(281.596658 14.798438) scale(0.1 -0.1)">
     <defs>
      <path id="DejaVuSans-2192" d="M 5050 2147 
L 5050 1866 
L 3822 638 
L 3447 1013 
L 4175 1741 
L 366 1741 
L 366 2272 
L 4175 2272 
L 3447 3000 
L 3822 3375 
L 5050 2147 
z
" transform="scale(0.015625)"/>
     </defs>
     <use xlink:href="#DejaVuSans-2192"/>
     <use xlink:href="#DejaVuSans-20" x="83.789062"/>
     <use xlink:href="#DejaVuSans-32" x="115.576172"/>
     <use xlink:href="#DejaVuSans-30" x="179.199219"/>
     <use xlink:href="#DejaVuSans-32" x="242.822266"/>
     <use xlink:href="#DejaVuSans-35" x="306.445312"/>
    </g>
   </g>
   <g id="text_37">
    <!-- → 2030 -->
    <g transform="translate(360.012365 14.798438) scale(0.1 -0.1)">
     <use xlink:href="#DejaVuSans-2192"/>
     <use xlink:href="#DejaVuSans-20" x="83.789062"/>
     <use xlink:href="#DejaVuSans-32" x="115.576172"/>
     <use xlink:href="#DejaVuSans-30" x="179.199219"/>
     <use xlink:href="#DejaVuSans-33" x="242.822266"/>
     <use xlink:href="#DejaVuSans-30" x="306.445312"/>
    </g>
   </g>
   <g id="text_38">
    <!-- → 2035 -->
    <g transform="translate(472.034804 14.798438) scale(0.1 -0.1)">
     <use xlink:href="#DejaVuSans-2192"/>
     <use xlink:href="#DejaVuSans-20" x="83.789062"/>
     <use xlink:href="#DejaVuSans-32" x="115.576172"/>
     <use xlink:href="#DejaVuSans-30" x="179.199219"/>
     <use xlink:href="#DejaVuSans-33" x="242.822266"/>
     <use xlink:href="#DejaVuSans-35" x="306.445312"/>
    </g>
   </g>
   <g id="text_39">
    <!-- → 2037 -->
    <g transform="translate(550.450511 14.798438) scale(0.1 -0.1)">
     <use xlink:href="#DejaVuSans-2192"/>
     <use xlink:href="#DejaVuSans-20" x="83.789062"/>
     <use xlink:href="#DejaVuSans-32" x="115.576172"/>
     <use xlink:href="#DejaVuSans-30" x="179.199219"/>
     <use xlink:href="#DejaVuSans-33" x="242.822266"/>
     <use xlink:href="#DejaVuSans-37" x="306.445312"/>
    </g>
   </g>
   <g id="text_40">
    <!-- → 2040 -->
    <g transform="translate(596.582714 14.798438) scale(0.1 -0.1)">
     <use xlink:href="#DejaVuSans-2192"/>
     <use xlink:href="#DejaVuSans-20" x="83.789062"/>
     <use xlink:href="#DejaVuSans-32" x="115.576172"/>
     <use xlink:href="#DejaVuSans-30" x="179.199219"/>
     <use xlink:href="#DejaVuSans-34" x="242.822266"/>
     <use xlink:href="#DejaVuSans-30" x="306.445312"/>
    </g>
   </g>
   <g id="text_41">
    <!-- → 2045 -->
    <g transform="translate(659.85662 14.798438) scale(0.1 -0.1)">
     <use xlink:href="#DejaVuSans-2192"/>
     <use xlink:href="#DejaVuSans-20" x="83.789062"/>
     <use xlink:href="#DejaVuSans-32" x="115.576172"/>
     <use xlink:href="#DejaVuSans-30" x="179.199219"/>
     <use xlink:href="#DejaVuSans-34" x="242.822266"/>
     <use xlink:href="#DejaVuSans-35" x="306.445312"/>
    </g>
   </g>
  </g>
  <g id="axes_3">
   <g id="patch_81">
    <path d="M 10.38125 202.036563 
L 791.58125 202.036563 
L 791.58125 7.996563 
L 10.38125 7.996563 
L 10.38125 202.036563 
z
" style="fill: none"/>
   </g>
   <g id="matplotlib.axis_5">
    <g id="text_42">
     <!-- GWI [Mt CO2-eq] -->
     <g transform="translate(358.671094 234.635) scale(0.1 -0.1)">
      <defs>
       <path id="DejaVuSans-47" d="M 3809 666 
L 3809 1919 
L 2778 1919 
L 2778 2438 
L 4434 2438 
L 4434 434 
Q 4069 175 3628 42 
Q 3188 -91 2688 -91 
Q 1594 -91 976 548 
Q 359 1188 359 2328 
Q 359 3472 976 4111 
Q 1594 4750 2688 4750 
Q 3144 4750 3555 4637 
Q 3966 4525 4313 4306 
L 4313 3634 
Q 3963 3931 3569 4081 
Q 3175 4231 2741 4231 
Q 1884 4231 1454 3753 
Q 1025 3275 1025 2328 
Q 1025 1384 1454 906 
Q 1884 428 2741 428 
Q 3075 428 3337 486 
Q 3600 544 3809 666 
z
" transform="scale(0.015625)"/>
       <path id="DejaVuSans-57" d="M 213 4666 
L 850 4666 
L 1831 722 
L 2809 4666 
L 3519 4666 
L 4500 722 
L 5478 4666 
L 6119 4666 
L 4947 0 
L 4153 0 
L 3169 4050 
L 2175 0 
L 1381 0 
L 213 4666 
z
" transform="scale(0.015625)"/>
       <path id="DejaVuSans-49" d="M 628 4666 
L 1259 4666 
L 1259 0 
L 628 0 
L 628 4666 
z
" transform="scale(0.015625)"/>
       <path id="DejaVuSans-5b" d="M 550 4863 
L 1875 4863 
L 1875 4416 
L 1125 4416 
L 1125 -397 
L 1875 -397 
L 1875 -844 
L 550 -844 
L 550 4863 
z
" transform="scale(0.015625)"/>
       <path id="DejaVuSans-4d" d="M 628 4666 
L 1569 4666 
L 2759 1491 
L 3956 4666 
L 4897 4666 
L 4897 0 
L 4281 0 
L 4281 4097 
L 3078 897 
L 2444 897 
L 1241 4097 
L 1241 0 
L 628 0 
L 628 4666 
z
" transform="scale(0.015625)"/>
       <path id="DejaVuSans-4f" d="M 2522 4238 
Q 1834 4238 1429 3725 
Q 1025 3213 1025 2328 
Q 1025 1447 1429 934 
Q 1834 422 2522 422 
Q 3209 422 3611 934 
Q 4013 1447 4013 2328 
Q 4013 3213 3611 3725 
Q 3209 4238 2522 4238 
z
M 2522 4750 
Q 3503 4750 4090 4092 
Q 4678 3434 4678 2328 
Q 4678 1225 4090 567 
Q 3503 -91 2522 -91 
Q 1538 -91 948 565 
Q 359 1222 359 2328 
Q 359 3434 948 4092 
Q 1538 4750 2522 4750 
z
" transform="scale(0.015625)"/>
       <path id="DejaVuSans-2d" d="M 313 2009 
L 1997 2009 
L 1997 1497 
L 313 1497 
L 313 2009 
z
" transform="scale(0.015625)"/>
       <path id="DejaVuSans-5d" d="M 1947 4863 
L 1947 -844 
L 622 -844 
L 622 -397 
L 1369 -397 
L 1369 4416 
L 622 4416 
L 622 4863 
L 1947 4863 
z
" transform="scale(0.015625)"/>
      </defs>
      <use xlink:href="#DejaVuSans-47"/>
      <use xlink:href="#DejaVuSans-57" x="77.490234"/>
      <use xlink:href="#DejaVuSans-49" x="176.367188"/>
      <use xlink:href="#DejaVuSans-20" x="205.859375"/>
      <use xlink:href="#DejaVuSans-5b" x="237.646484"/>
      <use xlink:href="#DejaVuSans-4d" x="276.660156"/>
      <use xlink:href="#DejaVuSans-74" x="362.939453"/>
      <use xlink:href="#DejaVuSans-20" x="402.148438"/>
      <use xlink:href="#DejaVuSans-43" x="433.935547"/>
      <use xlink:href="#DejaVuSans-4f" x="503.759766"/>
      <use xlink:href="#DejaVuSans-32" x="582.470703"/>
      <use xlink:href="#DejaVuSans-2d" x="646.09375"/>
      <use xlink:href="#DejaVuSans-65" x="682.177734"/>
      <use xlink:href="#DejaVuSans-71" x="743.701172"/>
      <use xlink:href="#DejaVuSans-5d" x="807.177734"/>
     </g>
    </g>
   </g>
   <g id="matplotlib.axis_6"/>
  </g>
 </g>
 <defs>
  <clipPath id="p4ff2f2f0fb">
   <rect x="10.38125" y="7.996563" width="85.846154" height="194.04"/>
  </clipPath>
  <clipPath id="pdeac368868">
   <rect x="133.427404" y="7.996563" width="658.153846" height="194.04"/>
  </clipPath>
 </defs>
</svg>
