<?xml version="1.0" encoding="utf-8" standalone="no"?>
<!DOCTYPE svg PUBLIC "-//W3C//DTD SVG 1.1//EN"
  "http://www.w3.org/Graphics/SVG/1.1/DTD/svg11.dtd">
<svg xmlns:xlink="http://www.w3.org/1999/xlink" width="713.58625pt" height="473.978437pt" viewBox="0 0 713.58625 473.978437" xmlns="http://www.w3.org/2000/svg" version="1.1">
 <metadata>
  <rdf:RDF xmlns:dc="http://purl.org/dc/elements/1.1/" xmlns:cc="http://creativecommons.org/ns#" xmlns:rdf="http://www.w3.org/1999/02/22-rdf-syntax-ns#">
   <cc:Work>
    <dc:type rdf:resource="http://purl.org/dc/dcmitype/StillImage"/>
    <dc:date>2026-02-02T11:25:26.257168</dc:date>
    <dc:format>image/svg+xml</dc:format>
    <dc:creator>
     <cc:Agent>
      <dc:title>Matplotlib v3.10.5, https://matplotlib.org/</dc:title>
     </cc:Agent>
    </dc:creator>
   </cc:Work>
  </rdf:RDF>
 </metadata>
 <defs>
  <style type="text/css">*{stroke-linejoin: round; stroke-linecap: butt}</style>
 </defs>
 <g id="figure_1">
  <g id="patch_1">
   <path d="M -0 473.978437 
L 713.58625 473.978437 
L 713.58625 -0 
L -0 -0 
z
" style="fill: #ffffff"/>
  </g>
  <g id="axes_1">
   <g id="patch_2">
    <path d="M 36.17625 385.398438 
L 706.38625 385.398438 
L 706.38625 17.798437 
L 36.17625 17.798437 
z
" style="fill: #ffffff"/>
   </g>
   <g id="FillBetweenPolyCollection_1">
    <defs>
     <path id="m6d42f0527b" d="M 522.379717 -88.583442 
L 522.379717 -88.58 
L 523.151287 -88.58 
L 523.922857 -88.58 
L 524.694427 -88.58 
L 525.465997 -88.58 
L 526.237567 -88.58 
L 527.009138 -88.58 
L 527.780708 -88.58 
L 528.552278 -88.58 
L 529.323848 -88.58 
L 530.095418 -88.58 
L 530.866988 -88.58 
L 531.638558 -88.58 
L 532.410128 -88.58 
L 533.181698 -88.58 
L 533.953268 -88.58 
L 534.724838 -88.58 
L 535.496408 -88.58 
L 536.267978 -88.58 
L 537.039548 -88.58 
L 537.811118 -88.58 
L 538.582688 -88.58 
L 539.354258 -88.58 
L 540.125829 -88.58 
L 540.897399 -88.58 
L 541.668969 -88.58 
L 542.440539 -88.58 
L 543.212109 -88.58 
L 543.983679 -88.58 
L 544.755249 -88.58 
L 545.526819 -88.58 
L 546.298389 -88.58 
L 547.069959 -88.58 
L 547.841529 -88.58 
L 548.613099 -88.58 
L 549.384669 -88.58 
L 550.156239 -88.58 
L 550.927809 -88.58 
L 551.699379 -88.58 
L 552.470949 -88.58 
L 553.24252 -88.58 
L 554.01409 -88.58 
L 554.78566 -88.58 
L 555.55723 -88.58 
L 556.3288 -88.58 
L 557.10037 -88.58 
L 557.87194 -88.58 
L 558.64351 -88.58 
L 559.41508 -88.58 
L 560.18665 -88.58 
L 560.95822 -88.58 
L 561.72979 -88.58 
L 562.50136 -88.58 
L 563.27293 -88.58 
L 564.0445 -88.58 
L 564.81607 -88.58 
L 565.587641 -88.58 
L 566.359211 -88.58 
L 567.130781 -88.58 
L 567.902351 -88.58 
L 568.673921 -88.58 
L 569.445491 -88.58 
L 570.217061 -88.58 
L 570.988631 -88.58 
L 571.760201 -88.58 
L 572.531771 -88.58 
L 573.303341 -88.58 
L 574.074911 -88.58 
L 574.846481 -88.58 
L 575.618051 -88.58 
L 576.389621 -88.58 
L 577.161191 -88.58 
L 577.932761 -88.58 
L 578.704332 -88.58 
L 579.475902 -88.58 
L 580.247472 -88.58 
L 581.019042 -88.58 
L 581.790612 -88.58 
L 582.562182 -88.58 
L 583.333752 -88.58 
L 584.105322 -88.58 
L 584.876892 -88.58 
L 585.648462 -88.58 
L 586.420032 -88.58 
L 587.191602 -88.58 
L 587.963172 -88.58 
L 588.734742 -88.58 
L 589.506312 -88.58 
L 590.277882 -88.58 
L 591.049452 -88.58 
L 591.821023 -88.58 
L 592.592593 -88.58 
L 593.364163 -88.58 
L 594.135733 -88.58 
L 594.907303 -88.58 
L 595.678873 -88.58 
L 596.450443 -88.58 
L 597.222013 -88.58 
L 597.993583 -88.58 
L 598.765153 -88.58 
L 599.536723 -88.58 
L 600.308293 -88.58 
L 601.079863 -88.58 
L 601.851433 -88.58 
L 602.623003 -88.58 
L 603.394573 -88.58 
L 604.166144 -88.58 
L 604.937714 -88.58 
L 605.709284 -88.58 
L 606.480854 -88.58 
L 607.252424 -88.58 
L 608.023994 -88.58 
L 608.795564 -88.58 
L 609.567134 -88.58 
L 610.338704 -88.58 
L 611.110274 -88.58 
L 611.881844 -88.58 
L 612.653414 -88.58 
L 613.424984 -88.58 
L 614.196554 -88.58 
L 614.968124 -88.58 
L 615.739694 -88.58 
L 616.511264 -88.58 
L 617.282835 -88.58 
L 618.054405 -88.58 
L 618.825975 -88.58 
L 619.597545 -88.58 
L 620.369115 -88.58 
L 621.140685 -88.58 
L 621.912255 -88.58 
L 622.683825 -88.58 
L 623.455395 -88.58 
L 624.226965 -88.58 
L 624.998535 -88.58 
L 625.770105 -88.58 
L 626.541675 -88.58 
L 627.313245 -88.58 
L 628.084815 -88.58 
L 628.856385 -88.58 
L 629.627955 -88.58 
L 630.399526 -88.58 
L 631.171096 -88.58 
L 631.942666 -88.58 
L 632.714236 -88.58 
L 633.485806 -88.58 
L 634.257376 -88.58 
L 635.028946 -88.58 
L 635.800516 -88.58 
L 636.572086 -88.58 
L 637.343656 -88.58 
L 638.115226 -88.58 
L 638.886796 -88.58 
L 639.658366 -88.58 
L 640.429936 -88.58 
L 641.201506 -88.58 
L 641.973076 -88.58 
L 642.744647 -88.58 
L 643.516217 -88.58 
L 644.287787 -88.58 
L 645.059357 -88.58 
L 645.830927 -88.58 
L 646.602497 -88.58 
L 647.374067 -88.58 
L 648.145637 -88.58 
L 648.917207 -88.58 
L 649.688777 -88.58 
L 650.460347 -88.58 
L 651.231917 -88.58 
L 652.003487 -88.58 
L 652.775057 -88.58 
L 653.546627 -88.58 
L 654.318197 -88.58 
L 655.089767 -88.58 
L 655.861338 -88.58 
L 656.632908 -88.58 
L 657.404478 -88.58 
L 658.176048 -88.58 
L 658.947618 -88.58 
L 659.719188 -88.58 
L 660.490758 -88.58 
L 661.262328 -88.58 
L 662.033898 -88.58 
L 662.805468 -88.58 
L 663.577038 -88.58 
L 664.348608 -88.58 
L 665.120178 -88.58 
L 665.891748 -88.58 
L 666.663318 -88.58 
L 667.434888 -88.58 
L 668.206458 -88.58 
L 668.978029 -88.58 
L 669.749599 -88.58 
L 670.521169 -88.58 
L 671.292739 -88.58 
L 672.064309 -88.58 
L 672.835879 -88.58 
L 673.607449 -88.58 
L 674.379019 -88.58 
L 675.150589 -88.58 
L 675.922159 -88.58 
L 675.922159 -88.583461 
L 675.922159 -88.583461 
L 675.150589 -88.587051 
L 674.379019 -88.593536 
L 673.607449 -88.60449 
L 672.835879 -88.6218 
L 672.064309 -88.647372 
L 671.292739 -88.682708 
L 670.521169 -88.728427 
L 669.749599 -88.783959 
L 668.978029 -88.847604 
L 668.206458 -88.917024 
L 667.434888 -88.990008 
L 666.663318 -89.065123 
L 665.891748 -89.14182 
L 665.120178 -89.219781 
L 664.348608 -89.297736 
L 663.577038 -89.372346 
L 662.805468 -89.437895 
L 662.033898 -89.487214 
L 661.262328 -89.513715 
L 660.490758 -89.513829 
L 659.719188 -89.488881 
L 658.947618 -89.445652 
L 658.176048 -89.395322 
L 657.404478 -89.351168 
L 656.632908 -89.325754 
L 655.861338 -89.328569 
L 655.089767 -89.364823 
L 654.318197 -89.435798 
L 653.546627 -89.540628 
L 652.775057 -89.678974 
L 652.003487 -89.853691 
L 651.231917 -90.072417 
L 650.460347 -90.347171 
L 649.688777 -90.691608 
L 648.917207 -91.116495 
L 648.145637 -91.625074 
L 647.374067 -92.210516 
L 646.602497 -92.857323 
L 645.830927 -93.546973 
L 645.059357 -94.266047 
L 644.287787 -95.013429 
L 643.516217 -95.803192 
L 642.744647 -96.661578 
L 641.973076 -97.619399 
L 641.201506 -98.703527 
L 640.429936 -99.931554 
L 639.658366 -101.311782 
L 638.886796 -102.847584 
L 638.115226 -104.542745 
L 637.343656 -106.404149 
L 636.572086 -108.440213 
L 635.800516 -110.656482 
L 635.028946 -113.051729 
L 634.257376 -115.617528 
L 633.485806 -118.341804 
L 632.714236 -121.213929 
L 631.942666 -124.227418 
L 631.171096 -127.37732 
L 630.399526 -130.652578 
L 629.627955 -134.027298 
L 628.856385 -137.45705 
L 628.084815 -140.885489 
L 627.313245 -144.262748 
L 626.541675 -147.571463 
L 625.770105 -150.851475 
L 624.998535 -154.212443 
L 624.226965 -157.826193 
L 623.455395 -161.897002 
L 622.683825 -166.616066 
L 621.912255 -172.113 
L 621.140685 -178.419714 
L 620.369115 -185.459036 
L 619.597545 -193.062762 
L 618.825975 -201.014047 
L 618.054405 -209.100889 
L 617.282835 -217.164026 
L 616.511264 -225.125185 
L 615.739694 -232.98887 
L 614.968124 -240.819715 
L 614.196554 -248.704476 
L 613.424984 -256.711142 
L 612.653414 -264.8572 
L 611.881844 -273.095725 
L 611.110274 -281.322655 
L 610.338704 -289.402421 
L 609.567134 -297.203314 
L 608.795564 -304.630532 
L 608.023994 -311.64552 
L 607.252424 -318.265225 
L 606.480854 -324.542263 
L 605.709284 -330.533642 
L 604.937714 -336.268917 
L 604.166144 -341.727935 
L 603.394573 -346.834669 
L 602.623003 -351.468826 
L 601.851433 -355.492001 
L 601.079863 -358.781088 
L 600.308293 -361.259104 
L 599.536723 -362.913998 
L 598.765153 -363.799863 
L 597.993583 -364.021516 
L 597.222013 -363.709717 
L 596.450443 -362.997172 
L 595.678873 -362.002999 
L 594.907303 -360.826843 
L 594.135733 -359.547206 
L 593.364163 -358.216146 
L 592.592593 -356.846154 
L 591.821023 -355.392703 
L 591.049452 -353.742635 
L 590.277882 -351.719428 
L 589.506312 -349.110255 
L 588.734742 -345.709797 
L 587.963172 -341.367766 
L 587.191602 -336.025324 
L 586.420032 -329.730537 
L 585.648462 -322.631029 
L 584.876892 -314.948792 
L 584.105322 -306.945154 
L 583.333752 -298.883609 
L 582.562182 -290.996625 
L 581.790612 -283.460997 
L 581.019042 -276.384604 
L 580.247472 -269.804859 
L 579.475902 -263.695735 
L 578.704332 -257.977826 
L 577.932761 -252.526514 
L 577.161191 -247.177482 
L 576.389621 -241.734431 
L 575.618051 -235.98678 
L 574.846481 -229.742233 
L 574.074911 -222.870708 
L 573.303341 -215.346673 
L 572.531771 -207.272376 
L 571.760201 -198.868691 
L 570.988631 -190.432107 
L 570.217061 -182.270146 
L 569.445491 -174.636342 
L 568.673921 -167.68568 
L 567.902351 -161.462528 
L 567.130781 -155.920268 
L 566.359211 -150.960745 
L 565.587641 -146.476688 
L 564.81607 -142.382347 
L 564.0445 -138.624981 
L 563.27293 -135.178587 
L 562.50136 -132.027819 
L 561.72979 -129.151911 
L 560.95822 -126.51568 
L 560.18665 -124.069424 
L 559.41508 -121.754892 
L 558.64351 -119.512854 
L 557.87194 -117.2893 
L 557.10037 -115.040186 
L 556.3288 -112.736301 
L 555.55723 -110.369177 
L 554.78566 -107.956502 
L 554.01409 -105.543673 
L 553.24252 -103.19842 
L 552.470949 -100.998221 
L 551.699379 -99.013742 
L 550.927809 -97.293811 
L 550.156239 -95.856971 
L 549.384669 -94.691891 
L 548.613099 -93.7653 
L 547.841529 -93.033442 
L 547.069959 -92.45253 
L 546.298389 -91.985116 
L 545.526819 -91.601783 
L 544.755249 -91.27964 
L 543.983679 -91.000005 
L 543.212109 -90.747096 
L 542.440539 -90.508282 
L 541.668969 -90.27525 
L 540.897399 -90.044988 
L 540.125829 -89.819741 
L 539.354258 -89.605791 
L 538.582688 -89.411465 
L 537.811118 -89.244942 
L 537.039548 -89.112356 
L 536.267978 -89.016423 
L 535.496408 -88.955717 
L 534.724838 -88.92469 
L 533.953268 -88.914487 
L 533.181698 -88.914508 
L 532.410128 -88.914448 
L 531.638558 -88.906309 
L 530.866988 -88.885797 
L 530.095418 -88.852716 
L 529.323848 -88.810258 
L 528.552278 -88.763541 
L 527.780708 -88.717915 
L 527.009138 -88.677612 
L 526.237567 -88.645045 
L 525.465997 -88.620799 
L 524.694427 -88.604085 
L 523.922857 -88.593381 
L 523.151287 -88.586996 
L 522.379717 -88.583442 
z
" style="stroke: #00549f"/>
    </defs>
    <g clip-path="url(#p1ed0d176e0)">
     <use xlink:href="#m6d42f0527b" x="0" y="473.978437" style="fill: #00549f; fill-opacity: 0.4; stroke: #00549f"/>
    </g>
   </g>
   <g id="FillBetweenPolyCollection_2">
    <defs>
     <path id="mbc7f227392" d="M 251.501118 -88.586595 
L 251.501118 -88.58 
L 252.184144 -88.58 
L 252.86717 -88.58 
L 253.550196 -88.58 
L 254.233221 -88.58 
L 254.916247 -88.58 
L 255.599273 -88.58 
L 256.282299 -88.58 
L 256.965324 -88.58 
L 257.64835 -88.58 
L 258.331376 -88.58 
L 259.014402 -88.58 
L 259.697427 -88.58 
L 260.380453 -88.58 
L 261.063479 -88.58 
L 261.746505 -88.58 
L 262.42953 -88.58 
L 263.112556 -88.58 
L 263.795582 -88.58 
L 264.478608 -88.58 
L 265.161633 -88.58 
L 265.844659 -88.58 
L 266.527685 -88.58 
L 267.210711 -88.58 
L 267.893736 -88.58 
L 268.576762 -88.58 
L 269.259788 -88.58 
L 269.942814 -88.58 
L 270.625839 -88.58 
L 271.308865 -88.58 
L 271.991891 -88.58 
L 272.674917 -88.58 
L 273.357942 -88.58 
L 274.040968 -88.58 
L 274.723994 -88.58 
L 275.40702 -88.58 
L 276.090045 -88.58 
L 276.773071 -88.58 
L 277.456097 -88.58 
L 278.139123 -88.58 
L 278.822148 -88.58 
L 279.505174 -88.58 
L 280.1882 -88.58 
L 280.871226 -88.58 
L 281.554251 -88.58 
L 282.237277 -88.58 
L 282.920303 -88.58 
L 283.603329 -88.58 
L 284.286354 -88.58 
L 284.96938 -88.58 
L 285.652406 -88.58 
L 286.335432 -88.58 
L 287.018457 -88.58 
L 287.701483 -88.58 
L 288.384509 -88.58 
L 289.067535 -88.58 
L 289.75056 -88.58 
L 290.433586 -88.58 
L 291.116612 -88.58 
L 291.799638 -88.58 
L 292.482663 -88.58 
L 293.165689 -88.58 
L 293.848715 -88.58 
L 294.53174 -88.58 
L 295.214766 -88.58 
L 295.897792 -88.58 
L 296.580818 -88.58 
L 297.263843 -88.58 
L 297.946869 -88.58 
L 298.629895 -88.58 
L 299.312921 -88.58 
L 299.995946 -88.58 
L 300.678972 -88.58 
L 301.361998 -88.58 
L 302.045024 -88.58 
L 302.728049 -88.58 
L 303.411075 -88.58 
L 304.094101 -88.58 
L 304.777127 -88.58 
L 305.460152 -88.58 
L 306.143178 -88.58 
L 306.826204 -88.58 
L 307.50923 -88.58 
L 308.192255 -88.58 
L 308.875281 -88.58 
L 309.558307 -88.58 
L 310.241333 -88.58 
L 310.924358 -88.58 
L 311.607384 -88.58 
L 312.29041 -88.58 
L 312.973436 -88.58 
L 313.656461 -88.58 
L 314.339487 -88.58 
L 315.022513 -88.58 
L 315.705539 -88.58 
L 316.388564 -88.58 
L 317.07159 -88.58 
L 317.754616 -88.58 
L 318.437642 -88.58 
L 319.120667 -88.58 
L 319.803693 -88.58 
L 320.486719 -88.58 
L 321.169745 -88.58 
L 321.85277 -88.58 
L 322.535796 -88.58 
L 323.218822 -88.58 
L 323.901848 -88.58 
L 324.584873 -88.58 
L 325.267899 -88.58 
L 325.950925 -88.58 
L 326.633951 -88.58 
L 327.316976 -88.58 
L 328.000002 -88.58 
L 328.683028 -88.58 
L 329.366054 -88.58 
L 330.049079 -88.58 
L 330.732105 -88.58 
L 331.415131 -88.58 
L 332.098157 -88.58 
L 332.781182 -88.58 
L 333.464208 -88.58 
L 334.147234 -88.58 
L 334.83026 -88.58 
L 335.513285 -88.58 
L 336.196311 -88.58 
L 336.879337 -88.58 
L 337.562363 -88.58 
L 338.245388 -88.58 
L 338.928414 -88.58 
L 339.61144 -88.58 
L 340.294466 -88.58 
L 340.977491 -88.58 
L 341.660517 -88.58 
L 342.343543 -88.58 
L 343.026569 -88.58 
L 343.709594 -88.58 
L 344.39262 -88.58 
L 345.075646 -88.58 
L 345.758671 -88.58 
L 346.441697 -88.58 
L 347.124723 -88.58 
L 347.807749 -88.58 
L 348.490774 -88.58 
L 349.1738 -88.58 
L 349.856826 -88.58 
L 350.539852 -88.58 
L 351.222877 -88.58 
L 351.905903 -88.58 
L 352.588929 -88.58 
L 353.271955 -88.58 
L 353.95498 -88.58 
L 354.638006 -88.58 
L 355.321032 -88.58 
L 356.004058 -88.58 
L 356.687083 -88.58 
L 357.370109 -88.58 
L 358.053135 -88.58 
L 358.736161 -88.58 
L 359.419186 -88.58 
L 360.102212 -88.58 
L 360.785238 -88.58 
L 361.468264 -88.58 
L 362.151289 -88.58 
L 362.834315 -88.58 
L 363.517341 -88.58 
L 364.200367 -88.58 
L 364.883392 -88.58 
L 365.566418 -88.58 
L 366.249444 -88.58 
L 366.93247 -88.58 
L 367.615495 -88.58 
L 368.298521 -88.58 
L 368.981547 -88.58 
L 369.664573 -88.58 
L 370.347598 -88.58 
L 371.030624 -88.58 
L 371.71365 -88.58 
L 372.396676 -88.58 
L 373.079701 -88.58 
L 373.762727 -88.58 
L 374.445753 -88.58 
L 375.128779 -88.58 
L 375.811804 -88.58 
L 376.49483 -88.58 
L 377.177856 -88.58 
L 377.860882 -88.58 
L 378.543907 -88.58 
L 379.226933 -88.58 
L 379.909959 -88.58 
L 380.592985 -88.58 
L 381.27601 -88.58 
L 381.959036 -88.58 
L 382.642062 -88.58 
L 383.325088 -88.58 
L 384.008113 -88.58 
L 384.691139 -88.58 
L 385.374165 -88.58 
L 386.057191 -88.58 
L 386.740216 -88.58 
L 387.423242 -88.58 
L 387.423242 -88.584001 
L 387.423242 -88.584001 
L 386.740216 -88.588292 
L 386.057191 -88.596116 
L 385.374165 -88.609369 
L 384.691139 -88.630186 
L 384.008113 -88.660413 
L 383.325088 -88.700816 
L 382.642062 -88.750206 
L 381.959036 -88.804843 
L 381.27601 -88.858507 
L 380.592985 -88.903479 
L 379.909959 -88.932297 
L 379.226933 -88.93977 
L 378.543907 -88.924503 
L 377.860882 -88.889324 
L 377.177856 -88.840428 
L 376.49483 -88.785596 
L 375.811804 -88.732194 
L 375.128779 -88.685646 
L 374.445753 -88.648776 
L 373.762727 -88.622021 
L 373.079701 -88.604183 
L 372.396676 -88.593338 
L 371.71365 -88.587617 
L 371.030624 -88.585725 
L 370.347598 -88.587258 
L 369.664573 -88.592876 
L 368.981547 -88.604429 
L 368.298521 -88.624988 
L 367.615495 -88.658696 
L 366.93247 -88.710295 
L 366.249444 -88.78426 
L 365.566418 -88.883588 
L 364.883392 -89.008555 
L 364.200367 -89.155901 
L 363.517341 -89.318987 
L 362.834315 -89.489222 
L 362.151289 -89.658625 
L 361.468264 -89.822802 
L 360.785238 -89.98319 
L 360.102212 -90.147487 
L 359.419186 -90.327812 
L 358.736161 -90.537202 
L 358.053135 -90.785975 
L 357.370109 -91.079739 
L 356.687083 -91.420108 
L 356.004058 -91.807828 
L 355.321032 -92.246792 
L 354.638006 -92.747001 
L 353.95498 -93.325109 
L 353.271955 -94.002342 
L 352.588929 -94.800587 
L 351.905903 -95.737952 
L 351.222877 -96.825147 
L 350.539852 -98.063824 
L 349.856826 -99.447699 
L 349.1738 -100.966621 
L 348.490774 -102.612645 
L 347.807749 -104.386031 
L 347.124723 -106.298435 
L 346.441697 -108.371243 
L 345.758671 -110.628766 
L 345.075646 -113.088399 
L 344.39262 -115.75162 
L 343.709594 -118.599925 
L 343.026569 -121.59828 
L 342.343543 -124.705719 
L 341.660517 -127.889712 
L 340.977491 -131.139299 
L 340.294466 -134.472672 
L 339.61144 -137.937648 
L 338.928414 -141.606714 
L 338.245388 -145.569903 
L 337.562363 -149.927644 
L 336.879337 -154.782635 
L 336.196311 -160.227412 
L 335.513285 -166.325115 
L 334.83026 -173.085723 
L 334.147234 -180.446325 
L 333.464208 -188.267413 
L 332.781182 -196.353995 
L 332.098157 -204.500627 
L 331.415131 -212.547432 
L 330.732105 -220.426466 
L 330.049079 -228.179248 
L 329.366054 -235.937146 
L 328.683028 -243.8719 
L 328.000002 -252.136386 
L 327.316976 -260.819565 
L 326.633951 -269.932213 
L 325.950925 -279.424822 
L 325.267899 -289.223278 
L 324.584873 -299.259666 
L 323.901848 -309.47928 
L 323.218822 -319.81886 
L 322.535796 -330.167839 
L 321.85277 -340.335209 
L 321.169745 -350.044116 
L 320.486719 -358.965244 
L 319.803693 -366.783849 
L 319.120667 -373.280768 
L 318.437642 -378.399988 
L 317.754616 -382.277105 
L 317.07159 -385.214335 
L 316.388564 -387.605606 
L 315.705539 -389.833773 
L 315.022513 -392.173295 
L 314.339487 -394.730191 
L 313.656461 -397.436658 
L 312.973436 -400.096941 
L 312.29041 -402.463095 
L 311.607384 -404.311439 
L 310.924358 -405.494224 
L 310.241333 -405.953308 
L 309.558307 -405.697911 
L 308.875281 -404.761991 
L 308.192255 -403.163905 
L 307.50923 -400.88886 
L 306.826204 -397.902788 
L 306.143178 -394.189045 
L 305.460152 -389.785376 
L 304.777127 -384.796647 
L 304.094101 -379.371369 
L 303.411075 -373.65073 
L 302.728049 -367.715292 
L 302.045024 -361.556919 
L 301.361998 -355.090459 
L 300.678972 -348.199404 
L 299.995946 -340.793981 
L 299.312921 -332.856481 
L 298.629895 -324.457244 
L 297.946869 -315.739125 
L 297.263843 -306.880726 
L 296.580818 -298.054212 
L 295.897792 -289.391537 
L 295.214766 -280.966328 
L 294.53174 -272.791533 
L 293.848715 -264.828452 
L 293.165689 -257.002065 
L 292.482663 -249.219283 
L 291.799638 -241.388644 
L 291.116612 -233.440186 
L 290.433586 -225.342859 
L 289.75056 -217.115387 
L 289.067535 -208.826851 
L 288.384509 -200.585853 
L 287.701483 -192.520729 
L 287.018457 -184.756071 
L 286.335432 -177.391474 
L 285.652406 -170.487074 
L 284.96938 -164.058287 
L 284.286354 -158.080033 
L 283.603329 -152.499065 
L 282.920303 -147.251501 
L 282.237277 -142.281225 
L 281.554251 -137.554117 
L 280.871226 -133.063891 
L 280.1882 -128.827944 
L 279.505174 -124.875198 
L 278.822148 -121.230927 
L 278.139123 -117.904567 
L 277.456097 -114.884958 
L 276.773071 -112.144214 
L 276.090045 -109.647838 
L 275.40702 -107.366415 
L 274.723994 -105.284027 
L 274.040968 -103.400277 
L 273.357942 -101.725572 
L 272.674917 -100.271832 
L 271.991891 -99.04223 
L 271.308865 -98.023619 
L 270.625839 -97.184159 
L 269.942814 -96.47694 
L 269.259788 -95.848523 
L 268.576762 -95.249864 
L 267.893736 -94.646341 
L 267.210711 -94.023876 
L 266.527685 -93.389386 
L 265.844659 -92.765629 
L 265.161633 -92.182303 
L 264.478608 -91.666303 
L 263.795582 -91.234036 
L 263.112556 -90.887684 
L 262.42953 -90.615905 
L 261.746505 -90.398084 
L 261.063479 -90.210446 
L 260.380453 -90.03212 
L 259.697427 -89.849565 
L 259.014402 -89.658428 
L 258.331376 -89.46269 
L 257.64835 -89.271751 
L 256.965324 -89.096598 
L 256.282299 -88.946332 
L 255.599273 -88.826012 
L 254.916247 -88.73614 
L 254.233221 -88.673513 
L 253.550196 -88.632783 
L 252.86717 -88.608053 
L 252.184144 -88.594027 
L 251.501118 -88.586595 
z
" style="stroke: #f6a800"/>
    </defs>
    <g clip-path="url(#p1ed0d176e0)">
     <use xlink:href="#mbc7f227392" x="0" y="473.978437" style="fill: #f6a800; fill-opacity: 0.4; stroke: #f6a800"/>
    </g>
   </g>
   <g id="FillBetweenPolyCollection_3">
    <defs>
     <path id="m20a052e7e9" d="M 66.640341 -88.584307 
L 66.640341 -88.58 
L 67.307677 -88.58 
L 67.975013 -88.58 
L 68.642349 -88.58 
L 69.309684 -88.58 
L 69.97702 -88.58 
L 70.644356 -88.58 
L 71.311692 -88.58 
L 71.979028 -88.58 
L 72.646364 -88.58 
L 73.3137 -88.58 
L 73.981036 -88.58 
L 74.648372 -88.58 
L 75.315708 -88.58 
L 75.983043 -88.58 
L 76.650379 -88.58 
L 77.317715 -88.58 
L 77.985051 -88.58 
L 78.652387 -88.58 
L 79.319723 -88.58 
L 79.987059 -88.58 
L 80.654395 -88.58 
L 81.321731 -88.58 
L 81.989066 -88.58 
L 82.656402 -88.58 
L 83.323738 -88.58 
L 83.991074 -88.58 
L 84.65841 -88.58 
L 85.325746 -88.58 
L 85.993082 -88.58 
L 86.660418 -88.58 
L 87.327754 -88.58 
L 87.99509 -88.58 
L 88.662425 -88.58 
L 89.329761 -88.58 
L 89.997097 -88.58 
L 90.664433 -88.58 
L 91.331769 -88.58 
L 91.999105 -88.58 
L 92.666441 -88.58 
L 93.333777 -88.58 
L 94.001113 -88.58 
L 94.668448 -88.58 
L 95.335784 -88.58 
L 96.00312 -88.58 
L 96.670456 -88.58 
L 97.337792 -88.58 
L 98.005128 -88.58 
L 98.672464 -88.58 
L 99.3398 -88.58 
L 100.007136 -88.58 
L 100.674472 -88.58 
L 101.341807 -88.58 
L 102.009143 -88.58 
L 102.676479 -88.58 
L 103.343815 -88.58 
L 104.011151 -88.58 
L 104.678487 -88.58 
L 105.345823 -88.58 
L 106.013159 -88.58 
L 106.680495 -88.58 
L 107.34783 -88.58 
L 108.015166 -88.58 
L 108.682502 -88.58 
L 109.349838 -88.58 
L 110.017174 -88.58 
L 110.68451 -88.58 
L 111.351846 -88.58 
L 112.019182 -88.58 
L 112.686518 -88.58 
L 113.353854 -88.58 
L 114.021189 -88.58 
L 114.688525 -88.58 
L 115.355861 -88.58 
L 116.023197 -88.58 
L 116.690533 -88.58 
L 117.357869 -88.58 
L 118.025205 -88.58 
L 118.692541 -88.58 
L 119.359877 -88.58 
L 120.027212 -88.58 
L 120.694548 -88.58 
L 121.361884 -88.58 
L 122.02922 -88.58 
L 122.696556 -88.58 
L 123.363892 -88.58 
L 124.031228 -88.58 
L 124.698564 -88.58 
L 125.3659 -88.58 
L 126.033236 -88.58 
L 126.700571 -88.58 
L 127.367907 -88.58 
L 128.035243 -88.58 
L 128.702579 -88.58 
L 129.369915 -88.58 
L 130.037251 -88.58 
L 130.704587 -88.58 
L 131.371923 -88.58 
L 132.039259 -88.58 
L 132.706594 -88.58 
L 133.37393 -88.58 
L 134.041266 -88.58 
L 134.708602 -88.58 
L 135.375938 -88.58 
L 136.043274 -88.58 
L 136.71061 -88.58 
L 137.377946 -88.58 
L 138.045282 -88.58 
L 138.712618 -88.58 
L 139.379953 -88.58 
L 140.047289 -88.58 
L 140.714625 -88.58 
L 141.381961 -88.58 
L 142.049297 -88.58 
L 142.716633 -88.58 
L 143.383969 -88.58 
L 144.051305 -88.58 
L 144.718641 -88.58 
L 145.385976 -88.58 
L 146.053312 -88.58 
L 146.720648 -88.58 
L 147.387984 -88.58 
L 148.05532 -88.58 
L 148.722656 -88.58 
L 149.389992 -88.58 
L 150.057328 -88.58 
L 150.724664 -88.58 
L 151.392 -88.58 
L 152.059335 -88.58 
L 152.726671 -88.58 
L 153.394007 -88.58 
L 154.061343 -88.58 
L 154.728679 -88.58 
L 155.396015 -88.58 
L 156.063351 -88.58 
L 156.730687 -88.58 
L 157.398023 -88.58 
L 158.065358 -88.58 
L 158.732694 -88.58 
L 159.40003 -88.58 
L 160.067366 -88.58 
L 160.734702 -88.58 
L 161.402038 -88.58 
L 162.069374 -88.58 
L 162.73671 -88.58 
L 163.404046 -88.58 
L 164.071381 -88.58 
L 164.738717 -88.58 
L 165.406053 -88.58 
L 166.073389 -88.58 
L 166.740725 -88.58 
L 167.408061 -88.58 
L 168.075397 -88.58 
L 168.742733 -88.58 
L 169.410069 -88.58 
L 170.077405 -88.58 
L 170.74474 -88.58 
L 171.412076 -88.58 
L 172.079412 -88.58 
L 172.746748 -88.58 
L 173.414084 -88.58 
L 174.08142 -88.58 
L 174.748756 -88.58 
L 175.416092 -88.58 
L 176.083428 -88.58 
L 176.750763 -88.58 
L 177.418099 -88.58 
L 178.085435 -88.58 
L 178.752771 -88.58 
L 179.420107 -88.58 
L 180.087443 -88.58 
L 180.754779 -88.58 
L 181.422115 -88.58 
L 182.089451 -88.58 
L 182.756787 -88.58 
L 183.424122 -88.58 
L 184.091458 -88.58 
L 184.758794 -88.58 
L 185.42613 -88.58 
L 186.093466 -88.58 
L 186.760802 -88.58 
L 187.428138 -88.58 
L 188.095474 -88.58 
L 188.76281 -88.58 
L 189.430145 -88.58 
L 190.097481 -88.58 
L 190.764817 -88.58 
L 191.432153 -88.58 
L 192.099489 -88.58 
L 192.766825 -88.58 
L 193.434161 -88.58 
L 194.101497 -88.58 
L 194.768833 -88.58 
L 195.436169 -88.58 
L 196.103504 -88.58 
L 196.77084 -88.58 
L 197.438176 -88.58 
L 198.105512 -88.58 
L 198.772848 -88.58 
L 199.440184 -88.58 
L 199.440184 -88.584303 
L 199.440184 -88.584303 
L 198.772848 -88.589239 
L 198.105512 -88.598478 
L 197.438176 -88.614421 
L 196.77084 -88.639721 
L 196.103504 -88.676508 
L 195.436169 -88.725258 
L 194.768833 -88.783636 
L 194.101497 -88.845892 
L 193.434161 -88.903368 
L 192.766825 -88.946292 
L 192.099489 -88.966459 
L 191.432153 -88.95979 
L 190.764817 -88.9277 
L 190.097481 -88.876671 
L 189.430145 -88.816249 
L 188.76281 -88.756396 
L 188.095474 -88.705299 
L 187.428138 -88.66837 
L 186.760802 -88.648442 
L 186.093466 -88.646632 
L 185.42613 -88.66309 
L 184.758794 -88.697137 
L 184.091458 -88.746713 
L 183.424122 -88.807637 
L 182.756787 -88.873378 
L 182.089451 -88.93594 
L 181.422115 -88.987835 
L 180.754779 -89.024411 
L 180.087443 -89.045351 
L 179.420107 -89.054378 
L 178.752771 -89.057101 
L 178.085435 -89.058037 
L 177.418099 -89.058455 
L 176.750763 -89.05637 
L 176.083428 -89.048918 
L 175.416092 -89.036058 
L 174.748756 -89.023825 
L 174.08142 -89.025532 
L 173.414084 -89.06024 
L 172.746748 -89.148795 
L 172.079412 -89.308606 
L 171.412076 -89.548612 
L 170.74474 -89.866037 
L 170.077405 -90.246259 
L 169.410069 -90.666633 
L 168.742733 -91.104039 
L 168.075397 -91.544429 
L 167.408061 -91.991196 
L 166.740725 -92.468606 
L 166.073389 -93.017568 
L 165.406053 -93.683785 
L 164.738717 -94.501901 
L 164.071381 -95.481994 
L 163.404046 -96.604885 
L 162.73671 -97.829819 
L 162.069374 -99.112974 
L 161.402038 -100.430479 
L 160.734702 -101.797223 
L 160.067366 -103.273952 
L 159.40003 -104.959278 
L 158.732694 -106.968471 
L 158.065358 -109.405279 
L 157.398023 -112.335255 
L 156.730687 -115.768615 
L 156.063351 -119.65782 
L 155.396015 -123.91063 
L 154.728679 -128.414566 
L 154.061343 -133.065238 
L 153.394007 -137.790295 
L 152.726671 -142.563292 
L 152.059335 -147.406278 
L 151.392 -152.383942 
L 150.724664 -157.593292 
L 150.057328 -163.150936 
L 149.389992 -169.177306 
L 148.722656 -175.776893 
L 148.05532 -183.016981 
L 147.387984 -190.912164 
L 146.720648 -199.42323 
L 146.053312 -208.473774 
L 145.385976 -217.97778 
L 144.718641 -227.862982 
L 144.051305 -238.074792 
L 143.383969 -248.555984 
L 142.716633 -259.212816 
L 142.049297 -269.889529 
L 141.381961 -280.372367 
L 140.714625 -290.430511 
L 140.047289 -299.881431 
L 139.379953 -308.653027 
L 138.712618 -316.813491 
L 138.045282 -324.553619 
L 137.377946 -332.128274 
L 136.71061 -339.781981 
L 136.043274 -347.688559 
L 135.375938 -355.92456 
L 134.708602 -364.47781 
L 134.041266 -373.27633 
L 133.37393 -382.216909 
L 132.706594 -391.177969 
L 132.039259 -400.013454 
L 131.371923 -408.536488 
L 130.704587 -416.508007 
L 130.037251 -423.644011 
L 129.369915 -429.646566 
L 128.702579 -434.252151 
L 128.035243 -437.281801 
L 127.367907 -438.675238 
L 126.700571 -438.497327 
L 126.033236 -436.917176 
L 125.3659 -434.17194 
L 124.698564 -430.532419 
L 124.031228 -426.282084 
L 123.363892 -421.70801 
L 122.696556 -417.089538 
L 122.02922 -412.668117 
L 121.361884 -408.593464 
L 120.694548 -404.861125 
L 120.027212 -401.271742 
L 119.359877 -397.441824 
L 118.692541 -392.877801 
L 118.025205 -387.098865 
L 117.357869 -379.773071 
L 116.690533 -370.824498 
L 116.023197 -360.477873 
L 115.355861 -349.225098 
L 114.688525 -337.719325 
L 114.021189 -326.622001 
L 113.353854 -316.443596 
L 112.686518 -307.42475 
L 112.019182 -299.496029 
L 111.351846 -292.329797 
L 110.68451 -285.463895 
L 110.017174 -278.448954 
L 109.349838 -270.964473 
L 108.682502 -262.867909 
L 108.015166 -254.175693 
L 107.34783 -245.005274 
L 106.680495 -235.516706 
L 106.013159 -225.878703 
L 105.345823 -216.260017 
L 104.678487 -206.829542 
L 104.011151 -197.747728 
L 103.343815 -189.144725 
L 102.676479 -181.095816 
L 102.009143 -173.610768 
L 101.341807 -166.647093 
L 100.674472 -160.142872 
L 100.007136 -154.052427 
L 99.3398 -148.365812 
L 98.672464 -143.102341 
L 98.005128 -138.283552 
L 97.337792 -133.902764 
L 96.670456 -129.909693 
L 96.00312 -126.218998 
L 95.335784 -122.737535 
L 94.668448 -119.395304 
L 94.001113 -116.164727 
L 93.333777 -113.061035 
L 92.666441 -110.126877 
L 91.999105 -107.410785 
L 91.331769 -104.949195 
L 90.664433 -102.757329 
L 89.997097 -100.829073 
L 89.329761 -99.142898 
L 88.662425 -97.670193 
L 87.99509 -96.383075 
L 87.327754 -95.259764 
L 86.660418 -94.28655 
L 85.993082 -93.456369 
L 85.325746 -92.764953 
L 84.65841 -92.206208 
L 83.991074 -91.768469 
L 83.323738 -91.432827 
L 82.656402 -91.173932 
L 81.989066 -90.963052 
L 81.321731 -90.772627 
L 80.654395 -90.581142 
L 79.987059 -90.376896 
L 79.319723 -90.159423 
L 78.652387 -89.937922 
L 77.985051 -89.72705 
L 77.317715 -89.541392 
L 76.650379 -89.390402 
L 75.983043 -89.275514 
L 75.315708 -89.19028 
L 74.648372 -89.123298 
L 73.981036 -89.062579 
L 73.3137 -88.999541 
L 72.646364 -88.931121 
L 71.979028 -88.859482 
L 71.311692 -88.789878 
L 70.644356 -88.727945 
L 69.97702 -88.677591 
L 69.309684 -88.640129 
L 68.642349 -88.614565 
L 67.975013 -88.598526 
L 67.307677 -88.589254 
L 66.640341 -88.584307 
z
" style="stroke: #57ab27"/>
    </defs>
    <g clip-path="url(#p1ed0d176e0)">
     <use xlink:href="#m20a052e7e9" x="0" y="473.978437" style="fill: #57ab27; fill-opacity: 0.4; stroke: #57ab27"/>
    </g>
   </g>
   <g id="matplotlib.axis_1">
    <g id="xtick_1">
     <g id="line2d_1">
      <path d="M 90.089746 385.398438 
L 90.089746 17.798437 
" clip-path="url(#p1ed0d176e0)" style="fill: none; stroke-dasharray: 2.96,1.28; stroke-dashoffset: 0; stroke: #b0b0b0; stroke-opacity: 0.5; stroke-width: 0.8"/>
     </g>
     <g id="line2d_2">
      <defs>
       <path id="m9884b7600c" d="M 0 0 
L 0 3.5 
" style="stroke: #000000; stroke-width: 0.8"/>
      </defs>
      <g>
       <use xlink:href="#m9884b7600c" x="90.089746" y="385.398438" style="stroke: #000000; stroke-width: 0.8"/>
      </g>
     </g>
     <g id="text_1">
      <!-- 1.95 -->
      <g transform="translate(78.956934 399.996875) scale(0.1 -0.1)">
       <defs>
        <path id="DejaVuSans-31" d="M 794 531 
L 1825 531 
L 1825 4091 
L 703 3866 
L 703 4441 
L 1819 4666 
L 2450 4666 
L 2450 531 
L 3481 531 
L 3481 0 
L 794 0 
L 794 531 
z
" transform="scale(0.015625)"/>
        <path id="DejaVuSans-2e" d="M 684 794 
L 1344 794 
L 1344 0 
L 684 0 
L 684 794 
z
" transform="scale(0.015625)"/>
        <path id="DejaVuSans-39" d="M 703 97 
L 703 672 
Q 941 559 1184 500 
Q 1428 441 1663 441 
Q 2288 441 2617 861 
Q 2947 1281 2994 2138 
Q 2813 1869 2534 1725 
Q 2256 1581 1919 1581 
Q 1219 1581 811 2004 
Q 403 2428 403 3163 
Q 403 3881 828 4315 
Q 1253 4750 1959 4750 
Q 2769 4750 3195 4129 
Q 3622 3509 3622 2328 
Q 3622 1225 3098 567 
Q 2575 -91 1691 -91 
Q 1453 -91 1209 -44 
Q 966 3 703 97 
z
M 1959 2075 
Q 2384 2075 2632 2365 
Q 2881 2656 2881 3163 
Q 2881 3666 2632 3958 
Q 2384 4250 1959 4250 
Q 1534 4250 1286 3958 
Q 1038 3666 1038 3163 
Q 1038 2656 1286 2365 
Q 1534 2075 1959 2075 
z
" transform="scale(0.015625)"/>
        <path id="DejaVuSans-35" d="M 691 4666 
L 3169 4666 
L 3169 4134 
L 1269 4134 
L 1269 2991 
Q 1406 3038 1543 3061 
Q 1681 3084 1819 3084 
Q 2600 3084 3056 2656 
Q 3513 2228 3513 1497 
Q 3513 744 3044 326 
Q 2575 -91 1722 -91 
Q 1428 -91 1123 -41 
Q 819 9 494 109 
L 494 744 
Q 775 591 1075 516 
Q 1375 441 1709 441 
Q 2250 441 2565 725 
Q 2881 1009 2881 1497 
Q 2881 1984 2565 2268 
Q 2250 2553 1709 2553 
Q 1456 2553 1204 2497 
Q 953 2441 691 2322 
L 691 4666 
z
" transform="scale(0.015625)"/>
       </defs>
       <use xlink:href="#DejaVuSans-31"/>
       <use xlink:href="#DejaVuSans-2e" transform="translate(63.623047 0)"/>
       <use xlink:href="#DejaVuSans-39" transform="translate(95.410156 0)"/>
       <use xlink:href="#DejaVuSans-35" transform="translate(159.033203 0)"/>
      </g>
     </g>
    </g>
    <g id="xtick_2">
     <g id="line2d_3">
      <path d="M 169.320696 385.398438 
L 169.320696 17.798437 
" clip-path="url(#p1ed0d176e0)" style="fill: none; stroke-dasharray: 2.96,1.28; stroke-dashoffset: 0; stroke: #b0b0b0; stroke-opacity: 0.5; stroke-width: 0.8"/>
     </g>
     <g id="line2d_4">
      <g>
       <use xlink:href="#m9884b7600c" x="169.320696" y="385.398438" style="stroke: #000000; stroke-width: 0.8"/>
      </g>
     </g>
     <g id="text_2">
      <!-- 2.00 -->
      <g transform="translate(158.187884 399.996875) scale(0.1 -0.1)">
       <defs>
        <path id="DejaVuSans-32" d="M 1228 531 
L 3431 531 
L 3431 0 
L 469 0 
L 469 531 
Q 828 903 1448 1529 
Q 2069 2156 2228 2338 
Q 2531 2678 2651 2914 
Q 2772 3150 2772 3378 
Q 2772 3750 2511 3984 
Q 2250 4219 1831 4219 
Q 1534 4219 1204 4116 
Q 875 4013 500 3803 
L 500 4441 
Q 881 4594 1212 4672 
Q 1544 4750 1819 4750 
Q 2544 4750 2975 4387 
Q 3406 4025 3406 3419 
Q 3406 3131 3298 2873 
Q 3191 2616 2906 2266 
Q 2828 2175 2409 1742 
Q 1991 1309 1228 531 
z
" transform="scale(0.015625)"/>
        <path id="DejaVuSans-30" d="M 2034 4250 
Q 1547 4250 1301 3770 
Q 1056 3291 1056 2328 
Q 1056 1369 1301 889 
Q 1547 409 2034 409 
Q 2525 409 2770 889 
Q 3016 1369 3016 2328 
Q 3016 3291 2770 3770 
Q 2525 4250 2034 4250 
z
M 2034 4750 
Q 2819 4750 3233 4129 
Q 3647 3509 3647 2328 
Q 3647 1150 3233 529 
Q 2819 -91 2034 -91 
Q 1250 -91 836 529 
Q 422 1150 422 2328 
Q 422 3509 836 4129 
Q 1250 4750 2034 4750 
z
" transform="scale(0.015625)"/>
       </defs>
       <use xlink:href="#DejaVuSans-32"/>
       <use xlink:href="#DejaVuSans-2e" transform="translate(63.623047 0)"/>
       <use xlink:href="#DejaVuSans-30" transform="translate(95.410156 0)"/>
       <use xlink:href="#DejaVuSans-30" transform="translate(159.033203 0)"/>
      </g>
     </g>
    </g>
    <g id="xtick_3">
     <g id="line2d_5">
      <path d="M 248.551646 385.398438 
L 248.551646 17.798437 
" clip-path="url(#p1ed0d176e0)" style="fill: none; stroke-dasharray: 2.96,1.28; stroke-dashoffset: 0; stroke: #b0b0b0; stroke-opacity: 0.5; stroke-width: 0.8"/>
     </g>
     <g id="line2d_6">
      <g>
       <use xlink:href="#m9884b7600c" x="248.551646" y="385.398438" style="stroke: #000000; stroke-width: 0.8"/>
      </g>
     </g>
     <g id="text_3">
      <!-- 2.05 -->
      <g transform="translate(237.418834 399.996875) scale(0.1 -0.1)">
       <use xlink:href="#DejaVuSans-32"/>
       <use xlink:href="#DejaVuSans-2e" transform="translate(63.623047 0)"/>
       <use xlink:href="#DejaVuSans-30" transform="translate(95.410156 0)"/>
       <use xlink:href="#DejaVuSans-35" transform="translate(159.033203 0)"/>
      </g>
     </g>
    </g>
    <g id="xtick_4">
     <g id="line2d_7">
      <path d="M 327.782596 385.398438 
L 327.782596 17.798437 
" clip-path="url(#p1ed0d176e0)" style="fill: none; stroke-dasharray: 2.96,1.28; stroke-dashoffset: 0; stroke: #b0b0b0; stroke-opacity: 0.5; stroke-width: 0.8"/>
     </g>
     <g id="line2d_8">
      <g>
       <use xlink:href="#m9884b7600c" x="327.782596" y="385.398438" style="stroke: #000000; stroke-width: 0.8"/>
      </g>
     </g>
     <g id="text_4">
      <!-- 2.10 -->
      <g transform="translate(316.649784 399.996875) scale(0.1 -0.1)">
       <use xlink:href="#DejaVuSans-32"/>
       <use xlink:href="#DejaVuSans-2e" transform="translate(63.623047 0)"/>
       <use xlink:href="#DejaVuSans-31" transform="translate(95.410156 0)"/>
       <use xlink:href="#DejaVuSans-30" transform="translate(159.033203 0)"/>
      </g>
     </g>
    </g>
    <g id="xtick_5">
     <g id="line2d_9">
      <path d="M 407.013546 385.398438 
L 407.013546 17.798437 
" clip-path="url(#p1ed0d176e0)" style="fill: none; stroke-dasharray: 2.96,1.28; stroke-dashoffset: 0; stroke: #b0b0b0; stroke-opacity: 0.5; stroke-width: 0.8"/>
     </g>
     <g id="line2d_10">
      <g>
       <use xlink:href="#m9884b7600c" x="407.013546" y="385.398438" style="stroke: #000000; stroke-width: 0.8"/>
      </g>
     </g>
     <g id="text_5">
      <!-- 2.15 -->
      <g transform="translate(395.880734 399.996875) scale(0.1 -0.1)">
       <use xlink:href="#DejaVuSans-32"/>
       <use xlink:href="#DejaVuSans-2e" transform="translate(63.623047 0)"/>
       <use xlink:href="#DejaVuSans-31" transform="translate(95.410156 0)"/>
       <use xlink:href="#DejaVuSans-35" transform="translate(159.033203 0)"/>
      </g>
     </g>
    </g>
    <g id="xtick_6">
     <g id="line2d_11">
      <path d="M 486.244496 385.398438 
L 486.244496 17.798437 
" clip-path="url(#p1ed0d176e0)" style="fill: none; stroke-dasharray: 2.96,1.28; stroke-dashoffset: 0; stroke: #b0b0b0; stroke-opacity: 0.5; stroke-width: 0.8"/>
     </g>
     <g id="line2d_12">
      <g>
       <use xlink:href="#m9884b7600c" x="486.244496" y="385.398438" style="stroke: #000000; stroke-width: 0.8"/>
      </g>
     </g>
     <g id="text_6">
      <!-- 2.20 -->
      <g transform="translate(475.111684 399.996875) scale(0.1 -0.1)">
       <use xlink:href="#DejaVuSans-32"/>
       <use xlink:href="#DejaVuSans-2e" transform="translate(63.623047 0)"/>
       <use xlink:href="#DejaVuSans-32" transform="translate(95.410156 0)"/>
       <use xlink:href="#DejaVuSans-30" transform="translate(159.033203 0)"/>
      </g>
     </g>
    </g>
    <g id="xtick_7">
     <g id="line2d_13">
      <path d="M 565.475446 385.398438 
L 565.475446 17.798437 
" clip-path="url(#p1ed0d176e0)" style="fill: none; stroke-dasharray: 2.96,1.28; stroke-dashoffset: 0; stroke: #b0b0b0; stroke-opacity: 0.5; stroke-width: 0.8"/>
     </g>
     <g id="line2d_14">
      <g>
       <use xlink:href="#m9884b7600c" x="565.475446" y="385.398438" style="stroke: #000000; stroke-width: 0.8"/>
      </g>
     </g>
     <g id="text_7">
      <!-- 2.25 -->
      <g transform="translate(554.342633 399.996875) scale(0.1 -0.1)">
       <use xlink:href="#DejaVuSans-32"/>
       <use xlink:href="#DejaVuSans-2e" transform="translate(63.623047 0)"/>
       <use xlink:href="#DejaVuSans-32" transform="translate(95.410156 0)"/>
       <use xlink:href="#DejaVuSans-35" transform="translate(159.033203 0)"/>
      </g>
     </g>
    </g>
    <g id="xtick_8">
     <g id="line2d_15">
      <path d="M 644.706396 385.398438 
L 644.706396 17.798437 
" clip-path="url(#p1ed0d176e0)" style="fill: none; stroke-dasharray: 2.96,1.28; stroke-dashoffset: 0; stroke: #b0b0b0; stroke-opacity: 0.5; stroke-width: 0.8"/>
     </g>
     <g id="line2d_16">
      <g>
       <use xlink:href="#m9884b7600c" x="644.706396" y="385.398438" style="stroke: #000000; stroke-width: 0.8"/>
      </g>
     </g>
     <g id="text_8">
      <!-- 2.30 -->
      <g transform="translate(633.573583 399.996875) scale(0.1 -0.1)">
       <defs>
        <path id="DejaVuSans-33" d="M 2597 2516 
Q 3050 2419 3304 2112 
Q 3559 1806 3559 1356 
Q 3559 666 3084 287 
Q 2609 -91 1734 -91 
Q 1441 -91 1130 -33 
Q 819 25 488 141 
L 488 750 
Q 750 597 1062 519 
Q 1375 441 1716 441 
Q 2309 441 2620 675 
Q 2931 909 2931 1356 
Q 2931 1769 2642 2001 
Q 2353 2234 1838 2234 
L 1294 2234 
L 1294 2753 
L 1863 2753 
Q 2328 2753 2575 2939 
Q 2822 3125 2822 3475 
Q 2822 3834 2567 4026 
Q 2313 4219 1838 4219 
Q 1578 4219 1281 4162 
Q 984 4106 628 3988 
L 628 4550 
Q 988 4650 1302 4700 
Q 1616 4750 1894 4750 
Q 2613 4750 3031 4423 
Q 3450 4097 3450 3541 
Q 3450 3153 3228 2886 
Q 3006 2619 2597 2516 
z
" transform="scale(0.015625)"/>
       </defs>
       <use xlink:href="#DejaVuSans-32"/>
       <use xlink:href="#DejaVuSans-2e" transform="translate(63.623047 0)"/>
       <use xlink:href="#DejaVuSans-33" transform="translate(95.410156 0)"/>
       <use xlink:href="#DejaVuSans-30" transform="translate(159.033203 0)"/>
      </g>
     </g>
    </g>
    <g id="text_9">
     <!-- GWP100 [kg CO2-eq] -->
     <g transform="translate(307.454375 415.194687) scale(0.12 -0.12)">
      <defs>
       <path id="DejaVuSans-47" d="M 3809 666 
L 3809 1919 
L 2778 1919 
L 2778 2438 
L 4434 2438 
L 4434 434 
Q 4069 175 3628 42 
Q 3188 -91 2688 -91 
Q 1594 -91 976 548 
Q 359 1188 359 2328 
Q 359 3472 976 4111 
Q 1594 4750 2688 4750 
Q 3144 4750 3555 4637 
Q 3966 4525 4313 4306 
L 4313 3634 
Q 3963 3931 3569 4081 
Q 3175 4231 2741 4231 
Q 1884 4231 1454 3753 
Q 1025 3275 1025 2328 
Q 1025 1384 1454 906 
Q 1884 428 2741 428 
Q 3075 428 3337 486 
Q 3600 544 3809 666 
z
" transform="scale(0.015625)"/>
       <path id="DejaVuSans-57" d="M 213 4666 
L 850 4666 
L 1831 722 
L 2809 4666 
L 3519 4666 
L 4500 722 
L 5478 4666 
L 6119 4666 
L 4947 0 
L 4153 0 
L 3169 4050 
L 2175 0 
L 1381 0 
L 213 4666 
z
" transform="scale(0.015625)"/>
       <path id="DejaVuSans-50" d="M 1259 4147 
L 1259 2394 
L 2053 2394 
Q 2494 2394 2734 2622 
Q 2975 2850 2975 3272 
Q 2975 3691 2734 3919 
Q 2494 4147 2053 4147 
L 1259 4147 
z
M 628 4666 
L 2053 4666 
Q 2838 4666 3239 4311 
Q 3641 3956 3641 3272 
Q 3641 2581 3239 2228 
Q 2838 1875 2053 1875 
L 1259 1875 
L 1259 0 
L 628 0 
L 628 4666 
z
" transform="scale(0.015625)"/>
       <path id="DejaVuSans-20" transform="scale(0.015625)"/>
       <path id="DejaVuSans-5b" d="M 550 4863 
L 1875 4863 
L 1875 4416 
L 1125 4416 
L 1125 -397 
L 1875 -397 
L 1875 -844 
L 550 -844 
L 550 4863 
z
" transform="scale(0.015625)"/>
       <path id="DejaVuSans-6b" d="M 581 4863 
L 1159 4863 
L 1159 1991 
L 2875 3500 
L 3609 3500 
L 1753 1863 
L 3688 0 
L 2938 0 
L 1159 1709 
L 1159 0 
L 581 0 
L 581 4863 
z
" transform="scale(0.015625)"/>
       <path id="DejaVuSans-67" d="M 2906 1791 
Q 2906 2416 2648 2759 
Q 2391 3103 1925 3103 
Q 1463 3103 1205 2759 
Q 947 2416 947 1791 
Q 947 1169 1205 825 
Q 1463 481 1925 481 
Q 2391 481 2648 825 
Q 2906 1169 2906 1791 
z
M 3481 434 
Q 3481 -459 3084 -895 
Q 2688 -1331 1869 -1331 
Q 1566 -1331 1297 -1286 
Q 1028 -1241 775 -1147 
L 775 -588 
Q 1028 -725 1275 -790 
Q 1522 -856 1778 -856 
Q 2344 -856 2625 -561 
Q 2906 -266 2906 331 
L 2906 616 
Q 2728 306 2450 153 
Q 2172 0 1784 0 
Q 1141 0 747 490 
Q 353 981 353 1791 
Q 353 2603 747 3093 
Q 1141 3584 1784 3584 
Q 2172 3584 2450 3431 
Q 2728 3278 2906 2969 
L 2906 3500 
L 3481 3500 
L 3481 434 
z
" transform="scale(0.015625)"/>
       <path id="DejaVuSans-43" d="M 4122 4306 
L 4122 3641 
Q 3803 3938 3442 4084 
Q 3081 4231 2675 4231 
Q 1875 4231 1450 3742 
Q 1025 3253 1025 2328 
Q 1025 1406 1450 917 
Q 1875 428 2675 428 
Q 3081 428 3442 575 
Q 3803 722 4122 1019 
L 4122 359 
Q 3791 134 3420 21 
Q 3050 -91 2638 -91 
Q 1578 -91 968 557 
Q 359 1206 359 2328 
Q 359 3453 968 4101 
Q 1578 4750 2638 4750 
Q 3056 4750 3426 4639 
Q 3797 4528 4122 4306 
z
" transform="scale(0.015625)"/>
       <path id="DejaVuSans-4f" d="M 2522 4238 
Q 1834 4238 1429 3725 
Q 1025 3213 1025 2328 
Q 1025 1447 1429 934 
Q 1834 422 2522 422 
Q 3209 422 3611 934 
Q 4013 1447 4013 2328 
Q 4013 3213 3611 3725 
Q 3209 4238 2522 4238 
z
M 2522 4750 
Q 3503 4750 4090 4092 
Q 4678 3434 4678 2328 
Q 4678 1225 4090 567 
Q 3503 -91 2522 -91 
Q 1538 -91 948 565 
Q 359 1222 359 2328 
Q 359 3434 948 4092 
Q 1538 4750 2522 4750 
z
" transform="scale(0.015625)"/>
       <path id="DejaVuSans-2d" d="M 313 2009 
L 1997 2009 
L 1997 1497 
L 313 1497 
L 313 2009 
z
" transform="scale(0.015625)"/>
       <path id="DejaVuSans-65" d="M 3597 1894 
L 3597 1613 
L 953 1613 
Q 991 1019 1311 708 
Q 1631 397 2203 397 
Q 2534 397 2845 478 
Q 3156 559 3463 722 
L 3463 178 
Q 3153 47 2828 -22 
Q 2503 -91 2169 -91 
Q 1331 -91 842 396 
Q 353 884 353 1716 
Q 353 2575 817 3079 
Q 1281 3584 2069 3584 
Q 2775 3584 3186 3129 
Q 3597 2675 3597 1894 
z
M 3022 2063 
Q 3016 2534 2758 2815 
Q 2500 3097 2075 3097 
Q 1594 3097 1305 2825 
Q 1016 2553 972 2059 
L 3022 2063 
z
" transform="scale(0.015625)"/>
       <path id="DejaVuSans-71" d="M 947 1747 
Q 947 1113 1208 752 
Q 1469 391 1925 391 
Q 2381 391 2643 752 
Q 2906 1113 2906 1747 
Q 2906 2381 2643 2742 
Q 2381 3103 1925 3103 
Q 1469 3103 1208 2742 
Q 947 2381 947 1747 
z
M 2906 525 
Q 2725 213 2448 61 
Q 2172 -91 1784 -91 
Q 1150 -91 751 415 
Q 353 922 353 1747 
Q 353 2572 751 3078 
Q 1150 3584 1784 3584 
Q 2172 3584 2448 3432 
Q 2725 3281 2906 2969 
L 2906 3500 
L 3481 3500 
L 3481 -1331 
L 2906 -1331 
L 2906 525 
z
" transform="scale(0.015625)"/>
       <path id="DejaVuSans-5d" d="M 1947 4863 
L 1947 -844 
L 622 -844 
L 622 -397 
L 1369 -397 
L 1369 4416 
L 622 4416 
L 622 4863 
L 1947 4863 
z
" transform="scale(0.015625)"/>
      </defs>
      <use xlink:href="#DejaVuSans-47"/>
      <use xlink:href="#DejaVuSans-57" transform="translate(77.490234 0)"/>
      <use xlink:href="#DejaVuSans-50" transform="translate(176.367188 0)"/>
      <use xlink:href="#DejaVuSans-31" transform="translate(236.669922 0)"/>
      <use xlink:href="#DejaVuSans-30" transform="translate(300.292969 0)"/>
      <use xlink:href="#DejaVuSans-30" transform="translate(363.916016 0)"/>
      <use xlink:href="#DejaVuSans-20" transform="translate(427.539062 0)"/>
      <use xlink:href="#DejaVuSans-5b" transform="translate(459.326172 0)"/>
      <use xlink:href="#DejaVuSans-6b" transform="translate(498.339844 0)"/>
      <use xlink:href="#DejaVuSans-67" transform="translate(556.25 0)"/>
      <use xlink:href="#DejaVuSans-20" transform="translate(619.726562 0)"/>
      <use xlink:href="#DejaVuSans-43" transform="translate(651.513672 0)"/>
      <use xlink:href="#DejaVuSans-4f" transform="translate(721.337891 0)"/>
      <use xlink:href="#DejaVuSans-32" transform="translate(800.048828 0)"/>
      <use xlink:href="#DejaVuSans-2d" transform="translate(863.671875 0)"/>
      <use xlink:href="#DejaVuSans-65" transform="translate(899.755859 0)"/>
      <use xlink:href="#DejaVuSans-71" transform="translate(961.279297 0)"/>
      <use xlink:href="#DejaVuSans-5d" transform="translate(1024.755859 0)"/>
     </g>
    </g>
    <g id="text_10">
     <!-- 1e10 -->
     <g transform="translate(681.145625 412.675) scale(0.1 -0.1)">
      <use xlink:href="#DejaVuSans-31"/>
      <use xlink:href="#DejaVuSans-65" transform="translate(63.623047 0)"/>
      <use xlink:href="#DejaVuSans-31" transform="translate(125.146484 0)"/>
      <use xlink:href="#DejaVuSans-30" transform="translate(188.769531 0)"/>
     </g>
    </g>
   </g>
   <g id="matplotlib.axis_2">
    <g id="ytick_1">
     <g id="line2d_17">
      <path d="M 36.17625 385.398438 
L 706.38625 385.398438 
" clip-path="url(#p1ed0d176e0)" style="fill: none; stroke-dasharray: 2.96,1.28; stroke-dashoffset: 0; stroke: #b0b0b0; stroke-opacity: 0.5; stroke-width: 0.8"/>
     </g>
     <g id="line2d_18">
      <defs>
       <path id="mcf8b109b1a" d="M 0 0 
L -3.5 0 
" style="stroke: #000000; stroke-width: 0.8"/>
      </defs>
      <g>
       <use xlink:href="#mcf8b109b1a" x="36.17625" y="385.398438" style="stroke: #000000; stroke-width: 0.8"/>
      </g>
     </g>
     <g id="text_11">
      <!-- 0 -->
      <g transform="translate(22.81375 389.197656) scale(0.1 -0.1)">
       <use xlink:href="#DejaVuSans-30"/>
      </g>
     </g>
    </g>
    <g id="ytick_2">
     <g id="line2d_19">
      <path d="M 36.17625 308.70791 
L 706.38625 308.70791 
" clip-path="url(#p1ed0d176e0)" style="fill: none; stroke-dasharray: 2.96,1.28; stroke-dashoffset: 0; stroke: #b0b0b0; stroke-opacity: 0.5; stroke-width: 0.8"/>
     </g>
     <g id="line2d_20">
      <g>
       <use xlink:href="#mcf8b109b1a" x="36.17625" y="308.70791" style="stroke: #000000; stroke-width: 0.8"/>
      </g>
     </g>
     <g id="text_12">
      <!-- 1 -->
      <g transform="translate(22.81375 312.507128) scale(0.1 -0.1)">
       <use xlink:href="#DejaVuSans-31"/>
      </g>
     </g>
    </g>
    <g id="ytick_3">
     <g id="line2d_21">
      <path d="M 36.17625 232.017382 
L 706.38625 232.017382 
" clip-path="url(#p1ed0d176e0)" style="fill: none; stroke-dasharray: 2.96,1.28; stroke-dashoffset: 0; stroke: #b0b0b0; stroke-opacity: 0.5; stroke-width: 0.8"/>
     </g>
     <g id="line2d_22">
      <g>
       <use xlink:href="#mcf8b109b1a" x="36.17625" y="232.017382" style="stroke: #000000; stroke-width: 0.8"/>
      </g>
     </g>
     <g id="text_13">
      <!-- 2 -->
      <g transform="translate(22.81375 235.816601) scale(0.1 -0.1)">
       <use xlink:href="#DejaVuSans-32"/>
      </g>
     </g>
    </g>
    <g id="ytick_4">
     <g id="line2d_23">
      <path d="M 36.17625 155.326854 
L 706.38625 155.326854 
" clip-path="url(#p1ed0d176e0)" style="fill: none; stroke-dasharray: 2.96,1.28; stroke-dashoffset: 0; stroke: #b0b0b0; stroke-opacity: 0.5; stroke-width: 0.8"/>
     </g>
     <g id="line2d_24">
      <g>
       <use xlink:href="#mcf8b109b1a" x="36.17625" y="155.326854" style="stroke: #000000; stroke-width: 0.8"/>
      </g>
     </g>
     <g id="text_14">
      <!-- 3 -->
      <g transform="translate(22.81375 159.126073) scale(0.1 -0.1)">
       <use xlink:href="#DejaVuSans-33"/>
      </g>
     </g>
    </g>
    <g id="ytick_5">
     <g id="line2d_25">
      <path d="M 36.17625 78.636326 
L 706.38625 78.636326 
" clip-path="url(#p1ed0d176e0)" style="fill: none; stroke-dasharray: 2.96,1.28; stroke-dashoffset: 0; stroke: #b0b0b0; stroke-opacity: 0.5; stroke-width: 0.8"/>
     </g>
     <g id="line2d_26">
      <g>
       <use xlink:href="#mcf8b109b1a" x="36.17625" y="78.636326" style="stroke: #000000; stroke-width: 0.8"/>
      </g>
     </g>
     <g id="text_15">
      <!-- 4 -->
      <g transform="translate(22.81375 82.435545) scale(0.1 -0.1)">
       <defs>
        <path id="DejaVuSans-34" d="M 2419 4116 
L 825 1625 
L 2419 1625 
L 2419 4116 
z
M 2253 4666 
L 3047 4666 
L 3047 1625 
L 3713 1625 
L 3713 1100 
L 3047 1100 
L 3047 0 
L 2419 0 
L 2419 1100 
L 313 1100 
L 313 1709 
L 2253 4666 
z
" transform="scale(0.015625)"/>
       </defs>
       <use xlink:href="#DejaVuSans-34"/>
      </g>
     </g>
    </g>
    <g id="text_16">
     <!-- Density -->
     <g transform="translate(16.318125 224.40875) rotate(-90) scale(0.12 -0.12)">
      <defs>
       <path id="DejaVuSans-44" d="M 1259 4147 
L 1259 519 
L 2022 519 
Q 2988 519 3436 956 
Q 3884 1394 3884 2338 
Q 3884 3275 3436 3711 
Q 2988 4147 2022 4147 
L 1259 4147 
z
M 628 4666 
L 1925 4666 
Q 3281 4666 3915 4102 
Q 4550 3538 4550 2338 
Q 4550 1131 3912 565 
Q 3275 0 1925 0 
L 628 0 
L 628 4666 
z
" transform="scale(0.015625)"/>
       <path id="DejaVuSans-6e" d="M 3513 2113 
L 3513 0 
L 2938 0 
L 2938 2094 
Q 2938 2591 2744 2837 
Q 2550 3084 2163 3084 
Q 1697 3084 1428 2787 
Q 1159 2491 1159 1978 
L 1159 0 
L 581 0 
L 581 3500 
L 1159 3500 
L 1159 2956 
Q 1366 3272 1645 3428 
Q 1925 3584 2291 3584 
Q 2894 3584 3203 3211 
Q 3513 2838 3513 2113 
z
" transform="scale(0.015625)"/>
       <path id="DejaVuSans-73" d="M 2834 3397 
L 2834 2853 
Q 2591 2978 2328 3040 
Q 2066 3103 1784 3103 
Q 1356 3103 1142 2972 
Q 928 2841 928 2578 
Q 928 2378 1081 2264 
Q 1234 2150 1697 2047 
L 1894 2003 
Q 2506 1872 2764 1633 
Q 3022 1394 3022 966 
Q 3022 478 2636 193 
Q 2250 -91 1575 -91 
Q 1294 -91 989 -36 
Q 684 19 347 128 
L 347 722 
Q 666 556 975 473 
Q 1284 391 1588 391 
Q 1994 391 2212 530 
Q 2431 669 2431 922 
Q 2431 1156 2273 1281 
Q 2116 1406 1581 1522 
L 1381 1569 
Q 847 1681 609 1914 
Q 372 2147 372 2553 
Q 372 3047 722 3315 
Q 1072 3584 1716 3584 
Q 2034 3584 2315 3537 
Q 2597 3491 2834 3397 
z
" transform="scale(0.015625)"/>
       <path id="DejaVuSans-69" d="M 603 3500 
L 1178 3500 
L 1178 0 
L 603 0 
L 603 3500 
z
M 603 4863 
L 1178 4863 
L 1178 4134 
L 603 4134 
L 603 4863 
z
" transform="scale(0.015625)"/>
       <path id="DejaVuSans-74" d="M 1172 4494 
L 1172 3500 
L 2356 3500 
L 2356 3053 
L 1172 3053 
L 1172 1153 
Q 1172 725 1289 603 
Q 1406 481 1766 481 
L 2356 481 
L 2356 0 
L 1766 0 
Q 1100 0 847 248 
Q 594 497 594 1153 
L 594 3053 
L 172 3053 
L 172 3500 
L 594 3500 
L 594 4494 
L 1172 4494 
z
" transform="scale(0.015625)"/>
       <path id="DejaVuSans-79" d="M 2059 -325 
Q 1816 -950 1584 -1140 
Q 1353 -1331 966 -1331 
L 506 -1331 
L 506 -850 
L 844 -850 
Q 1081 -850 1212 -737 
Q 1344 -625 1503 -206 
L 1606 56 
L 191 3500 
L 800 3500 
L 1894 763 
L 2988 3500 
L 3597 3500 
L 2059 -325 
z
" transform="scale(0.015625)"/>
      </defs>
      <use xlink:href="#DejaVuSans-44"/>
      <use xlink:href="#DejaVuSans-65" transform="translate(77.001953 0)"/>
      <use xlink:href="#DejaVuSans-6e" transform="translate(138.525391 0)"/>
      <use xlink:href="#DejaVuSans-73" transform="translate(201.904297 0)"/>
      <use xlink:href="#DejaVuSans-69" transform="translate(254.003906 0)"/>
      <use xlink:href="#DejaVuSans-74" transform="translate(281.787109 0)"/>
      <use xlink:href="#DejaVuSans-79" transform="translate(320.996094 0)"/>
     </g>
    </g>
    <g id="text_17">
     <!-- 1e−9 -->
     <g transform="translate(36.17625 14.798437) scale(0.1 -0.1)">
      <defs>
       <path id="DejaVuSans-2212" d="M 678 2272 
L 4684 2272 
L 4684 1741 
L 678 1741 
L 678 2272 
z
" transform="scale(0.015625)"/>
      </defs>
      <use xlink:href="#DejaVuSans-31"/>
      <use xlink:href="#DejaVuSans-65" transform="translate(63.623047 0)"/>
      <use xlink:href="#DejaVuSans-2212" transform="translate(125.146484 0)"/>
      <use xlink:href="#DejaVuSans-39" transform="translate(208.935547 0)"/>
     </g>
    </g>
   </g>
   <g id="line2d_27">
    <path d="M 595.989111 385.398438 
L 595.989111 17.798437 
" clip-path="url(#p1ed0d176e0)" style="fill: none; stroke-dasharray: 5.55,2.4; stroke-dashoffset: 0; stroke: #00549f; stroke-width: 1.5"/>
   </g>
   <g id="line2d_28">
    <path d="M 310.626646 385.398438 
L 310.626646 17.798437 
" clip-path="url(#p1ed0d176e0)" style="fill: none; stroke-dasharray: 5.55,2.4; stroke-dashoffset: 0; stroke: #f6a800; stroke-width: 1.5"/>
   </g>
   <g id="line2d_29">
    <path d="M 125.611808 385.398438 
L 125.611808 17.798437 
" clip-path="url(#p1ed0d176e0)" style="fill: none; stroke-dasharray: 5.55,2.4; stroke-dashoffset: 0; stroke: #57ab27; stroke-width: 1.5"/>
   </g>
   <g id="patch_3">
    <path d="M 36.17625 385.398438 
L 36.17625 17.798437 
" style="fill: none; stroke: #000000; stroke-width: 0.8; stroke-linejoin: miter; stroke-linecap: square"/>
   </g>
   <g id="patch_4">
    <path d="M 706.38625 385.398438 
L 706.38625 17.798437 
" style="fill: none; stroke: #000000; stroke-width: 0.8; stroke-linejoin: miter; stroke-linecap: square"/>
   </g>
   <g id="patch_5">
    <path d="M 36.17625 385.398438 
L 706.38625 385.398438 
" style="fill: none; stroke: #000000; stroke-width: 0.8; stroke-linejoin: miter; stroke-linecap: square"/>
   </g>
   <g id="patch_6">
    <path d="M 36.17625 17.798437 
L 706.38625 17.798437 
" style="fill: none; stroke: #000000; stroke-width: 0.8; stroke-linejoin: miter; stroke-linecap: square"/>
   </g>
  </g>
  <g id="legend_1">
   <g id="patch_7">
    <path d="M 92.31625 466.778437 
L 622.05625 466.778437 
Q 623.85625 466.778437 623.85625 464.978437 
L 623.85625 439.457812 
Q 623.85625 437.657812 622.05625 437.657812 
L 92.31625 437.657812 
Q 90.51625 437.657812 90.51625 439.457812 
L 90.51625 464.978437 
Q 90.51625 466.778437 92.31625 466.778437 
z
" style="fill: #ffffff; opacity: 0.8; stroke: #cccccc; stroke-linejoin: miter"/>
   </g>
   <g id="line2d_30">
    <path d="M 94.11625 444.946406 
L 103.11625 444.946406 
L 112.11625 444.946406 
" style="fill: none; stroke-dasharray: 5.55,2.4; stroke-dashoffset: 0; stroke: #57ab27; stroke-width: 1.5"/>
   </g>
   <g id="text_18">
    <!-- Mean 1.5°C scenario: 1.97e+10 -->
    <g transform="translate(119.31625 448.096406) scale(0.09 -0.09)">
     <defs>
      <path id="DejaVuSans-4d" d="M 628 4666 
L 1569 4666 
L 2759 1491 
L 3956 4666 
L 4897 4666 
L 4897 0 
L 4281 0 
L 4281 4097 
L 3078 897 
L 2444 897 
L 1241 4097 
L 1241 0 
L 628 0 
L 628 4666 
z
" transform="scale(0.015625)"/>
      <path id="DejaVuSans-61" d="M 2194 1759 
Q 1497 1759 1228 1600 
Q 959 1441 959 1056 
Q 959 750 1161 570 
Q 1363 391 1709 391 
Q 2188 391 2477 730 
Q 2766 1069 2766 1631 
L 2766 1759 
L 2194 1759 
z
M 3341 1997 
L 3341 0 
L 2766 0 
L 2766 531 
Q 2569 213 2275 61 
Q 1981 -91 1556 -91 
Q 1019 -91 701 211 
Q 384 513 384 1019 
Q 384 1609 779 1909 
Q 1175 2209 1959 2209 
L 2766 2209 
L 2766 2266 
Q 2766 2663 2505 2880 
Q 2244 3097 1772 3097 
Q 1472 3097 1187 3025 
Q 903 2953 641 2809 
L 641 3341 
Q 956 3463 1253 3523 
Q 1550 3584 1831 3584 
Q 2591 3584 2966 3190 
Q 3341 2797 3341 1997 
z
" transform="scale(0.015625)"/>
      <path id="DejaVuSans-b0" d="M 1600 4347 
Q 1350 4347 1178 4173 
Q 1006 4000 1006 3750 
Q 1006 3503 1178 3333 
Q 1350 3163 1600 3163 
Q 1850 3163 2022 3333 
Q 2194 3503 2194 3750 
Q 2194 3997 2020 4172 
Q 1847 4347 1600 4347 
z
M 1600 4750 
Q 1800 4750 1984 4673 
Q 2169 4597 2303 4453 
Q 2447 4313 2519 4134 
Q 2591 3956 2591 3750 
Q 2591 3338 2302 3052 
Q 2013 2766 1594 2766 
Q 1172 2766 890 3047 
Q 609 3328 609 3750 
Q 609 4169 896 4459 
Q 1184 4750 1600 4750 
z
" transform="scale(0.015625)"/>
      <path id="DejaVuSans-63" d="M 3122 3366 
L 3122 2828 
Q 2878 2963 2633 3030 
Q 2388 3097 2138 3097 
Q 1578 3097 1268 2742 
Q 959 2388 959 1747 
Q 959 1106 1268 751 
Q 1578 397 2138 397 
Q 2388 397 2633 464 
Q 2878 531 3122 666 
L 3122 134 
Q 2881 22 2623 -34 
Q 2366 -91 2075 -91 
Q 1284 -91 818 406 
Q 353 903 353 1747 
Q 353 2603 823 3093 
Q 1294 3584 2113 3584 
Q 2378 3584 2631 3529 
Q 2884 3475 3122 3366 
z
" transform="scale(0.015625)"/>
      <path id="DejaVuSans-72" d="M 2631 2963 
Q 2534 3019 2420 3045 
Q 2306 3072 2169 3072 
Q 1681 3072 1420 2755 
Q 1159 2438 1159 1844 
L 1159 0 
L 581 0 
L 581 3500 
L 1159 3500 
L 1159 2956 
Q 1341 3275 1631 3429 
Q 1922 3584 2338 3584 
Q 2397 3584 2469 3576 
Q 2541 3569 2628 3553 
L 2631 2963 
z
" transform="scale(0.015625)"/>
      <path id="DejaVuSans-6f" d="M 1959 3097 
Q 1497 3097 1228 2736 
Q 959 2375 959 1747 
Q 959 1119 1226 758 
Q 1494 397 1959 397 
Q 2419 397 2687 759 
Q 2956 1122 2956 1747 
Q 2956 2369 2687 2733 
Q 2419 3097 1959 3097 
z
M 1959 3584 
Q 2709 3584 3137 3096 
Q 3566 2609 3566 1747 
Q 3566 888 3137 398 
Q 2709 -91 1959 -91 
Q 1206 -91 779 398 
Q 353 888 353 1747 
Q 353 2609 779 3096 
Q 1206 3584 1959 3584 
z
" transform="scale(0.015625)"/>
      <path id="DejaVuSans-3a" d="M 750 794 
L 1409 794 
L 1409 0 
L 750 0 
L 750 794 
z
M 750 3309 
L 1409 3309 
L 1409 2516 
L 750 2516 
L 750 3309 
z
" transform="scale(0.015625)"/>
      <path id="DejaVuSans-37" d="M 525 4666 
L 3525 4666 
L 3525 4397 
L 1831 0 
L 1172 0 
L 2766 4134 
L 525 4134 
L 525 4666 
z
" transform="scale(0.015625)"/>
      <path id="DejaVuSans-2b" d="M 2944 4013 
L 2944 2272 
L 4684 2272 
L 4684 1741 
L 2944 1741 
L 2944 0 
L 2419 0 
L 2419 1741 
L 678 1741 
L 678 2272 
L 2419 2272 
L 2419 4013 
L 2944 4013 
z
" transform="scale(0.015625)"/>
     </defs>
     <use xlink:href="#DejaVuSans-4d"/>
     <use xlink:href="#DejaVuSans-65" transform="translate(86.279297 0)"/>
     <use xlink:href="#DejaVuSans-61" transform="translate(147.802734 0)"/>
     <use xlink:href="#DejaVuSans-6e" transform="translate(209.082031 0)"/>
     <use xlink:href="#DejaVuSans-20" transform="translate(272.460938 0)"/>
     <use xlink:href="#DejaVuSans-31" transform="translate(304.248047 0)"/>
     <use xlink:href="#DejaVuSans-2e" transform="translate(367.871094 0)"/>
     <use xlink:href="#DejaVuSans-35" transform="translate(399.658203 0)"/>
     <use xlink:href="#DejaVuSans-b0" transform="translate(463.28125 0)"/>
     <use xlink:href="#DejaVuSans-43" transform="translate(513.28125 0)"/>
     <use xlink:href="#DejaVuSans-20" transform="translate(583.105469 0)"/>
     <use xlink:href="#DejaVuSans-73" transform="translate(614.892578 0)"/>
     <use xlink:href="#DejaVuSans-63" transform="translate(666.992188 0)"/>
     <use xlink:href="#DejaVuSans-65" transform="translate(721.972656 0)"/>
     <use xlink:href="#DejaVuSans-6e" transform="translate(783.496094 0)"/>
     <use xlink:href="#DejaVuSans-61" transform="translate(846.875 0)"/>
     <use xlink:href="#DejaVuSans-72" transform="translate(908.154297 0)"/>
     <use xlink:href="#DejaVuSans-69" transform="translate(949.267578 0)"/>
     <use xlink:href="#DejaVuSans-6f" transform="translate(977.050781 0)"/>
     <use xlink:href="#DejaVuSans-3a" transform="translate(1038.232422 0)"/>
     <use xlink:href="#DejaVuSans-20" transform="translate(1071.923828 0)"/>
     <use xlink:href="#DejaVuSans-31" transform="translate(1103.710938 0)"/>
     <use xlink:href="#DejaVuSans-2e" transform="translate(1167.333984 0)"/>
     <use xlink:href="#DejaVuSans-39" transform="translate(1199.121094 0)"/>
     <use xlink:href="#DejaVuSans-37" transform="translate(1262.744141 0)"/>
     <use xlink:href="#DejaVuSans-65" transform="translate(1326.367188 0)"/>
     <use xlink:href="#DejaVuSans-2b" transform="translate(1387.890625 0)"/>
     <use xlink:href="#DejaVuSans-31" transform="translate(1471.679688 0)"/>
     <use xlink:href="#DejaVuSans-30" transform="translate(1535.302734 0)"/>
    </g>
   </g>
   <g id="patch_8">
    <path d="M 94.11625 461.306719 
L 112.11625 461.306719 
L 112.11625 455.006719 
L 94.11625 455.006719 
z
" style="fill: #57ab27; fill-opacity: 0.4; stroke: #57ab27; stroke-linejoin: miter"/>
   </g>
   <g id="text_19">
    <!-- 1.5°C scenario -->
    <g transform="translate(119.31625 461.306719) scale(0.09 -0.09)">
     <use xlink:href="#DejaVuSans-31"/>
     <use xlink:href="#DejaVuSans-2e" transform="translate(63.623047 0)"/>
     <use xlink:href="#DejaVuSans-35" transform="translate(95.410156 0)"/>
     <use xlink:href="#DejaVuSans-b0" transform="translate(159.033203 0)"/>
     <use xlink:href="#DejaVuSans-43" transform="translate(209.033203 0)"/>
     <use xlink:href="#DejaVuSans-20" transform="translate(278.857422 0)"/>
     <use xlink:href="#DejaVuSans-73" transform="translate(310.644531 0)"/>
     <use xlink:href="#DejaVuSans-63" transform="translate(362.744141 0)"/>
     <use xlink:href="#DejaVuSans-65" transform="translate(417.724609 0)"/>
     <use xlink:href="#DejaVuSans-6e" transform="translate(479.248047 0)"/>
     <use xlink:href="#DejaVuSans-61" transform="translate(542.626953 0)"/>
     <use xlink:href="#DejaVuSans-72" transform="translate(603.90625 0)"/>
     <use xlink:href="#DejaVuSans-69" transform="translate(645.019531 0)"/>
     <use xlink:href="#DejaVuSans-6f" transform="translate(672.802734 0)"/>
    </g>
   </g>
   <g id="line2d_31">
    <path d="M 281.220625 444.946406 
L 290.220625 444.946406 
L 299.220625 444.946406 
" style="fill: none; stroke-dasharray: 5.55,2.4; stroke-dashoffset: 0; stroke: #f6a800; stroke-width: 1.5"/>
   </g>
   <g id="text_20">
    <!-- Mean 2°C scenario: 2.09e+10 -->
    <g transform="translate(306.420625 448.096406) scale(0.09 -0.09)">
     <use xlink:href="#DejaVuSans-4d"/>
     <use xlink:href="#DejaVuSans-65" transform="translate(86.279297 0)"/>
     <use xlink:href="#DejaVuSans-61" transform="translate(147.802734 0)"/>
     <use xlink:href="#DejaVuSans-6e" transform="translate(209.082031 0)"/>
     <use xlink:href="#DejaVuSans-20" transform="translate(272.460938 0)"/>
     <use xlink:href="#DejaVuSans-32" transform="translate(304.248047 0)"/>
     <use xlink:href="#DejaVuSans-b0" transform="translate(367.871094 0)"/>
     <use xlink:href="#DejaVuSans-43" transform="translate(417.871094 0)"/>
     <use xlink:href="#DejaVuSans-20" transform="translate(487.695312 0)"/>
     <use xlink:href="#DejaVuSans-73" transform="translate(519.482422 0)"/>
     <use xlink:href="#DejaVuSans-63" transform="translate(571.582031 0)"/>
     <use xlink:href="#DejaVuSans-65" transform="translate(626.5625 0)"/>
     <use xlink:href="#DejaVuSans-6e" transform="translate(688.085938 0)"/>
     <use xlink:href="#DejaVuSans-61" transform="translate(751.464844 0)"/>
     <use xlink:href="#DejaVuSans-72" transform="translate(812.744141 0)"/>
     <use xlink:href="#DejaVuSans-69" transform="translate(853.857422 0)"/>
     <use xlink:href="#DejaVuSans-6f" transform="translate(881.640625 0)"/>
     <use xlink:href="#DejaVuSans-3a" transform="translate(942.822266 0)"/>
     <use xlink:href="#DejaVuSans-20" transform="translate(976.513672 0)"/>
     <use xlink:href="#DejaVuSans-32" transform="translate(1008.300781 0)"/>
     <use xlink:href="#DejaVuSans-2e" transform="translate(1071.923828 0)"/>
     <use xlink:href="#DejaVuSans-30" transform="translate(1103.710938 0)"/>
     <use xlink:href="#DejaVuSans-39" transform="translate(1167.333984 0)"/>
     <use xlink:href="#DejaVuSans-65" transform="translate(1230.957031 0)"/>
     <use xlink:href="#DejaVuSans-2b" transform="translate(1292.480469 0)"/>
     <use xlink:href="#DejaVuSans-31" transform="translate(1376.269531 0)"/>
     <use xlink:href="#DejaVuSans-30" transform="translate(1439.892578 0)"/>
    </g>
   </g>
   <g id="patch_9">
    <path d="M 281.220625 461.306719 
L 299.220625 461.306719 
L 299.220625 455.006719 
L 281.220625 455.006719 
z
" style="fill: #f6a800; fill-opacity: 0.4; stroke: #f6a800; stroke-linejoin: miter"/>
   </g>
   <g id="text_21">
    <!-- 2°C scenario -->
    <g transform="translate(306.420625 461.306719) scale(0.09 -0.09)">
     <use xlink:href="#DejaVuSans-32"/>
     <use xlink:href="#DejaVuSans-b0" transform="translate(63.623047 0)"/>
     <use xlink:href="#DejaVuSans-43" transform="translate(113.623047 0)"/>
     <use xlink:href="#DejaVuSans-20" transform="translate(183.447266 0)"/>
     <use xlink:href="#DejaVuSans-73" transform="translate(215.234375 0)"/>
     <use xlink:href="#DejaVuSans-63" transform="translate(267.333984 0)"/>
     <use xlink:href="#DejaVuSans-65" transform="translate(322.314453 0)"/>
     <use xlink:href="#DejaVuSans-6e" transform="translate(383.837891 0)"/>
     <use xlink:href="#DejaVuSans-61" transform="translate(447.216797 0)"/>
     <use xlink:href="#DejaVuSans-72" transform="translate(508.496094 0)"/>
     <use xlink:href="#DejaVuSans-69" transform="translate(549.609375 0)"/>
     <use xlink:href="#DejaVuSans-6f" transform="translate(577.392578 0)"/>
    </g>
   </g>
   <g id="line2d_32">
    <path d="M 459.738437 444.946406 
L 468.738437 444.946406 
L 477.738437 444.946406 
" style="fill: none; stroke-dasharray: 5.55,2.4; stroke-dashoffset: 0; stroke: #00549f; stroke-width: 1.5"/>
   </g>
   <g id="text_22">
    <!-- Mean 3°C scenario: 2.27e+10 -->
    <g transform="translate(484.938437 448.096406) scale(0.09 -0.09)">
     <use xlink:href="#DejaVuSans-4d"/>
     <use xlink:href="#DejaVuSans-65" transform="translate(86.279297 0)"/>
     <use xlink:href="#DejaVuSans-61" transform="translate(147.802734 0)"/>
     <use xlink:href="#DejaVuSans-6e" transform="translate(209.082031 0)"/>
     <use xlink:href="#DejaVuSans-20" transform="translate(272.460938 0)"/>
     <use xlink:href="#DejaVuSans-33" transform="translate(304.248047 0)"/>
     <use xlink:href="#DejaVuSans-b0" transform="translate(367.871094 0)"/>
     <use xlink:href="#DejaVuSans-43" transform="translate(417.871094 0)"/>
     <use xlink:href="#DejaVuSans-20" transform="translate(487.695312 0)"/>
     <use xlink:href="#DejaVuSans-73" transform="translate(519.482422 0)"/>
     <use xlink:href="#DejaVuSans-63" transform="translate(571.582031 0)"/>
     <use xlink:href="#DejaVuSans-65" transform="translate(626.5625 0)"/>
     <use xlink:href="#DejaVuSans-6e" transform="translate(688.085938 0)"/>
     <use xlink:href="#DejaVuSans-61" transform="translate(751.464844 0)"/>
     <use xlink:href="#DejaVuSans-72" transform="translate(812.744141 0)"/>
     <use xlink:href="#DejaVuSans-69" transform="translate(853.857422 0)"/>
     <use xlink:href="#DejaVuSans-6f" transform="translate(881.640625 0)"/>
     <use xlink:href="#DejaVuSans-3a" transform="translate(942.822266 0)"/>
     <use xlink:href="#DejaVuSans-20" transform="translate(976.513672 0)"/>
     <use xlink:href="#DejaVuSans-32" transform="translate(1008.300781 0)"/>
     <use xlink:href="#DejaVuSans-2e" transform="translate(1071.923828 0)"/>
     <use xlink:href="#DejaVuSans-32" transform="translate(1103.710938 0)"/>
     <use xlink:href="#DejaVuSans-37" transform="translate(1167.333984 0)"/>
     <use xlink:href="#DejaVuSans-65" transform="translate(1230.957031 0)"/>
     <use xlink:href="#DejaVuSans-2b" transform="translate(1292.480469 0)"/>
     <use xlink:href="#DejaVuSans-31" transform="translate(1376.269531 0)"/>
     <use xlink:href="#DejaVuSans-30" transform="translate(1439.892578 0)"/>
    </g>
   </g>
   <g id="patch_10">
    <path d="M 459.738437 461.306719 
L 477.738437 461.306719 
L 477.738437 455.006719 
L 459.738437 455.006719 
z
" style="fill: #00549f; fill-opacity: 0.4; stroke: #00549f; stroke-linejoin: miter"/>
   </g>
   <g id="text_23">
    <!-- 3°C scenario -->
    <g transform="translate(484.938437 461.306719) scale(0.09 -0.09)">
     <use xlink:href="#DejaVuSans-33"/>
     <use xlink:href="#DejaVuSans-b0" transform="translate(63.623047 0)"/>
     <use xlink:href="#DejaVuSans-43" transform="translate(113.623047 0)"/>
     <use xlink:href="#DejaVuSans-20" transform="translate(183.447266 0)"/>
     <use xlink:href="#DejaVuSans-73" transform="translate(215.234375 0)"/>
     <use xlink:href="#DejaVuSans-63" transform="translate(267.333984 0)"/>
     <use xlink:href="#DejaVuSans-65" transform="translate(322.314453 0)"/>
     <use xlink:href="#DejaVuSans-6e" transform="translate(383.837891 0)"/>
     <use xlink:href="#DejaVuSans-61" transform="translate(447.216797 0)"/>
     <use xlink:href="#DejaVuSans-72" transform="translate(508.496094 0)"/>
     <use xlink:href="#DejaVuSans-69" transform="translate(549.609375 0)"/>
     <use xlink:href="#DejaVuSans-6f" transform="translate(577.392578 0)"/>
    </g>
   </g>
  </g>
 </g>
 <defs>
  <clipPath id="p1ed0d176e0">
   <rect x="36.17625" y="17.798437" width="670.21" height="367.6"/>
  </clipPath>
 </defs>
</svg>
