<?xml version="1.0" encoding="utf-8" standalone="no"?>
<!DOCTYPE svg PUBLIC "-//W3C//DTD SVG 1.1//EN"
  "http://www.w3.org/Graphics/SVG/1.1/DTD/svg11.dtd">
<svg xmlns:xlink="http://www.w3.org/1999/xlink" width="568.563437pt" height="352.244063pt" viewBox="0 0 568.563437 352.244063" xmlns="http://www.w3.org/2000/svg" version="1.1">
 <metadata>
  <rdf:RDF xmlns:dc="http://purl.org/dc/elements/1.1/" xmlns:cc="http://creativecommons.org/ns#" xmlns:rdf="http://www.w3.org/1999/02/22-rdf-syntax-ns#">
   <cc:Work>
    <dc:type rdf:resource="http://purl.org/dc/dcmitype/StillImage"/>
    <dc:date>2026-01-19T10:04:31.362789</dc:date>
    <dc:format>image/svg+xml</dc:format>
    <dc:creator>
     <cc:Agent>
      <dc:title>Matplotlib v3.10.5, https://matplotlib.org/</dc:title>
     </cc:Agent>
    </dc:creator>
   </cc:Work>
  </rdf:RDF>
 </metadata>
 <defs>
  <style type="text/css">*{stroke-linejoin: round; stroke-linecap: butt}</style>
 </defs>
 <g id="figure_1">
  <g id="patch_1">
   <path d="M 0 352.244063 
L 568.563437 352.244063 
L 568.563437 0 
L 0 0 
z
" style="fill: #ffffff"/>
  </g>
  <g id="axes_1">
   <g id="patch_2">
    <path d="M 41.570938 313.72 
L 555.000937 313.72 
L 555.000937 7.2 
L 41.570938 7.2 
z
" style="fill: #ffffff"/>
   </g>
   <g id="matplotlib.axis_1">
    <g id="xtick_1">
     <g id="line2d_1">
      <path d="M 41.570938 313.72 
L 41.570938 7.2 
" clip-path="url(#p9d2e72b122)" style="fill: none; stroke: #b0b0b0; stroke-opacity: 0.3; stroke-width: 0.8; stroke-linecap: square"/>
     </g>
     <g id="line2d_2">
      <defs>
       <path id="m97cda9a92f" d="M 0 0 
L 0 3.5 
" style="stroke: #000000; stroke-width: 0.8"/>
      </defs>
      <g>
       <use xlink:href="#m97cda9a92f" x="41.570938" y="313.72" style="stroke: #000000; stroke-width: 0.8"/>
      </g>
     </g>
     <g id="text_1">
      <!-- 15 -->
      <g transform="translate(35.208438 328.318438) scale(0.1 -0.1)">
       <defs>
        <path id="DejaVuSans-31" d="M 794 531 
L 1825 531 
L 1825 4091 
L 703 3866 
L 703 4441 
L 1819 4666 
L 2450 4666 
L 2450 531 
L 3481 531 
L 3481 0 
L 794 0 
L 794 531 
z
" transform="scale(0.015625)"/>
        <path id="DejaVuSans-35" d="M 691 4666 
L 3169 4666 
L 3169 4134 
L 1269 4134 
L 1269 2991 
Q 1406 3038 1543 3061 
Q 1681 3084 1819 3084 
Q 2600 3084 3056 2656 
Q 3513 2228 3513 1497 
Q 3513 744 3044 326 
Q 2575 -91 1722 -91 
Q 1428 -91 1123 -41 
Q 819 9 494 109 
L 494 744 
Q 775 591 1075 516 
Q 1375 441 1709 441 
Q 2250 441 2565 725 
Q 2881 1009 2881 1497 
Q 2881 1984 2565 2268 
Q 2250 2553 1709 2553 
Q 1456 2553 1204 2497 
Q 953 2441 691 2322 
L 691 4666 
z
" transform="scale(0.015625)"/>
       </defs>
       <use xlink:href="#DejaVuSans-31"/>
       <use xlink:href="#DejaVuSans-35" transform="translate(63.623047 0)"/>
      </g>
     </g>
    </g>
    <g id="xtick_2">
     <g id="line2d_3">
      <path d="M 114.91808 313.72 
L 114.91808 7.2 
" clip-path="url(#p9d2e72b122)" style="fill: none; stroke: #b0b0b0; stroke-opacity: 0.3; stroke-width: 0.8; stroke-linecap: square"/>
     </g>
     <g id="line2d_4">
      <g>
       <use xlink:href="#m97cda9a92f" x="114.91808" y="313.72" style="stroke: #000000; stroke-width: 0.8"/>
      </g>
     </g>
     <g id="text_2">
      <!-- 20 -->
      <g transform="translate(108.55558 328.318438) scale(0.1 -0.1)">
       <defs>
        <path id="DejaVuSans-32" d="M 1228 531 
L 3431 531 
L 3431 0 
L 469 0 
L 469 531 
Q 828 903 1448 1529 
Q 2069 2156 2228 2338 
Q 2531 2678 2651 2914 
Q 2772 3150 2772 3378 
Q 2772 3750 2511 3984 
Q 2250 4219 1831 4219 
Q 1534 4219 1204 4116 
Q 875 4013 500 3803 
L 500 4441 
Q 881 4594 1212 4672 
Q 1544 4750 1819 4750 
Q 2544 4750 2975 4387 
Q 3406 4025 3406 3419 
Q 3406 3131 3298 2873 
Q 3191 2616 2906 2266 
Q 2828 2175 2409 1742 
Q 1991 1309 1228 531 
z
" transform="scale(0.015625)"/>
        <path id="DejaVuSans-30" d="M 2034 4250 
Q 1547 4250 1301 3770 
Q 1056 3291 1056 2328 
Q 1056 1369 1301 889 
Q 1547 409 2034 409 
Q 2525 409 2770 889 
Q 3016 1369 3016 2328 
Q 3016 3291 2770 3770 
Q 2525 4250 2034 4250 
z
M 2034 4750 
Q 2819 4750 3233 4129 
Q 3647 3509 3647 2328 
Q 3647 1150 3233 529 
Q 2819 -91 2034 -91 
Q 1250 -91 836 529 
Q 422 1150 422 2328 
Q 422 3509 836 4129 
Q 1250 4750 2034 4750 
z
" transform="scale(0.015625)"/>
       </defs>
       <use xlink:href="#DejaVuSans-32"/>
       <use xlink:href="#DejaVuSans-30" transform="translate(63.623047 0)"/>
      </g>
     </g>
    </g>
    <g id="xtick_3">
     <g id="line2d_5">
      <path d="M 188.265223 313.72 
L 188.265223 7.2 
" clip-path="url(#p9d2e72b122)" style="fill: none; stroke: #b0b0b0; stroke-opacity: 0.3; stroke-width: 0.8; stroke-linecap: square"/>
     </g>
     <g id="line2d_6">
      <g>
       <use xlink:href="#m97cda9a92f" x="188.265223" y="313.72" style="stroke: #000000; stroke-width: 0.8"/>
      </g>
     </g>
     <g id="text_3">
      <!-- 25 -->
      <g transform="translate(181.902723 328.318438) scale(0.1 -0.1)">
       <use xlink:href="#DejaVuSans-32"/>
       <use xlink:href="#DejaVuSans-35" transform="translate(63.623047 0)"/>
      </g>
     </g>
    </g>
    <g id="xtick_4">
     <g id="line2d_7">
      <path d="M 261.612366 313.72 
L 261.612366 7.2 
" clip-path="url(#p9d2e72b122)" style="fill: none; stroke: #b0b0b0; stroke-opacity: 0.3; stroke-width: 0.8; stroke-linecap: square"/>
     </g>
     <g id="line2d_8">
      <g>
       <use xlink:href="#m97cda9a92f" x="261.612366" y="313.72" style="stroke: #000000; stroke-width: 0.8"/>
      </g>
     </g>
     <g id="text_4">
      <!-- 30 -->
      <g transform="translate(255.249866 328.318438) scale(0.1 -0.1)">
       <defs>
        <path id="DejaVuSans-33" d="M 2597 2516 
Q 3050 2419 3304 2112 
Q 3559 1806 3559 1356 
Q 3559 666 3084 287 
Q 2609 -91 1734 -91 
Q 1441 -91 1130 -33 
Q 819 25 488 141 
L 488 750 
Q 750 597 1062 519 
Q 1375 441 1716 441 
Q 2309 441 2620 675 
Q 2931 909 2931 1356 
Q 2931 1769 2642 2001 
Q 2353 2234 1838 2234 
L 1294 2234 
L 1294 2753 
L 1863 2753 
Q 2328 2753 2575 2939 
Q 2822 3125 2822 3475 
Q 2822 3834 2567 4026 
Q 2313 4219 1838 4219 
Q 1578 4219 1281 4162 
Q 984 4106 628 3988 
L 628 4550 
Q 988 4650 1302 4700 
Q 1616 4750 1894 4750 
Q 2613 4750 3031 4423 
Q 3450 4097 3450 3541 
Q 3450 3153 3228 2886 
Q 3006 2619 2597 2516 
z
" transform="scale(0.015625)"/>
       </defs>
       <use xlink:href="#DejaVuSans-33"/>
       <use xlink:href="#DejaVuSans-30" transform="translate(63.623047 0)"/>
      </g>
     </g>
    </g>
    <g id="xtick_5">
     <g id="line2d_9">
      <path d="M 334.959509 313.72 
L 334.959509 7.2 
" clip-path="url(#p9d2e72b122)" style="fill: none; stroke: #b0b0b0; stroke-opacity: 0.3; stroke-width: 0.8; stroke-linecap: square"/>
     </g>
     <g id="line2d_10">
      <g>
       <use xlink:href="#m97cda9a92f" x="334.959509" y="313.72" style="stroke: #000000; stroke-width: 0.8"/>
      </g>
     </g>
     <g id="text_5">
      <!-- 35 -->
      <g transform="translate(328.597009 328.318438) scale(0.1 -0.1)">
       <use xlink:href="#DejaVuSans-33"/>
       <use xlink:href="#DejaVuSans-35" transform="translate(63.623047 0)"/>
      </g>
     </g>
    </g>
    <g id="xtick_6">
     <g id="line2d_11">
      <path d="M 408.306652 313.72 
L 408.306652 7.2 
" clip-path="url(#p9d2e72b122)" style="fill: none; stroke: #b0b0b0; stroke-opacity: 0.3; stroke-width: 0.8; stroke-linecap: square"/>
     </g>
     <g id="line2d_12">
      <g>
       <use xlink:href="#m97cda9a92f" x="408.306652" y="313.72" style="stroke: #000000; stroke-width: 0.8"/>
      </g>
     </g>
     <g id="text_6">
      <!-- 40 -->
      <g transform="translate(401.944152 328.318438) scale(0.1 -0.1)">
       <defs>
        <path id="DejaVuSans-34" d="M 2419 4116 
L 825 1625 
L 2419 1625 
L 2419 4116 
z
M 2253 4666 
L 3047 4666 
L 3047 1625 
L 3713 1625 
L 3713 1100 
L 3047 1100 
L 3047 0 
L 2419 0 
L 2419 1100 
L 313 1100 
L 313 1709 
L 2253 4666 
z
" transform="scale(0.015625)"/>
       </defs>
       <use xlink:href="#DejaVuSans-34"/>
       <use xlink:href="#DejaVuSans-30" transform="translate(63.623047 0)"/>
      </g>
     </g>
    </g>
    <g id="xtick_7">
     <g id="line2d_13">
      <path d="M 481.653795 313.72 
L 481.653795 7.2 
" clip-path="url(#p9d2e72b122)" style="fill: none; stroke: #b0b0b0; stroke-opacity: 0.3; stroke-width: 0.8; stroke-linecap: square"/>
     </g>
     <g id="line2d_14">
      <g>
       <use xlink:href="#m97cda9a92f" x="481.653795" y="313.72" style="stroke: #000000; stroke-width: 0.8"/>
      </g>
     </g>
     <g id="text_7">
      <!-- 45 -->
      <g transform="translate(475.291295 328.318438) scale(0.1 -0.1)">
       <use xlink:href="#DejaVuSans-34"/>
       <use xlink:href="#DejaVuSans-35" transform="translate(63.623047 0)"/>
      </g>
     </g>
    </g>
    <g id="xtick_8">
     <g id="line2d_15">
      <path d="M 555.000937 313.72 
L 555.000937 7.2 
" clip-path="url(#p9d2e72b122)" style="fill: none; stroke: #b0b0b0; stroke-opacity: 0.3; stroke-width: 0.8; stroke-linecap: square"/>
     </g>
     <g id="line2d_16">
      <g>
       <use xlink:href="#m97cda9a92f" x="555.000937" y="313.72" style="stroke: #000000; stroke-width: 0.8"/>
      </g>
     </g>
     <g id="text_8">
      <!-- 50 -->
      <g transform="translate(548.638438 328.318438) scale(0.1 -0.1)">
       <use xlink:href="#DejaVuSans-35"/>
       <use xlink:href="#DejaVuSans-30" transform="translate(63.623047 0)"/>
      </g>
     </g>
    </g>
    <g id="text_9">
     <!-- Lifetime (years) -->
     <g transform="translate(254.771484 342.756406) scale(0.11 -0.11)">
      <defs>
       <path id="DejaVuSans-4c" d="M 628 4666 
L 1259 4666 
L 1259 531 
L 3531 531 
L 3531 0 
L 628 0 
L 628 4666 
z
" transform="scale(0.015625)"/>
       <path id="DejaVuSans-69" d="M 603 3500 
L 1178 3500 
L 1178 0 
L 603 0 
L 603 3500 
z
M 603 4863 
L 1178 4863 
L 1178 4134 
L 603 4134 
L 603 4863 
z
" transform="scale(0.015625)"/>
       <path id="DejaVuSans-66" d="M 2375 4863 
L 2375 4384 
L 1825 4384 
Q 1516 4384 1395 4259 
Q 1275 4134 1275 3809 
L 1275 3500 
L 2222 3500 
L 2222 3053 
L 1275 3053 
L 1275 0 
L 697 0 
L 697 3053 
L 147 3053 
L 147 3500 
L 697 3500 
L 697 3744 
Q 697 4328 969 4595 
Q 1241 4863 1831 4863 
L 2375 4863 
z
" transform="scale(0.015625)"/>
       <path id="DejaVuSans-65" d="M 3597 1894 
L 3597 1613 
L 953 1613 
Q 991 1019 1311 708 
Q 1631 397 2203 397 
Q 2534 397 2845 478 
Q 3156 559 3463 722 
L 3463 178 
Q 3153 47 2828 -22 
Q 2503 -91 2169 -91 
Q 1331 -91 842 396 
Q 353 884 353 1716 
Q 353 2575 817 3079 
Q 1281 3584 2069 3584 
Q 2775 3584 3186 3129 
Q 3597 2675 3597 1894 
z
M 3022 2063 
Q 3016 2534 2758 2815 
Q 2500 3097 2075 3097 
Q 1594 3097 1305 2825 
Q 1016 2553 972 2059 
L 3022 2063 
z
" transform="scale(0.015625)"/>
       <path id="DejaVuSans-74" d="M 1172 4494 
L 1172 3500 
L 2356 3500 
L 2356 3053 
L 1172 3053 
L 1172 1153 
Q 1172 725 1289 603 
Q 1406 481 1766 481 
L 2356 481 
L 2356 0 
L 1766 0 
Q 1100 0 847 248 
Q 594 497 594 1153 
L 594 3053 
L 172 3053 
L 172 3500 
L 594 3500 
L 594 4494 
L 1172 4494 
z
" transform="scale(0.015625)"/>
       <path id="DejaVuSans-6d" d="M 3328 2828 
Q 3544 3216 3844 3400 
Q 4144 3584 4550 3584 
Q 5097 3584 5394 3201 
Q 5691 2819 5691 2113 
L 5691 0 
L 5113 0 
L 5113 2094 
Q 5113 2597 4934 2840 
Q 4756 3084 4391 3084 
Q 3944 3084 3684 2787 
Q 3425 2491 3425 1978 
L 3425 0 
L 2847 0 
L 2847 2094 
Q 2847 2600 2669 2842 
Q 2491 3084 2119 3084 
Q 1678 3084 1418 2786 
Q 1159 2488 1159 1978 
L 1159 0 
L 581 0 
L 581 3500 
L 1159 3500 
L 1159 2956 
Q 1356 3278 1631 3431 
Q 1906 3584 2284 3584 
Q 2666 3584 2933 3390 
Q 3200 3197 3328 2828 
z
" transform="scale(0.015625)"/>
       <path id="DejaVuSans-20" transform="scale(0.015625)"/>
       <path id="DejaVuSans-28" d="M 1984 4856 
Q 1566 4138 1362 3434 
Q 1159 2731 1159 2009 
Q 1159 1288 1364 580 
Q 1569 -128 1984 -844 
L 1484 -844 
Q 1016 -109 783 600 
Q 550 1309 550 2009 
Q 550 2706 781 3412 
Q 1013 4119 1484 4856 
L 1984 4856 
z
" transform="scale(0.015625)"/>
       <path id="DejaVuSans-79" d="M 2059 -325 
Q 1816 -950 1584 -1140 
Q 1353 -1331 966 -1331 
L 506 -1331 
L 506 -850 
L 844 -850 
Q 1081 -850 1212 -737 
Q 1344 -625 1503 -206 
L 1606 56 
L 191 3500 
L 800 3500 
L 1894 763 
L 2988 3500 
L 3597 3500 
L 2059 -325 
z
" transform="scale(0.015625)"/>
       <path id="DejaVuSans-61" d="M 2194 1759 
Q 1497 1759 1228 1600 
Q 959 1441 959 1056 
Q 959 750 1161 570 
Q 1363 391 1709 391 
Q 2188 391 2477 730 
Q 2766 1069 2766 1631 
L 2766 1759 
L 2194 1759 
z
M 3341 1997 
L 3341 0 
L 2766 0 
L 2766 531 
Q 2569 213 2275 61 
Q 1981 -91 1556 -91 
Q 1019 -91 701 211 
Q 384 513 384 1019 
Q 384 1609 779 1909 
Q 1175 2209 1959 2209 
L 2766 2209 
L 2766 2266 
Q 2766 2663 2505 2880 
Q 2244 3097 1772 3097 
Q 1472 3097 1187 3025 
Q 903 2953 641 2809 
L 641 3341 
Q 956 3463 1253 3523 
Q 1550 3584 1831 3584 
Q 2591 3584 2966 3190 
Q 3341 2797 3341 1997 
z
" transform="scale(0.015625)"/>
       <path id="DejaVuSans-72" d="M 2631 2963 
Q 2534 3019 2420 3045 
Q 2306 3072 2169 3072 
Q 1681 3072 1420 2755 
Q 1159 2438 1159 1844 
L 1159 0 
L 581 0 
L 581 3500 
L 1159 3500 
L 1159 2956 
Q 1341 3275 1631 3429 
Q 1922 3584 2338 3584 
Q 2397 3584 2469 3576 
Q 2541 3569 2628 3553 
L 2631 2963 
z
" transform="scale(0.015625)"/>
       <path id="DejaVuSans-73" d="M 2834 3397 
L 2834 2853 
Q 2591 2978 2328 3040 
Q 2066 3103 1784 3103 
Q 1356 3103 1142 2972 
Q 928 2841 928 2578 
Q 928 2378 1081 2264 
Q 1234 2150 1697 2047 
L 1894 2003 
Q 2506 1872 2764 1633 
Q 3022 1394 3022 966 
Q 3022 478 2636 193 
Q 2250 -91 1575 -91 
Q 1294 -91 989 -36 
Q 684 19 347 128 
L 347 722 
Q 666 556 975 473 
Q 1284 391 1588 391 
Q 1994 391 2212 530 
Q 2431 669 2431 922 
Q 2431 1156 2273 1281 
Q 2116 1406 1581 1522 
L 1381 1569 
Q 847 1681 609 1914 
Q 372 2147 372 2553 
Q 372 3047 722 3315 
Q 1072 3584 1716 3584 
Q 2034 3584 2315 3537 
Q 2597 3491 2834 3397 
z
" transform="scale(0.015625)"/>
       <path id="DejaVuSans-29" d="M 513 4856 
L 1013 4856 
Q 1481 4119 1714 3412 
Q 1947 2706 1947 2009 
Q 1947 1309 1714 600 
Q 1481 -109 1013 -844 
L 513 -844 
Q 928 -128 1133 580 
Q 1338 1288 1338 2009 
Q 1338 2731 1133 3434 
Q 928 4138 513 4856 
z
" transform="scale(0.015625)"/>
      </defs>
      <use xlink:href="#DejaVuSans-4c"/>
      <use xlink:href="#DejaVuSans-69" transform="translate(55.712891 0)"/>
      <use xlink:href="#DejaVuSans-66" transform="translate(83.496094 0)"/>
      <use xlink:href="#DejaVuSans-65" transform="translate(118.701172 0)"/>
      <use xlink:href="#DejaVuSans-74" transform="translate(180.224609 0)"/>
      <use xlink:href="#DejaVuSans-69" transform="translate(219.433594 0)"/>
      <use xlink:href="#DejaVuSans-6d" transform="translate(247.216797 0)"/>
      <use xlink:href="#DejaVuSans-65" transform="translate(344.628906 0)"/>
      <use xlink:href="#DejaVuSans-20" transform="translate(406.152344 0)"/>
      <use xlink:href="#DejaVuSans-28" transform="translate(437.939453 0)"/>
      <use xlink:href="#DejaVuSans-79" transform="translate(476.953125 0)"/>
      <use xlink:href="#DejaVuSans-65" transform="translate(536.132812 0)"/>
      <use xlink:href="#DejaVuSans-61" transform="translate(597.65625 0)"/>
      <use xlink:href="#DejaVuSans-72" transform="translate(658.935547 0)"/>
      <use xlink:href="#DejaVuSans-73" transform="translate(700.048828 0)"/>
      <use xlink:href="#DejaVuSans-29" transform="translate(752.148438 0)"/>
     </g>
    </g>
   </g>
   <g id="matplotlib.axis_2">
    <g id="ytick_1">
     <g id="line2d_17">
      <path d="M 41.570938 305.464718 
L 555.000937 305.464718 
" clip-path="url(#p9d2e72b122)" style="fill: none; stroke: #b0b0b0; stroke-opacity: 0.3; stroke-width: 0.8; stroke-linecap: square"/>
     </g>
     <g id="line2d_18">
      <defs>
       <path id="mb0ca381c9d" d="M 0 0 
L -3.5 0 
" style="stroke: #000000; stroke-width: 0.8"/>
      </defs>
      <g>
       <use xlink:href="#mb0ca381c9d" x="41.570938" y="305.464718" style="stroke: #000000; stroke-width: 0.8"/>
      </g>
     </g>
     <g id="text_10">
      <!-- 0 -->
      <g transform="translate(28.208438 309.263936) scale(0.1 -0.1)">
       <use xlink:href="#DejaVuSans-30"/>
      </g>
     </g>
    </g>
    <g id="ytick_2">
     <g id="line2d_19">
      <path d="M 41.570938 264.942592 
L 555.000937 264.942592 
" clip-path="url(#p9d2e72b122)" style="fill: none; stroke: #b0b0b0; stroke-opacity: 0.3; stroke-width: 0.8; stroke-linecap: square"/>
     </g>
     <g id="line2d_20">
      <g>
       <use xlink:href="#mb0ca381c9d" x="41.570938" y="264.942592" style="stroke: #000000; stroke-width: 0.8"/>
      </g>
     </g>
     <g id="text_11">
      <!-- 5 -->
      <g transform="translate(28.208438 268.741811) scale(0.1 -0.1)">
       <use xlink:href="#DejaVuSans-35"/>
      </g>
     </g>
    </g>
    <g id="ytick_3">
     <g id="line2d_21">
      <path d="M 41.570938 224.420467 
L 555.000937 224.420467 
" clip-path="url(#p9d2e72b122)" style="fill: none; stroke: #b0b0b0; stroke-opacity: 0.3; stroke-width: 0.8; stroke-linecap: square"/>
     </g>
     <g id="line2d_22">
      <g>
       <use xlink:href="#mb0ca381c9d" x="41.570938" y="224.420467" style="stroke: #000000; stroke-width: 0.8"/>
      </g>
     </g>
     <g id="text_12">
      <!-- 10 -->
      <g transform="translate(21.845938 228.219686) scale(0.1 -0.1)">
       <use xlink:href="#DejaVuSans-31"/>
       <use xlink:href="#DejaVuSans-30" transform="translate(63.623047 0)"/>
      </g>
     </g>
    </g>
    <g id="ytick_4">
     <g id="line2d_23">
      <path d="M 41.570938 183.898342 
L 555.000937 183.898342 
" clip-path="url(#p9d2e72b122)" style="fill: none; stroke: #b0b0b0; stroke-opacity: 0.3; stroke-width: 0.8; stroke-linecap: square"/>
     </g>
     <g id="line2d_24">
      <g>
       <use xlink:href="#mb0ca381c9d" x="41.570938" y="183.898342" style="stroke: #000000; stroke-width: 0.8"/>
      </g>
     </g>
     <g id="text_13">
      <!-- 15 -->
      <g transform="translate(21.845938 187.697561) scale(0.1 -0.1)">
       <use xlink:href="#DejaVuSans-31"/>
       <use xlink:href="#DejaVuSans-35" transform="translate(63.623047 0)"/>
      </g>
     </g>
    </g>
    <g id="ytick_5">
     <g id="line2d_25">
      <path d="M 41.570938 143.376217 
L 555.000937 143.376217 
" clip-path="url(#p9d2e72b122)" style="fill: none; stroke: #b0b0b0; stroke-opacity: 0.3; stroke-width: 0.8; stroke-linecap: square"/>
     </g>
     <g id="line2d_26">
      <g>
       <use xlink:href="#mb0ca381c9d" x="41.570938" y="143.376217" style="stroke: #000000; stroke-width: 0.8"/>
      </g>
     </g>
     <g id="text_14">
      <!-- 20 -->
      <g transform="translate(21.845938 147.175436) scale(0.1 -0.1)">
       <use xlink:href="#DejaVuSans-32"/>
       <use xlink:href="#DejaVuSans-30" transform="translate(63.623047 0)"/>
      </g>
     </g>
    </g>
    <g id="ytick_6">
     <g id="line2d_27">
      <path d="M 41.570938 102.854092 
L 555.000937 102.854092 
" clip-path="url(#p9d2e72b122)" style="fill: none; stroke: #b0b0b0; stroke-opacity: 0.3; stroke-width: 0.8; stroke-linecap: square"/>
     </g>
     <g id="line2d_28">
      <g>
       <use xlink:href="#mb0ca381c9d" x="41.570938" y="102.854092" style="stroke: #000000; stroke-width: 0.8"/>
      </g>
     </g>
     <g id="text_15">
      <!-- 25 -->
      <g transform="translate(21.845938 106.653311) scale(0.1 -0.1)">
       <use xlink:href="#DejaVuSans-32"/>
       <use xlink:href="#DejaVuSans-35" transform="translate(63.623047 0)"/>
      </g>
     </g>
    </g>
    <g id="ytick_7">
     <g id="line2d_29">
      <path d="M 41.570938 62.331967 
L 555.000937 62.331967 
" clip-path="url(#p9d2e72b122)" style="fill: none; stroke: #b0b0b0; stroke-opacity: 0.3; stroke-width: 0.8; stroke-linecap: square"/>
     </g>
     <g id="line2d_30">
      <g>
       <use xlink:href="#mb0ca381c9d" x="41.570938" y="62.331967" style="stroke: #000000; stroke-width: 0.8"/>
      </g>
     </g>
     <g id="text_16">
      <!-- 30 -->
      <g transform="translate(21.845938 66.131185) scale(0.1 -0.1)">
       <use xlink:href="#DejaVuSans-33"/>
       <use xlink:href="#DejaVuSans-30" transform="translate(63.623047 0)"/>
      </g>
     </g>
    </g>
    <g id="ytick_8">
     <g id="line2d_31">
      <path d="M 41.570938 21.809841 
L 555.000937 21.809841 
" clip-path="url(#p9d2e72b122)" style="fill: none; stroke: #b0b0b0; stroke-opacity: 0.3; stroke-width: 0.8; stroke-linecap: square"/>
     </g>
     <g id="line2d_32">
      <g>
       <use xlink:href="#mb0ca381c9d" x="41.570938" y="21.809841" style="stroke: #000000; stroke-width: 0.8"/>
      </g>
     </g>
     <g id="text_17">
      <!-- 35 -->
      <g transform="translate(21.845938 25.60906) scale(0.1 -0.1)">
       <use xlink:href="#DejaVuSans-33"/>
       <use xlink:href="#DejaVuSans-35" transform="translate(63.623047 0)"/>
      </g>
     </g>
    </g>
    <g id="text_18">
     <!-- Grid share of electricity impact (%) -->
     <g transform="translate(15.558281 256.960938) rotate(-90) scale(0.11 -0.11)">
      <defs>
       <path id="DejaVuSans-47" d="M 3809 666 
L 3809 1919 
L 2778 1919 
L 2778 2438 
L 4434 2438 
L 4434 434 
Q 4069 175 3628 42 
Q 3188 -91 2688 -91 
Q 1594 -91 976 548 
Q 359 1188 359 2328 
Q 359 3472 976 4111 
Q 1594 4750 2688 4750 
Q 3144 4750 3555 4637 
Q 3966 4525 4313 4306 
L 4313 3634 
Q 3963 3931 3569 4081 
Q 3175 4231 2741 4231 
Q 1884 4231 1454 3753 
Q 1025 3275 1025 2328 
Q 1025 1384 1454 906 
Q 1884 428 2741 428 
Q 3075 428 3337 486 
Q 3600 544 3809 666 
z
" transform="scale(0.015625)"/>
       <path id="DejaVuSans-64" d="M 2906 2969 
L 2906 4863 
L 3481 4863 
L 3481 0 
L 2906 0 
L 2906 525 
Q 2725 213 2448 61 
Q 2172 -91 1784 -91 
Q 1150 -91 751 415 
Q 353 922 353 1747 
Q 353 2572 751 3078 
Q 1150 3584 1784 3584 
Q 2172 3584 2448 3432 
Q 2725 3281 2906 2969 
z
M 947 1747 
Q 947 1113 1208 752 
Q 1469 391 1925 391 
Q 2381 391 2643 752 
Q 2906 1113 2906 1747 
Q 2906 2381 2643 2742 
Q 2381 3103 1925 3103 
Q 1469 3103 1208 2742 
Q 947 2381 947 1747 
z
" transform="scale(0.015625)"/>
       <path id="DejaVuSans-68" d="M 3513 2113 
L 3513 0 
L 2938 0 
L 2938 2094 
Q 2938 2591 2744 2837 
Q 2550 3084 2163 3084 
Q 1697 3084 1428 2787 
Q 1159 2491 1159 1978 
L 1159 0 
L 581 0 
L 581 4863 
L 1159 4863 
L 1159 2956 
Q 1366 3272 1645 3428 
Q 1925 3584 2291 3584 
Q 2894 3584 3203 3211 
Q 3513 2838 3513 2113 
z
" transform="scale(0.015625)"/>
       <path id="DejaVuSans-6f" d="M 1959 3097 
Q 1497 3097 1228 2736 
Q 959 2375 959 1747 
Q 959 1119 1226 758 
Q 1494 397 1959 397 
Q 2419 397 2687 759 
Q 2956 1122 2956 1747 
Q 2956 2369 2687 2733 
Q 2419 3097 1959 3097 
z
M 1959 3584 
Q 2709 3584 3137 3096 
Q 3566 2609 3566 1747 
Q 3566 888 3137 398 
Q 2709 -91 1959 -91 
Q 1206 -91 779 398 
Q 353 888 353 1747 
Q 353 2609 779 3096 
Q 1206 3584 1959 3584 
z
" transform="scale(0.015625)"/>
       <path id="DejaVuSans-6c" d="M 603 4863 
L 1178 4863 
L 1178 0 
L 603 0 
L 603 4863 
z
" transform="scale(0.015625)"/>
       <path id="DejaVuSans-63" d="M 3122 3366 
L 3122 2828 
Q 2878 2963 2633 3030 
Q 2388 3097 2138 3097 
Q 1578 3097 1268 2742 
Q 959 2388 959 1747 
Q 959 1106 1268 751 
Q 1578 397 2138 397 
Q 2388 397 2633 464 
Q 2878 531 3122 666 
L 3122 134 
Q 2881 22 2623 -34 
Q 2366 -91 2075 -91 
Q 1284 -91 818 406 
Q 353 903 353 1747 
Q 353 2603 823 3093 
Q 1294 3584 2113 3584 
Q 2378 3584 2631 3529 
Q 2884 3475 3122 3366 
z
" transform="scale(0.015625)"/>
       <path id="DejaVuSans-70" d="M 1159 525 
L 1159 -1331 
L 581 -1331 
L 581 3500 
L 1159 3500 
L 1159 2969 
Q 1341 3281 1617 3432 
Q 1894 3584 2278 3584 
Q 2916 3584 3314 3078 
Q 3713 2572 3713 1747 
Q 3713 922 3314 415 
Q 2916 -91 2278 -91 
Q 1894 -91 1617 61 
Q 1341 213 1159 525 
z
M 3116 1747 
Q 3116 2381 2855 2742 
Q 2594 3103 2138 3103 
Q 1681 3103 1420 2742 
Q 1159 2381 1159 1747 
Q 1159 1113 1420 752 
Q 1681 391 2138 391 
Q 2594 391 2855 752 
Q 3116 1113 3116 1747 
z
" transform="scale(0.015625)"/>
       <path id="DejaVuSans-25" d="M 4653 2053 
Q 4381 2053 4226 1822 
Q 4072 1591 4072 1178 
Q 4072 772 4226 539 
Q 4381 306 4653 306 
Q 4919 306 5073 539 
Q 5228 772 5228 1178 
Q 5228 1588 5073 1820 
Q 4919 2053 4653 2053 
z
M 4653 2450 
Q 5147 2450 5437 2106 
Q 5728 1763 5728 1178 
Q 5728 594 5436 251 
Q 5144 -91 4653 -91 
Q 4153 -91 3862 251 
Q 3572 594 3572 1178 
Q 3572 1766 3864 2108 
Q 4156 2450 4653 2450 
z
M 1428 4353 
Q 1159 4353 1004 4120 
Q 850 3888 850 3481 
Q 850 3069 1003 2837 
Q 1156 2606 1428 2606 
Q 1700 2606 1854 2837 
Q 2009 3069 2009 3481 
Q 2009 3884 1853 4118 
Q 1697 4353 1428 4353 
z
M 4250 4750 
L 4750 4750 
L 1831 -91 
L 1331 -91 
L 4250 4750 
z
M 1428 4750 
Q 1922 4750 2215 4408 
Q 2509 4066 2509 3481 
Q 2509 2891 2217 2550 
Q 1925 2209 1428 2209 
Q 931 2209 642 2551 
Q 353 2894 353 3481 
Q 353 4063 643 4406 
Q 934 4750 1428 4750 
z
" transform="scale(0.015625)"/>
      </defs>
      <use xlink:href="#DejaVuSans-47"/>
      <use xlink:href="#DejaVuSans-72" transform="translate(77.490234 0)"/>
      <use xlink:href="#DejaVuSans-69" transform="translate(118.603516 0)"/>
      <use xlink:href="#DejaVuSans-64" transform="translate(146.386719 0)"/>
      <use xlink:href="#DejaVuSans-20" transform="translate(209.863281 0)"/>
      <use xlink:href="#DejaVuSans-73" transform="translate(241.650391 0)"/>
      <use xlink:href="#DejaVuSans-68" transform="translate(293.75 0)"/>
      <use xlink:href="#DejaVuSans-61" transform="translate(357.128906 0)"/>
      <use xlink:href="#DejaVuSans-72" transform="translate(418.408203 0)"/>
      <use xlink:href="#DejaVuSans-65" transform="translate(457.271484 0)"/>
      <use xlink:href="#DejaVuSans-20" transform="translate(518.794922 0)"/>
      <use xlink:href="#DejaVuSans-6f" transform="translate(550.582031 0)"/>
      <use xlink:href="#DejaVuSans-66" transform="translate(611.763672 0)"/>
      <use xlink:href="#DejaVuSans-20" transform="translate(646.96875 0)"/>
      <use xlink:href="#DejaVuSans-65" transform="translate(678.755859 0)"/>
      <use xlink:href="#DejaVuSans-6c" transform="translate(740.279297 0)"/>
      <use xlink:href="#DejaVuSans-65" transform="translate(768.0625 0)"/>
      <use xlink:href="#DejaVuSans-63" transform="translate(829.585938 0)"/>
      <use xlink:href="#DejaVuSans-74" transform="translate(884.566406 0)"/>
      <use xlink:href="#DejaVuSans-72" transform="translate(923.775391 0)"/>
      <use xlink:href="#DejaVuSans-69" transform="translate(964.888672 0)"/>
      <use xlink:href="#DejaVuSans-63" transform="translate(992.671875 0)"/>
      <use xlink:href="#DejaVuSans-69" transform="translate(1047.652344 0)"/>
      <use xlink:href="#DejaVuSans-74" transform="translate(1075.435547 0)"/>
      <use xlink:href="#DejaVuSans-79" transform="translate(1114.644531 0)"/>
      <use xlink:href="#DejaVuSans-20" transform="translate(1173.824219 0)"/>
      <use xlink:href="#DejaVuSans-69" transform="translate(1205.611328 0)"/>
      <use xlink:href="#DejaVuSans-6d" transform="translate(1233.394531 0)"/>
      <use xlink:href="#DejaVuSans-70" transform="translate(1330.806641 0)"/>
      <use xlink:href="#DejaVuSans-61" transform="translate(1394.283203 0)"/>
      <use xlink:href="#DejaVuSans-63" transform="translate(1455.5625 0)"/>
      <use xlink:href="#DejaVuSans-74" transform="translate(1510.542969 0)"/>
      <use xlink:href="#DejaVuSans-20" transform="translate(1549.751953 0)"/>
      <use xlink:href="#DejaVuSans-28" transform="translate(1581.539062 0)"/>
      <use xlink:href="#DejaVuSans-25" transform="translate(1620.552734 0)"/>
      <use xlink:href="#DejaVuSans-29" transform="translate(1715.572266 0)"/>
     </g>
    </g>
   </g>
   <g id="line2d_33">
    <path d="M 41.570938 21.132727 
L 56.240366 32.927494 
L 70.909795 43.782686 
L 85.579223 53.806274 
L 100.248652 63.090294 
L 114.91808 71.713686 
L 129.587509 79.744539 
L 144.256938 87.241899 
L 158.926366 94.257215 
L 173.595795 100.835531 
L 188.265223 107.016445 
L 202.934652 112.834912 
L 217.60408 118.321905 
L 232.273509 123.504966 
L 246.942938 128.408666 
L 261.612366 133.054999 
L 276.281795 137.463707 
L 290.951223 141.652567 
L 305.620652 145.637622 
L 320.29008 149.433393 
L 334.959509 153.053053 
L 349.628938 156.508581 
L 364.298366 159.810892 
L 378.967795 162.969958 
L 393.637223 165.994899 
L 408.306652 168.89408 
L 422.97608 171.675184 
L 437.645509 174.345281 
L 452.314937 176.910886 
L 466.984366 179.378017 
L 481.653795 181.752235 
L 496.323223 184.038692 
L 510.992652 186.242166 
L 525.66208 188.367095 
L 540.331509 190.417603 
L 555.000937 192.397534 
" clip-path="url(#p9d2e72b122)" style="fill: none; stroke: #57ab27; stroke-width: 2; stroke-linecap: square"/>
    <defs>
     <path id="m3db89b14dd" d="M -2 2 
L 2 -2 
M -2 -2 
L 2 2 
" style="stroke: #57ab27"/>
    </defs>
    <g clip-path="url(#p9d2e72b122)">
     <use xlink:href="#m3db89b14dd" x="41.570938" y="21.132727" style="fill: #57ab27; stroke: #57ab27"/>
     <use xlink:href="#m3db89b14dd" x="56.240366" y="32.927494" style="fill: #57ab27; stroke: #57ab27"/>
     <use xlink:href="#m3db89b14dd" x="70.909795" y="43.782686" style="fill: #57ab27; stroke: #57ab27"/>
     <use xlink:href="#m3db89b14dd" x="85.579223" y="53.806274" style="fill: #57ab27; stroke: #57ab27"/>
     <use xlink:href="#m3db89b14dd" x="100.248652" y="63.090294" style="fill: #57ab27; stroke: #57ab27"/>
     <use xlink:href="#m3db89b14dd" x="114.91808" y="71.713686" style="fill: #57ab27; stroke: #57ab27"/>
     <use xlink:href="#m3db89b14dd" x="129.587509" y="79.744539" style="fill: #57ab27; stroke: #57ab27"/>
     <use xlink:href="#m3db89b14dd" x="144.256938" y="87.241899" style="fill: #57ab27; stroke: #57ab27"/>
     <use xlink:href="#m3db89b14dd" x="158.926366" y="94.257215" style="fill: #57ab27; stroke: #57ab27"/>
     <use xlink:href="#m3db89b14dd" x="173.595795" y="100.835531" style="fill: #57ab27; stroke: #57ab27"/>
     <use xlink:href="#m3db89b14dd" x="188.265223" y="107.016445" style="fill: #57ab27; stroke: #57ab27"/>
     <use xlink:href="#m3db89b14dd" x="202.934652" y="112.834912" style="fill: #57ab27; stroke: #57ab27"/>
     <use xlink:href="#m3db89b14dd" x="217.60408" y="118.321905" style="fill: #57ab27; stroke: #57ab27"/>
     <use xlink:href="#m3db89b14dd" x="232.273509" y="123.504966" style="fill: #57ab27; stroke: #57ab27"/>
     <use xlink:href="#m3db89b14dd" x="246.942938" y="128.408666" style="fill: #57ab27; stroke: #57ab27"/>
     <use xlink:href="#m3db89b14dd" x="261.612366" y="133.054999" style="fill: #57ab27; stroke: #57ab27"/>
     <use xlink:href="#m3db89b14dd" x="276.281795" y="137.463707" style="fill: #57ab27; stroke: #57ab27"/>
     <use xlink:href="#m3db89b14dd" x="290.951223" y="141.652567" style="fill: #57ab27; stroke: #57ab27"/>
     <use xlink:href="#m3db89b14dd" x="305.620652" y="145.637622" style="fill: #57ab27; stroke: #57ab27"/>
     <use xlink:href="#m3db89b14dd" x="320.29008" y="149.433393" style="fill: #57ab27; stroke: #57ab27"/>
     <use xlink:href="#m3db89b14dd" x="334.959509" y="153.053053" style="fill: #57ab27; stroke: #57ab27"/>
     <use xlink:href="#m3db89b14dd" x="349.628938" y="156.508581" style="fill: #57ab27; stroke: #57ab27"/>
     <use xlink:href="#m3db89b14dd" x="364.298366" y="159.810892" style="fill: #57ab27; stroke: #57ab27"/>
     <use xlink:href="#m3db89b14dd" x="378.967795" y="162.969958" style="fill: #57ab27; stroke: #57ab27"/>
     <use xlink:href="#m3db89b14dd" x="393.637223" y="165.994899" style="fill: #57ab27; stroke: #57ab27"/>
     <use xlink:href="#m3db89b14dd" x="408.306652" y="168.89408" style="fill: #57ab27; stroke: #57ab27"/>
     <use xlink:href="#m3db89b14dd" x="422.97608" y="171.675184" style="fill: #57ab27; stroke: #57ab27"/>
     <use xlink:href="#m3db89b14dd" x="437.645509" y="174.345281" style="fill: #57ab27; stroke: #57ab27"/>
     <use xlink:href="#m3db89b14dd" x="452.314937" y="176.910886" style="fill: #57ab27; stroke: #57ab27"/>
     <use xlink:href="#m3db89b14dd" x="466.984366" y="179.378017" style="fill: #57ab27; stroke: #57ab27"/>
     <use xlink:href="#m3db89b14dd" x="481.653795" y="181.752235" style="fill: #57ab27; stroke: #57ab27"/>
     <use xlink:href="#m3db89b14dd" x="496.323223" y="184.038692" style="fill: #57ab27; stroke: #57ab27"/>
     <use xlink:href="#m3db89b14dd" x="510.992652" y="186.242166" style="fill: #57ab27; stroke: #57ab27"/>
     <use xlink:href="#m3db89b14dd" x="525.66208" y="188.367095" style="fill: #57ab27; stroke: #57ab27"/>
     <use xlink:href="#m3db89b14dd" x="540.331509" y="190.417603" style="fill: #57ab27; stroke: #57ab27"/>
     <use xlink:href="#m3db89b14dd" x="555.000937" y="192.397534" style="fill: #57ab27; stroke: #57ab27"/>
    </g>
   </g>
   <g id="line2d_34">
    <path d="M 41.570938 131.915158 
L 56.240366 140.554876 
L 70.909795 148.375174 
L 85.579223 155.48735 
L 100.248652 161.983416 
L 114.91808 167.940109 
L 129.587509 173.421926 
L 144.256938 178.483478 
L 158.926366 183.171311 
L 173.595795 187.52534 
L 188.265223 191.579993 
L 202.934652 195.365122 
L 217.60408 198.906736 
L 232.273509 202.227601 
L 246.942938 205.347734 
L 261.612366 208.2848 
L 276.281795 211.054452 
L 290.951223 213.670607 
L 305.620652 216.145682 
L 320.29008 218.490788 
L 334.959509 220.715902 
L 349.628938 222.830003 
L 364.298366 224.841196 
L 378.967795 226.756816 
L 393.637223 228.583519 
L 408.306652 230.327355 
L 422.97608 231.993837 
L 437.645509 233.588001 
L 452.314937 235.114454 
L 466.984366 236.57742 
L 481.653795 237.98078 
L 496.323223 239.328103 
L 510.992652 240.622681 
L 525.66208 241.86755 
L 540.331509 243.065521 
L 555.000937 244.219194 
" clip-path="url(#p9d2e72b122)" style="fill: none; stroke: #f6a800; stroke-width: 2; stroke-linecap: square"/>
    <defs>
     <path id="m12abe5e9dd" d="M -2 2 
L 2 -2 
M -2 -2 
L 2 2 
" style="stroke: #f6a800"/>
    </defs>
    <g clip-path="url(#p9d2e72b122)">
     <use xlink:href="#m12abe5e9dd" x="41.570938" y="131.915158" style="fill: #f6a800; stroke: #f6a800"/>
     <use xlink:href="#m12abe5e9dd" x="56.240366" y="140.554876" style="fill: #f6a800; stroke: #f6a800"/>
     <use xlink:href="#m12abe5e9dd" x="70.909795" y="148.375174" style="fill: #f6a800; stroke: #f6a800"/>
     <use xlink:href="#m12abe5e9dd" x="85.579223" y="155.48735" style="fill: #f6a800; stroke: #f6a800"/>
     <use xlink:href="#m12abe5e9dd" x="100.248652" y="161.983416" style="fill: #f6a800; stroke: #f6a800"/>
     <use xlink:href="#m12abe5e9dd" x="114.91808" y="167.940109" style="fill: #f6a800; stroke: #f6a800"/>
     <use xlink:href="#m12abe5e9dd" x="129.587509" y="173.421926" style="fill: #f6a800; stroke: #f6a800"/>
     <use xlink:href="#m12abe5e9dd" x="144.256938" y="178.483478" style="fill: #f6a800; stroke: #f6a800"/>
     <use xlink:href="#m12abe5e9dd" x="158.926366" y="183.171311" style="fill: #f6a800; stroke: #f6a800"/>
     <use xlink:href="#m12abe5e9dd" x="173.595795" y="187.52534" style="fill: #f6a800; stroke: #f6a800"/>
     <use xlink:href="#m12abe5e9dd" x="188.265223" y="191.579993" style="fill: #f6a800; stroke: #f6a800"/>
     <use xlink:href="#m12abe5e9dd" x="202.934652" y="195.365122" style="fill: #f6a800; stroke: #f6a800"/>
     <use xlink:href="#m12abe5e9dd" x="217.60408" y="198.906736" style="fill: #f6a800; stroke: #f6a800"/>
     <use xlink:href="#m12abe5e9dd" x="232.273509" y="202.227601" style="fill: #f6a800; stroke: #f6a800"/>
     <use xlink:href="#m12abe5e9dd" x="246.942938" y="205.347734" style="fill: #f6a800; stroke: #f6a800"/>
     <use xlink:href="#m12abe5e9dd" x="261.612366" y="208.2848" style="fill: #f6a800; stroke: #f6a800"/>
     <use xlink:href="#m12abe5e9dd" x="276.281795" y="211.054452" style="fill: #f6a800; stroke: #f6a800"/>
     <use xlink:href="#m12abe5e9dd" x="290.951223" y="213.670607" style="fill: #f6a800; stroke: #f6a800"/>
     <use xlink:href="#m12abe5e9dd" x="305.620652" y="216.145682" style="fill: #f6a800; stroke: #f6a800"/>
     <use xlink:href="#m12abe5e9dd" x="320.29008" y="218.490788" style="fill: #f6a800; stroke: #f6a800"/>
     <use xlink:href="#m12abe5e9dd" x="334.959509" y="220.715902" style="fill: #f6a800; stroke: #f6a800"/>
     <use xlink:href="#m12abe5e9dd" x="349.628938" y="222.830003" style="fill: #f6a800; stroke: #f6a800"/>
     <use xlink:href="#m12abe5e9dd" x="364.298366" y="224.841196" style="fill: #f6a800; stroke: #f6a800"/>
     <use xlink:href="#m12abe5e9dd" x="378.967795" y="226.756816" style="fill: #f6a800; stroke: #f6a800"/>
     <use xlink:href="#m12abe5e9dd" x="393.637223" y="228.583519" style="fill: #f6a800; stroke: #f6a800"/>
     <use xlink:href="#m12abe5e9dd" x="408.306652" y="230.327355" style="fill: #f6a800; stroke: #f6a800"/>
     <use xlink:href="#m12abe5e9dd" x="422.97608" y="231.993837" style="fill: #f6a800; stroke: #f6a800"/>
     <use xlink:href="#m12abe5e9dd" x="437.645509" y="233.588001" style="fill: #f6a800; stroke: #f6a800"/>
     <use xlink:href="#m12abe5e9dd" x="452.314937" y="235.114454" style="fill: #f6a800; stroke: #f6a800"/>
     <use xlink:href="#m12abe5e9dd" x="466.984366" y="236.57742" style="fill: #f6a800; stroke: #f6a800"/>
     <use xlink:href="#m12abe5e9dd" x="481.653795" y="237.98078" style="fill: #f6a800; stroke: #f6a800"/>
     <use xlink:href="#m12abe5e9dd" x="496.323223" y="239.328103" style="fill: #f6a800; stroke: #f6a800"/>
     <use xlink:href="#m12abe5e9dd" x="510.992652" y="240.622681" style="fill: #f6a800; stroke: #f6a800"/>
     <use xlink:href="#m12abe5e9dd" x="525.66208" y="241.86755" style="fill: #f6a800; stroke: #f6a800"/>
     <use xlink:href="#m12abe5e9dd" x="540.331509" y="243.065521" style="fill: #f6a800; stroke: #f6a800"/>
     <use xlink:href="#m12abe5e9dd" x="555.000937" y="244.219194" style="fill: #f6a800; stroke: #f6a800"/>
    </g>
   </g>
   <g id="line2d_35">
    <path d="M 41.570938 225.638728 
L 56.240366 230.164299 
L 70.909795 234.204265 
L 85.579223 237.832805 
L 100.248652 241.109723 
L 114.91808 244.083769 
L 129.587509 246.795076 
L 144.256938 249.276989 
L 158.926366 251.557439 
L 173.595795 253.659999 
L 188.265223 255.604703 
L 202.934652 257.408684 
L 217.60408 259.086684 
L 232.273509 260.651455 
L 246.942938 262.114082 
L 261.612366 263.484252 
L 276.281795 264.770463 
L 290.951223 265.980201 
L 305.620652 267.120092 
L 320.29008 268.196013 
L 334.959509 269.213203 
L 349.628938 270.176343 
L 364.298366 271.08963 
L 378.967795 271.956837 
L 393.637223 272.781364 
L 408.306652 273.566288 
L 422.97608 274.314395 
L 437.645509 275.028215 
L 452.314937 275.710054 
L 466.984366 276.362013 
L 481.653795 276.986014 
L 496.323223 277.583817 
L 510.992652 278.15704 
L 525.66208 278.707167 
L 540.331509 279.235566 
L 555.000937 279.7435 
" clip-path="url(#p9d2e72b122)" style="fill: none; stroke: #cc071e; stroke-width: 2; stroke-linecap: square"/>
    <defs>
     <path id="me924fee204" d="M -2 2 
L 2 -2 
M -2 -2 
L 2 2 
" style="stroke: #cc071e"/>
    </defs>
    <g clip-path="url(#p9d2e72b122)">
     <use xlink:href="#me924fee204" x="41.570938" y="225.638728" style="fill: #cc071e; stroke: #cc071e"/>
     <use xlink:href="#me924fee204" x="56.240366" y="230.164299" style="fill: #cc071e; stroke: #cc071e"/>
     <use xlink:href="#me924fee204" x="70.909795" y="234.204265" style="fill: #cc071e; stroke: #cc071e"/>
     <use xlink:href="#me924fee204" x="85.579223" y="237.832805" style="fill: #cc071e; stroke: #cc071e"/>
     <use xlink:href="#me924fee204" x="100.248652" y="241.109723" style="fill: #cc071e; stroke: #cc071e"/>
     <use xlink:href="#me924fee204" x="114.91808" y="244.083769" style="fill: #cc071e; stroke: #cc071e"/>
     <use xlink:href="#me924fee204" x="129.587509" y="246.795076" style="fill: #cc071e; stroke: #cc071e"/>
     <use xlink:href="#me924fee204" x="144.256938" y="249.276989" style="fill: #cc071e; stroke: #cc071e"/>
     <use xlink:href="#me924fee204" x="158.926366" y="251.557439" style="fill: #cc071e; stroke: #cc071e"/>
     <use xlink:href="#me924fee204" x="173.595795" y="253.659999" style="fill: #cc071e; stroke: #cc071e"/>
     <use xlink:href="#me924fee204" x="188.265223" y="255.604703" style="fill: #cc071e; stroke: #cc071e"/>
     <use xlink:href="#me924fee204" x="202.934652" y="257.408684" style="fill: #cc071e; stroke: #cc071e"/>
     <use xlink:href="#me924fee204" x="217.60408" y="259.086684" style="fill: #cc071e; stroke: #cc071e"/>
     <use xlink:href="#me924fee204" x="232.273509" y="260.651455" style="fill: #cc071e; stroke: #cc071e"/>
     <use xlink:href="#me924fee204" x="246.942938" y="262.114082" style="fill: #cc071e; stroke: #cc071e"/>
     <use xlink:href="#me924fee204" x="261.612366" y="263.484252" style="fill: #cc071e; stroke: #cc071e"/>
     <use xlink:href="#me924fee204" x="276.281795" y="264.770463" style="fill: #cc071e; stroke: #cc071e"/>
     <use xlink:href="#me924fee204" x="290.951223" y="265.980201" style="fill: #cc071e; stroke: #cc071e"/>
     <use xlink:href="#me924fee204" x="305.620652" y="267.120092" style="fill: #cc071e; stroke: #cc071e"/>
     <use xlink:href="#me924fee204" x="320.29008" y="268.196013" style="fill: #cc071e; stroke: #cc071e"/>
     <use xlink:href="#me924fee204" x="334.959509" y="269.213203" style="fill: #cc071e; stroke: #cc071e"/>
     <use xlink:href="#me924fee204" x="349.628938" y="270.176343" style="fill: #cc071e; stroke: #cc071e"/>
     <use xlink:href="#me924fee204" x="364.298366" y="271.08963" style="fill: #cc071e; stroke: #cc071e"/>
     <use xlink:href="#me924fee204" x="378.967795" y="271.956837" style="fill: #cc071e; stroke: #cc071e"/>
     <use xlink:href="#me924fee204" x="393.637223" y="272.781364" style="fill: #cc071e; stroke: #cc071e"/>
     <use xlink:href="#me924fee204" x="408.306652" y="273.566288" style="fill: #cc071e; stroke: #cc071e"/>
     <use xlink:href="#me924fee204" x="422.97608" y="274.314395" style="fill: #cc071e; stroke: #cc071e"/>
     <use xlink:href="#me924fee204" x="437.645509" y="275.028215" style="fill: #cc071e; stroke: #cc071e"/>
     <use xlink:href="#me924fee204" x="452.314937" y="275.710054" style="fill: #cc071e; stroke: #cc071e"/>
     <use xlink:href="#me924fee204" x="466.984366" y="276.362013" style="fill: #cc071e; stroke: #cc071e"/>
     <use xlink:href="#me924fee204" x="481.653795" y="276.986014" style="fill: #cc071e; stroke: #cc071e"/>
     <use xlink:href="#me924fee204" x="496.323223" y="277.583817" style="fill: #cc071e; stroke: #cc071e"/>
     <use xlink:href="#me924fee204" x="510.992652" y="278.15704" style="fill: #cc071e; stroke: #cc071e"/>
     <use xlink:href="#me924fee204" x="525.66208" y="278.707167" style="fill: #cc071e; stroke: #cc071e"/>
     <use xlink:href="#me924fee204" x="540.331509" y="279.235566" style="fill: #cc071e; stroke: #cc071e"/>
     <use xlink:href="#me924fee204" x="555.000937" y="279.7435" style="fill: #cc071e; stroke: #cc071e"/>
    </g>
   </g>
   <g id="line2d_36">
    <path d="M 41.570938 286.844268 
L 56.240366 287.982943 
L 70.909795 288.990379 
L 85.579223 289.888029 
L 100.248652 290.692912 
L 114.91808 291.418702 
L 129.587509 292.07651 
L 144.256938 292.675462 
L 158.926366 293.223117 
L 173.595795 293.725796 
L 188.265223 294.18882 
L 202.934652 294.616703 
L 217.60408 295.0133 
L 232.273509 295.381921 
L 246.942938 295.725425 
L 261.612366 296.046296 
L 276.281795 296.346698 
L 290.951223 296.628529 
L 305.620652 296.893461 
L 320.29008 297.142968 
L 334.959509 297.37836 
L 349.628938 297.600801 
L 364.298366 297.811332 
L 378.967795 298.010885 
L 393.637223 298.200296 
L 408.306652 298.380319 
L 422.97608 298.551635 
L 437.645509 298.714861 
L 452.314937 298.870558 
L 466.984366 299.019233 
L 481.653795 299.161352 
L 496.323223 299.297339 
L 510.992652 299.427582 
L 525.66208 299.552438 
L 540.331509 299.672235 
L 555.000937 299.787273 
" clip-path="url(#p9d2e72b122)" style="fill: none; stroke: #000000; stroke-width: 2; stroke-linecap: square"/>
    <defs>
     <path id="m8938717c3a" d="M -2 2 
L 2 -2 
M -2 -2 
L 2 2 
" style="stroke: #000000"/>
    </defs>
    <g clip-path="url(#p9d2e72b122)">
     <use xlink:href="#m8938717c3a" x="41.570938" y="286.844268" style="stroke: #000000"/>
     <use xlink:href="#m8938717c3a" x="56.240366" y="287.982943" style="stroke: #000000"/>
     <use xlink:href="#m8938717c3a" x="70.909795" y="288.990379" style="stroke: #000000"/>
     <use xlink:href="#m8938717c3a" x="85.579223" y="289.888029" style="stroke: #000000"/>
     <use xlink:href="#m8938717c3a" x="100.248652" y="290.692912" style="stroke: #000000"/>
     <use xlink:href="#m8938717c3a" x="114.91808" y="291.418702" style="stroke: #000000"/>
     <use xlink:href="#m8938717c3a" x="129.587509" y="292.07651" style="stroke: #000000"/>
     <use xlink:href="#m8938717c3a" x="144.256938" y="292.675462" style="stroke: #000000"/>
     <use xlink:href="#m8938717c3a" x="158.926366" y="293.223117" style="stroke: #000000"/>
     <use xlink:href="#m8938717c3a" x="173.595795" y="293.725796" style="stroke: #000000"/>
     <use xlink:href="#m8938717c3a" x="188.265223" y="294.18882" style="stroke: #000000"/>
     <use xlink:href="#m8938717c3a" x="202.934652" y="294.616703" style="stroke: #000000"/>
     <use xlink:href="#m8938717c3a" x="217.60408" y="295.0133" style="stroke: #000000"/>
     <use xlink:href="#m8938717c3a" x="232.273509" y="295.381921" style="stroke: #000000"/>
     <use xlink:href="#m8938717c3a" x="246.942938" y="295.725425" style="stroke: #000000"/>
     <use xlink:href="#m8938717c3a" x="261.612366" y="296.046296" style="stroke: #000000"/>
     <use xlink:href="#m8938717c3a" x="276.281795" y="296.346698" style="stroke: #000000"/>
     <use xlink:href="#m8938717c3a" x="290.951223" y="296.628529" style="stroke: #000000"/>
     <use xlink:href="#m8938717c3a" x="305.620652" y="296.893461" style="stroke: #000000"/>
     <use xlink:href="#m8938717c3a" x="320.29008" y="297.142968" style="stroke: #000000"/>
     <use xlink:href="#m8938717c3a" x="334.959509" y="297.37836" style="stroke: #000000"/>
     <use xlink:href="#m8938717c3a" x="349.628938" y="297.600801" style="stroke: #000000"/>
     <use xlink:href="#m8938717c3a" x="364.298366" y="297.811332" style="stroke: #000000"/>
     <use xlink:href="#m8938717c3a" x="378.967795" y="298.010885" style="stroke: #000000"/>
     <use xlink:href="#m8938717c3a" x="393.637223" y="298.200296" style="stroke: #000000"/>
     <use xlink:href="#m8938717c3a" x="408.306652" y="298.380319" style="stroke: #000000"/>
     <use xlink:href="#m8938717c3a" x="422.97608" y="298.551635" style="stroke: #000000"/>
     <use xlink:href="#m8938717c3a" x="437.645509" y="298.714861" style="stroke: #000000"/>
     <use xlink:href="#m8938717c3a" x="452.314937" y="298.870558" style="stroke: #000000"/>
     <use xlink:href="#m8938717c3a" x="466.984366" y="299.019233" style="stroke: #000000"/>
     <use xlink:href="#m8938717c3a" x="481.653795" y="299.161352" style="stroke: #000000"/>
     <use xlink:href="#m8938717c3a" x="496.323223" y="299.297339" style="stroke: #000000"/>
     <use xlink:href="#m8938717c3a" x="510.992652" y="299.427582" style="stroke: #000000"/>
     <use xlink:href="#m8938717c3a" x="525.66208" y="299.552438" style="stroke: #000000"/>
     <use xlink:href="#m8938717c3a" x="540.331509" y="299.672235" style="stroke: #000000"/>
     <use xlink:href="#m8938717c3a" x="555.000937" y="299.787273" style="stroke: #000000"/>
    </g>
   </g>
   <g id="line2d_37">
    <path d="M 261.612366 313.72 
L 261.612366 7.2 
" clip-path="url(#p9d2e72b122)" style="fill: none; stroke-dasharray: 5.55,2.4; stroke-dashoffset: 0; stroke: #808080; stroke-opacity: 0.7; stroke-width: 1.5"/>
   </g>
   <g id="patch_3">
    <path d="M 41.570938 313.72 
L 41.570938 7.2 
" style="fill: none; stroke: #000000; stroke-width: 0.8; stroke-linejoin: miter; stroke-linecap: square"/>
   </g>
   <g id="patch_4">
    <path d="M 555.000937 313.72 
L 555.000937 7.2 
" style="fill: none; stroke: #000000; stroke-width: 0.8; stroke-linejoin: miter; stroke-linecap: square"/>
   </g>
   <g id="patch_5">
    <path d="M 41.570938 313.72 
L 555.000937 313.72 
" style="fill: none; stroke: #000000; stroke-width: 0.8; stroke-linejoin: miter; stroke-linecap: square"/>
   </g>
   <g id="patch_6">
    <path d="M 41.570938 7.2 
L 555.000937 7.2 
" style="fill: none; stroke: #000000; stroke-width: 0.8; stroke-linejoin: miter; stroke-linecap: square"/>
   </g>
   <g id="legend_1">
    <g id="patch_7">
     <path d="M 411.0775 88.590625 
L 548.000937 88.590625 
Q 550.000937 88.590625 550.000937 86.590625 
L 550.000937 14.2 
Q 550.000937 12.2 548.000937 12.2 
L 411.0775 12.2 
Q 409.0775 12.2 409.0775 14.2 
L 409.0775 86.590625 
Q 409.0775 88.590625 411.0775 88.590625 
z
" style="fill: #ffffff; opacity: 0.8; stroke: #cccccc; stroke-linejoin: miter"/>
    </g>
    <g id="line2d_38">
     <path d="M 413.0775 20.298438 
L 423.0775 20.298438 
L 433.0775 20.298438 
" style="fill: none; stroke: #57ab27; stroke-width: 2; stroke-linecap: square"/>
     <g>
      <use xlink:href="#m3db89b14dd" x="423.0775" y="20.298438" style="fill: #57ab27; stroke: #57ab27"/>
     </g>
    </g>
    <g id="text_19">
     <!-- 1.5°C scenario -->
     <g transform="translate(441.0775 23.798438) scale(0.1 -0.1)">
      <defs>
       <path id="DejaVuSans-2e" d="M 684 794 
L 1344 794 
L 1344 0 
L 684 0 
L 684 794 
z
" transform="scale(0.015625)"/>
       <path id="DejaVuSans-b0" d="M 1600 4347 
Q 1350 4347 1178 4173 
Q 1006 4000 1006 3750 
Q 1006 3503 1178 3333 
Q 1350 3163 1600 3163 
Q 1850 3163 2022 3333 
Q 2194 3503 2194 3750 
Q 2194 3997 2020 4172 
Q 1847 4347 1600 4347 
z
M 1600 4750 
Q 1800 4750 1984 4673 
Q 2169 4597 2303 4453 
Q 2447 4313 2519 4134 
Q 2591 3956 2591 3750 
Q 2591 3338 2302 3052 
Q 2013 2766 1594 2766 
Q 1172 2766 890 3047 
Q 609 3328 609 3750 
Q 609 4169 896 4459 
Q 1184 4750 1600 4750 
z
" transform="scale(0.015625)"/>
       <path id="DejaVuSans-43" d="M 4122 4306 
L 4122 3641 
Q 3803 3938 3442 4084 
Q 3081 4231 2675 4231 
Q 1875 4231 1450 3742 
Q 1025 3253 1025 2328 
Q 1025 1406 1450 917 
Q 1875 428 2675 428 
Q 3081 428 3442 575 
Q 3803 722 4122 1019 
L 4122 359 
Q 3791 134 3420 21 
Q 3050 -91 2638 -91 
Q 1578 -91 968 557 
Q 359 1206 359 2328 
Q 359 3453 968 4101 
Q 1578 4750 2638 4750 
Q 3056 4750 3426 4639 
Q 3797 4528 4122 4306 
z
" transform="scale(0.015625)"/>
       <path id="DejaVuSans-6e" d="M 3513 2113 
L 3513 0 
L 2938 0 
L 2938 2094 
Q 2938 2591 2744 2837 
Q 2550 3084 2163 3084 
Q 1697 3084 1428 2787 
Q 1159 2491 1159 1978 
L 1159 0 
L 581 0 
L 581 3500 
L 1159 3500 
L 1159 2956 
Q 1366 3272 1645 3428 
Q 1925 3584 2291 3584 
Q 2894 3584 3203 3211 
Q 3513 2838 3513 2113 
z
" transform="scale(0.015625)"/>
      </defs>
      <use xlink:href="#DejaVuSans-31"/>
      <use xlink:href="#DejaVuSans-2e" transform="translate(63.623047 0)"/>
      <use xlink:href="#DejaVuSans-35" transform="translate(95.410156 0)"/>
      <use xlink:href="#DejaVuSans-b0" transform="translate(159.033203 0)"/>
      <use xlink:href="#DejaVuSans-43" transform="translate(209.033203 0)"/>
      <use xlink:href="#DejaVuSans-20" transform="translate(278.857422 0)"/>
      <use xlink:href="#DejaVuSans-73" transform="translate(310.644531 0)"/>
      <use xlink:href="#DejaVuSans-63" transform="translate(362.744141 0)"/>
      <use xlink:href="#DejaVuSans-65" transform="translate(417.724609 0)"/>
      <use xlink:href="#DejaVuSans-6e" transform="translate(479.248047 0)"/>
      <use xlink:href="#DejaVuSans-61" transform="translate(542.626953 0)"/>
      <use xlink:href="#DejaVuSans-72" transform="translate(603.90625 0)"/>
      <use xlink:href="#DejaVuSans-69" transform="translate(645.019531 0)"/>
      <use xlink:href="#DejaVuSans-6f" transform="translate(672.802734 0)"/>
     </g>
    </g>
    <g id="line2d_39">
     <path d="M 413.0775 34.976563 
L 423.0775 34.976563 
L 433.0775 34.976563 
" style="fill: none; stroke: #f6a800; stroke-width: 2; stroke-linecap: square"/>
     <g>
      <use xlink:href="#m12abe5e9dd" x="423.0775" y="34.976563" style="fill: #f6a800; stroke: #f6a800"/>
     </g>
    </g>
    <g id="text_20">
     <!-- 2°C scenario -->
     <g transform="translate(441.0775 38.476563) scale(0.1 -0.1)">
      <use xlink:href="#DejaVuSans-32"/>
      <use xlink:href="#DejaVuSans-b0" transform="translate(63.623047 0)"/>
      <use xlink:href="#DejaVuSans-43" transform="translate(113.623047 0)"/>
      <use xlink:href="#DejaVuSans-20" transform="translate(183.447266 0)"/>
      <use xlink:href="#DejaVuSans-73" transform="translate(215.234375 0)"/>
      <use xlink:href="#DejaVuSans-63" transform="translate(267.333984 0)"/>
      <use xlink:href="#DejaVuSans-65" transform="translate(322.314453 0)"/>
      <use xlink:href="#DejaVuSans-6e" transform="translate(383.837891 0)"/>
      <use xlink:href="#DejaVuSans-61" transform="translate(447.216797 0)"/>
      <use xlink:href="#DejaVuSans-72" transform="translate(508.496094 0)"/>
      <use xlink:href="#DejaVuSans-69" transform="translate(549.609375 0)"/>
      <use xlink:href="#DejaVuSans-6f" transform="translate(577.392578 0)"/>
     </g>
    </g>
    <g id="line2d_40">
     <path d="M 413.0775 49.654688 
L 423.0775 49.654688 
L 433.0775 49.654688 
" style="fill: none; stroke: #cc071e; stroke-width: 2; stroke-linecap: square"/>
     <g>
      <use xlink:href="#me924fee204" x="423.0775" y="49.654688" style="fill: #cc071e; stroke: #cc071e"/>
     </g>
    </g>
    <g id="text_21">
     <!-- 3°C scenario -->
     <g transform="translate(441.0775 53.154688) scale(0.1 -0.1)">
      <use xlink:href="#DejaVuSans-33"/>
      <use xlink:href="#DejaVuSans-b0" transform="translate(63.623047 0)"/>
      <use xlink:href="#DejaVuSans-43" transform="translate(113.623047 0)"/>
      <use xlink:href="#DejaVuSans-20" transform="translate(183.447266 0)"/>
      <use xlink:href="#DejaVuSans-73" transform="translate(215.234375 0)"/>
      <use xlink:href="#DejaVuSans-63" transform="translate(267.333984 0)"/>
      <use xlink:href="#DejaVuSans-65" transform="translate(322.314453 0)"/>
      <use xlink:href="#DejaVuSans-6e" transform="translate(383.837891 0)"/>
      <use xlink:href="#DejaVuSans-61" transform="translate(447.216797 0)"/>
      <use xlink:href="#DejaVuSans-72" transform="translate(508.496094 0)"/>
      <use xlink:href="#DejaVuSans-69" transform="translate(549.609375 0)"/>
      <use xlink:href="#DejaVuSans-6f" transform="translate(577.392578 0)"/>
     </g>
    </g>
    <g id="line2d_41">
     <path d="M 413.0775 64.332813 
L 423.0775 64.332813 
L 433.0775 64.332813 
" style="fill: none; stroke: #000000; stroke-width: 2; stroke-linecap: square"/>
     <g>
      <use xlink:href="#m8938717c3a" x="423.0775" y="64.332813" style="stroke: #000000"/>
     </g>
    </g>
    <g id="text_22">
     <!-- Status quo (2023) -->
     <g transform="translate(441.0775 67.832813) scale(0.1 -0.1)">
      <defs>
       <path id="DejaVuSans-53" d="M 3425 4513 
L 3425 3897 
Q 3066 4069 2747 4153 
Q 2428 4238 2131 4238 
Q 1616 4238 1336 4038 
Q 1056 3838 1056 3469 
Q 1056 3159 1242 3001 
Q 1428 2844 1947 2747 
L 2328 2669 
Q 3034 2534 3370 2195 
Q 3706 1856 3706 1288 
Q 3706 609 3251 259 
Q 2797 -91 1919 -91 
Q 1588 -91 1214 -16 
Q 841 59 441 206 
L 441 856 
Q 825 641 1194 531 
Q 1563 422 1919 422 
Q 2459 422 2753 634 
Q 3047 847 3047 1241 
Q 3047 1584 2836 1778 
Q 2625 1972 2144 2069 
L 1759 2144 
Q 1053 2284 737 2584 
Q 422 2884 422 3419 
Q 422 4038 858 4394 
Q 1294 4750 2059 4750 
Q 2388 4750 2728 4690 
Q 3069 4631 3425 4513 
z
" transform="scale(0.015625)"/>
       <path id="DejaVuSans-75" d="M 544 1381 
L 544 3500 
L 1119 3500 
L 1119 1403 
Q 1119 906 1312 657 
Q 1506 409 1894 409 
Q 2359 409 2629 706 
Q 2900 1003 2900 1516 
L 2900 3500 
L 3475 3500 
L 3475 0 
L 2900 0 
L 2900 538 
Q 2691 219 2414 64 
Q 2138 -91 1772 -91 
Q 1169 -91 856 284 
Q 544 659 544 1381 
z
M 1991 3584 
L 1991 3584 
z
" transform="scale(0.015625)"/>
       <path id="DejaVuSans-71" d="M 947 1747 
Q 947 1113 1208 752 
Q 1469 391 1925 391 
Q 2381 391 2643 752 
Q 2906 1113 2906 1747 
Q 2906 2381 2643 2742 
Q 2381 3103 1925 3103 
Q 1469 3103 1208 2742 
Q 947 2381 947 1747 
z
M 2906 525 
Q 2725 213 2448 61 
Q 2172 -91 1784 -91 
Q 1150 -91 751 415 
Q 353 922 353 1747 
Q 353 2572 751 3078 
Q 1150 3584 1784 3584 
Q 2172 3584 2448 3432 
Q 2725 3281 2906 2969 
L 2906 3500 
L 3481 3500 
L 3481 -1331 
L 2906 -1331 
L 2906 525 
z
" transform="scale(0.015625)"/>
      </defs>
      <use xlink:href="#DejaVuSans-53"/>
      <use xlink:href="#DejaVuSans-74" transform="translate(63.476562 0)"/>
      <use xlink:href="#DejaVuSans-61" transform="translate(102.685547 0)"/>
      <use xlink:href="#DejaVuSans-74" transform="translate(163.964844 0)"/>
      <use xlink:href="#DejaVuSans-75" transform="translate(203.173828 0)"/>
      <use xlink:href="#DejaVuSans-73" transform="translate(266.552734 0)"/>
      <use xlink:href="#DejaVuSans-20" transform="translate(318.652344 0)"/>
      <use xlink:href="#DejaVuSans-71" transform="translate(350.439453 0)"/>
      <use xlink:href="#DejaVuSans-75" transform="translate(413.916016 0)"/>
      <use xlink:href="#DejaVuSans-6f" transform="translate(477.294922 0)"/>
      <use xlink:href="#DejaVuSans-20" transform="translate(538.476562 0)"/>
      <use xlink:href="#DejaVuSans-28" transform="translate(570.263672 0)"/>
      <use xlink:href="#DejaVuSans-32" transform="translate(609.277344 0)"/>
      <use xlink:href="#DejaVuSans-30" transform="translate(672.900391 0)"/>
      <use xlink:href="#DejaVuSans-32" transform="translate(736.523438 0)"/>
      <use xlink:href="#DejaVuSans-33" transform="translate(800.146484 0)"/>
      <use xlink:href="#DejaVuSans-29" transform="translate(863.769531 0)"/>
     </g>
    </g>
    <g id="line2d_42">
     <path d="M 413.0775 79.010938 
L 423.0775 79.010938 
L 433.0775 79.010938 
" style="fill: none; stroke-dasharray: 5.55,2.4; stroke-dashoffset: 0; stroke: #808080; stroke-opacity: 0.7; stroke-width: 1.5"/>
    </g>
    <g id="text_23">
     <!-- Base case (30 years) -->
     <g transform="translate(441.0775 82.510938) scale(0.1 -0.1)">
      <defs>
       <path id="DejaVuSans-42" d="M 1259 2228 
L 1259 519 
L 2272 519 
Q 2781 519 3026 730 
Q 3272 941 3272 1375 
Q 3272 1813 3026 2020 
Q 2781 2228 2272 2228 
L 1259 2228 
z
M 1259 4147 
L 1259 2741 
L 2194 2741 
Q 2656 2741 2882 2914 
Q 3109 3088 3109 3444 
Q 3109 3797 2882 3972 
Q 2656 4147 2194 4147 
L 1259 4147 
z
M 628 4666 
L 2241 4666 
Q 2963 4666 3353 4366 
Q 3744 4066 3744 3513 
Q 3744 3084 3544 2831 
Q 3344 2578 2956 2516 
Q 3422 2416 3680 2098 
Q 3938 1781 3938 1306 
Q 3938 681 3513 340 
Q 3088 0 2303 0 
L 628 0 
L 628 4666 
z
" transform="scale(0.015625)"/>
      </defs>
      <use xlink:href="#DejaVuSans-42"/>
      <use xlink:href="#DejaVuSans-61" transform="translate(68.603516 0)"/>
      <use xlink:href="#DejaVuSans-73" transform="translate(129.882812 0)"/>
      <use xlink:href="#DejaVuSans-65" transform="translate(181.982422 0)"/>
      <use xlink:href="#DejaVuSans-20" transform="translate(243.505859 0)"/>
      <use xlink:href="#DejaVuSans-63" transform="translate(275.292969 0)"/>
      <use xlink:href="#DejaVuSans-61" transform="translate(330.273438 0)"/>
      <use xlink:href="#DejaVuSans-73" transform="translate(391.552734 0)"/>
      <use xlink:href="#DejaVuSans-65" transform="translate(443.652344 0)"/>
      <use xlink:href="#DejaVuSans-20" transform="translate(505.175781 0)"/>
      <use xlink:href="#DejaVuSans-28" transform="translate(536.962891 0)"/>
      <use xlink:href="#DejaVuSans-33" transform="translate(575.976562 0)"/>
      <use xlink:href="#DejaVuSans-30" transform="translate(639.599609 0)"/>
      <use xlink:href="#DejaVuSans-20" transform="translate(703.222656 0)"/>
      <use xlink:href="#DejaVuSans-79" transform="translate(735.009766 0)"/>
      <use xlink:href="#DejaVuSans-65" transform="translate(794.189453 0)"/>
      <use xlink:href="#DejaVuSans-61" transform="translate(855.712891 0)"/>
      <use xlink:href="#DejaVuSans-72" transform="translate(916.992188 0)"/>
      <use xlink:href="#DejaVuSans-73" transform="translate(958.105469 0)"/>
      <use xlink:href="#DejaVuSans-29" transform="translate(1010.205078 0)"/>
     </g>
    </g>
   </g>
  </g>
 </g>
 <defs>
  <clipPath id="p9d2e72b122">
   <rect x="41.570938" y="7.2" width="513.43" height="306.52"/>
  </clipPath>
 </defs>
</svg>
